<svg xmlns="http://www.w3.org/2000/svg" xmlns:xlink="http://www.w3.org/1999/xlink" width="125.986" height="56" viewBox="0 0 347.64 154.62"><defs><clipPath id="clip-path"><rect width="347.64" height="154.62" fill="none"/></clipPath><clipPath id="clip-path-2"><rect x="220.66" y="7.76" width="34.27" height="23.01" fill="none"/></clipPath><clipPath id="clip-path-3"><path d="M241.15,7.76a19.33,19.33,0,0,0-18.6,14.9l-1.88,8.1h0c1.52-.42,3.08-.76,4.65-1.07l1.41-6.06a15,15,0,0,1,14.54-11.58,15,15,0,0,1,4.38.65l5.85,1.78a27.26,27.26,0,0,1,3.44-3.44l-8-2.44a19.17,19.17,0,0,0-5.52-.85Z" fill="none"/></clipPath><linearGradient id="linear-gradient" x1="-1372.1" y1="1353.07" x2="-1371.1" y2="1353.07" gradientTransform="matrix(28.34, 0, 0, -28.34, 39118.6, 38370.72)" gradientUnits="userSpaceOnUse"><stop offset="0" stop-color="#fff"/><stop offset="1" stop-color="#1f754a"/></linearGradient><clipPath id="clip-path-4"><rect x="287.03" y="7.76" width="32.69" height="21.8" fill="none"/></clipPath><clipPath id="clip-path-5"><path d="M299.26,7.76a19.57,19.57,0,0,0-5.49.85l-6.74,2a34.63,34.63,0,0,1,1.52,4l6.46-2a15,15,0,0,1,18.92,10.93l1.24,5.29a38.32,38.32,0,0,1,4.55.64l-1.61-6.91a19.31,19.31,0,0,0-18.56-14.9Z" fill="none"/></clipPath><linearGradient id="linear-gradient-2" x1="-1354.82" y1="1350.55" x2="-1353.82" y2="1350.55" gradientTransform="matrix(19.4, 0, 0, -19.4, 26580.43, 26214.96)" xlink:href="#linear-gradient"/><clipPath id="clip-path-6"><rect x="193.02" y="57.3" width="13.75" height="39.71" fill="none"/></clipPath><clipPath id="clip-path-7"><path d="M199.12,63.25a19.26,19.26,0,0,0,0,28.11l6,5.65a25.45,25.45,0,0,1,1.46-4.51l-4.56-4.27a15,15,0,0,1,0-21.85L206.78,62c-.49-1.54-.94-3.09-1.3-4.66Z" fill="none"/></clipPath><linearGradient id="linear-gradient-3" x1="-1360.9" y1="1347.82" x2="-1359.9" y2="1347.82" gradientTransform="matrix(29.97, 0, 0, -29.97, 40972.22, 40476.34)" xlink:href="#linear-gradient"/><clipPath id="clip-path-8"><rect x="334.36" y="57.72" width="13.28" height="36.43" fill="none"/></clipPath><clipPath id="clip-path-9"><path d="M334.36,62.4l4.25,4a15,15,0,0,1,0,21.85l-2.69,2.52a8,8,0,0,1,2.65,3.4h0l3-2.79a19.26,19.26,0,0,0,0-28.11l-5.92-5.53a45.19,45.19,0,0,1-1.27,4.68" fill="none"/></clipPath><linearGradient id="linear-gradient-4" x1="-1355.57" y1="1339.25" x2="-1354.57" y2="1339.25" gradientTransform="matrix(0, -24.12, -24.12, 0, 32650.24, -32622.47)" xlink:href="#linear-gradient"/><clipPath id="clip-path-10"><rect x="220.82" y="124.5" width="33.5" height="22.35" fill="none"/></clipPath><clipPath id="clip-path-11"><path d="M225.21,124.5l-1.23.07a22.23,22.23,0,0,1-3.16,0h0l1.73,7.42A19.26,19.26,0,0,0,246.9,146l7.42-2.26a18.27,18.27,0,0,1-1.13-1.77,6.75,6.75,0,0,1-1.3-2l-6.24,1.89A15,15,0,0,1,226.73,131l-1.51-6.48Z" fill="none"/></clipPath><linearGradient id="linear-gradient-5" x1="-1358.11" y1="1355.8" x2="-1357.11" y2="1355.8" gradientTransform="matrix(18.3, 0, 0, -18.3, 25077.5, 24946.07)" xlink:href="#linear-gradient"/><clipPath id="clip-path-12"><rect x="285.96" y="125.76" width="33.59" height="21.1" fill="none"/></clipPath><clipPath id="clip-path-13"><path d="M315,126.22,313.93,131A15,15,0,0,1,295,141.9l-6.54-2a35.54,35.54,0,0,0-2.5,3.72l7.8,2.37a19.7,19.7,0,0,0,5.45.84h.36A19.28,19.28,0,0,0,318.11,132l1.44-6.19h0c-1.51.19-3,.33-4.51.46" fill="none"/></clipPath><linearGradient id="linear-gradient-6" x1="-1365.82" y1="1356.36" x2="-1364.82" y2="1356.36" gradientTransform="matrix(21.95, 0, 0, -21.95, 30278.17, 29915.14)" xlink:href="#linear-gradient"/><clipPath id="clip-path-14"><rect x="319.41" y="95.27" width="20.46" height="31.11" fill="none"/></clipPath><clipPath id="clip-path-15"><path d="M333.88,98.54l1.05,3.45A15,15,0,0,1,324,120.91l-3.52.82-1.08,4.65h0l5.57-1.29a19.27,19.27,0,0,0,14-24.35l-1.66-5.47Z" fill="none"/></clipPath><linearGradient id="linear-gradient-7" x1="-1362.08" y1="1350.88" x2="-1361.08" y2="1350.88" gradientTransform="matrix(27.17, 0, 0, -27.17, 37325.6, 36813.03)" xlink:href="#linear-gradient"/><clipPath id="clip-path-16"><rect x="200.79" y="95.27" width="20.46" height="31.11" fill="none"/></clipPath><clipPath id="clip-path-17"><path d="M201.63,100.74a19.26,19.26,0,0,0,14.06,24.35l5.57,1.29-1.09-4.65-3.51-.82A15,15,0,0,1,205.74,102l1-3.45-3.49-3.27Z" fill="none"/></clipPath><linearGradient id="linear-gradient-8" x1="-1358.64" y1="1346.19" x2="-1357.64" y2="1346.19" gradientTransform="matrix(27.47, 0, 0, -27.47, 37523.99, 37094.86)" xlink:href="#linear-gradient"/><clipPath id="clip-path-18"><rect x="252.37" y="142.96" width="35.92" height="11.66" fill="none"/></clipPath><clipPath id="clip-path-19"><path d="M252.37,144.35l3.91,4.17a19.26,19.26,0,0,0,28.11,0l3.9-4.17L283.72,143l-2.46,2.63a15,15,0,0,1-21.85,0L256.94,143Z" fill="none"/></clipPath><linearGradient id="linear-gradient-9" x1="-1370.97" y1="1351.69" x2="-1369.97" y2="1351.69" gradientTransform="matrix(32.05, 0, 0, -32.05, 44196.84, 43470.74)" xlink:href="#linear-gradient"/><clipPath id="clip-path-20"><rect x="252.37" width="35.92" height="11.66" fill="none"/></clipPath><clipPath id="clip-path-21"><path d="M256.28,6.09l-3.91,4.18,4.57,1.39L259.41,9a15,15,0,0,1,21.85,0l2.46,2.63,4.57-1.39-3.9-4.18a19.26,19.26,0,0,0-28.11,0" fill="none"/></clipPath><linearGradient id="linear-gradient-10" x1="-1346.08" y1="1351.52" x2="-1345.08" y2="1351.52" gradientTransform="matrix(13.48, 0, 0, -13.48, 18415.48, 18228.87)" xlink:href="#linear-gradient"/><clipPath id="clip-path-22"><rect x="200.79" y="28.23" width="20.46" height="31.11" fill="none"/></clipPath><clipPath id="clip-path-23"><path d="M215.69,29.53a19.25,19.25,0,0,0-14.06,24.34l1.66,5.47,3.49-3.26-1-3.45a15,15,0,0,1,10.92-18.92l3.51-.82,1.09-4.66Z" fill="none"/></clipPath><linearGradient id="linear-gradient-11" x1="-1365.1" y1="1351.54" x2="-1364.1" y2="1351.54" gradientTransform="matrix(29.22, 0, 0, -29.22, 40091.54, 39536.49)" xlink:href="#linear-gradient"/><clipPath id="clip-path-24"><rect x="319.41" y="28.23" width="20.46" height="31.11" fill="none"/></clipPath><clipPath id="clip-path-25"><path d="M319.41,28.23h0l1.08,4.66,3.52.82a15,15,0,0,1,10.92,18.92l-1.05,3.45,3.49,3.26L339,53.87a19.26,19.26,0,0,0-14-24.34Z" fill="none"/></clipPath><linearGradient id="linear-gradient-12" x1="-1361.4" y1="1340.94" x2="-1360.4" y2="1340.94" gradientTransform="matrix(0, -39.64, -39.64, 0, 53490.98, -53916.19)" xlink:href="#linear-gradient"/><clipPath id="clip-path-26"><rect x="253.5" y="60.16" width="47.98" height="62.44" fill="none"/></clipPath><clipPath id="clip-path-27"><path d="M257,90.07a11.88,11.88,0,0,0-3.48,8.4v20.42a3.71,3.71,0,0,0,6.33,2.62l39.85-39.85a6.11,6.11,0,0,0,1.8-4.28v-.15a6.09,6.09,0,0,0-1.8-4.27L286.89,60.17Z" fill="none"/></clipPath><linearGradient id="linear-gradient-13" x1="-1362.98" y1="1362.29" x2="-1361.98" y2="1362.29" gradientTransform="matrix(15.52, 0, 0, -15.52, 21427.91, 21235.59)" gradientUnits="userSpaceOnUse"><stop offset="0" stop-color="#fff"/><stop offset="0.66" stop-color="#1f754a"/><stop offset="1" stop-color="#1f754a"/></linearGradient><clipPath id="clip-path-28"><path d="M253.5,35.73V56.14a11.88,11.88,0,0,0,3.48,8.4l29.91,29.91,12.79-12.79a6.14,6.14,0,0,0,0-8.7L259.83,33.11a3.6,3.6,0,0,0-2.59-1.1,3.71,3.71,0,0,0-3.74,3.72" fill="none"/></clipPath><linearGradient id="linear-gradient-14" x1="-1373.53" y1="1341.01" x2="-1372.53" y2="1341.01" gradientTransform="matrix(0, 117.75, 117.75, 0, -157624.66, 161682.52)" gradientUnits="userSpaceOnUse"><stop offset="0" stop-color="#fff"/><stop offset="1" stop-color="#06675e"/></linearGradient></defs><g style="isolation:isolate"><g id="Layer_1" data-name="Layer 1"><g clip-path="url(#clip-path)"><path d="M299.4,146.85a19.5,19.5,0,0,1-5.63-.84l-13.83-4.2a32.92,32.92,0,0,0-19.21,0L246.9,146A19.26,19.26,0,0,1,222.55,132l-3.28-14.07a33,33,0,0,0-9.6-16.64l-10.55-9.88a19.26,19.26,0,0,1,0-28.11l10.55-9.87a33,33,0,0,0,9.6-16.64l3.28-14.08a19.27,19.27,0,0,1,24.35-14l13.83,4.2a33.08,33.08,0,0,0,19.21,0l13.83-4.2a19.25,19.25,0,0,1,24.34,14.05l3.28,14.08A33,33,0,0,0,331,53.38l10.54,9.87a19.24,19.24,0,0,1,0,28.11L331,101.24a32.92,32.92,0,0,0-9.61,16.64L318.11,132a19.27,19.27,0,0,1-18.71,14.9M241.27,12.06a15,15,0,0,0-14.54,11.58l-3.28,14.07a37.25,37.25,0,0,1-10.85,18.8l-10.55,9.88a14.95,14.95,0,0,0,0,21.84l10.55,9.88a37.26,37.26,0,0,1,10.85,18.79L226.73,131a15,15,0,0,0,18.92,10.92l13.83-4.19a37.14,37.14,0,0,1,21.7,0L295,141.9A15,15,0,0,0,313.93,131l3.28-14.08a37.33,37.33,0,0,1,10.85-18.79l10.55-9.88a14.95,14.95,0,0,0,0-21.84l-10.55-9.88a37.32,37.32,0,0,1-10.85-18.8l-3.28-14.07A15,15,0,0,0,295,12.71l-13.83,4.2a37.31,37.31,0,0,1-21.7,0l-13.83-4.2a15,15,0,0,0-4.38-.65" fill="#46b978"/><g opacity="0.66" style="mix-blend-mode:multiply"><g clip-path="url(#clip-path-2)"><g clip-path="url(#clip-path-3)"><rect x="218.51" y="4.19" width="38.58" height="30.16" transform="translate(1.8 54.25) rotate(-13.06)" fill="url(#linear-gradient)"/></g></g></g><g opacity="0.66" style="mix-blend-mode:multiply"><g clip-path="url(#clip-path-4)"><g clip-path="url(#clip-path-5)"><rect x="289.22" y="0.36" width="28.32" height="36.61" transform="translate(219.96 310.95) rotate(-77.59)" fill="url(#linear-gradient-2)"/></g></g></g><g opacity="0.66" style="mix-blend-mode:multiply"><g clip-path="url(#clip-path-6)"><g clip-path="url(#clip-path-7)"><rect x="178.9" y="64.81" width="41.99" height="24.69" transform="translate(68 246.03) rotate(-73.11)" fill="url(#linear-gradient-3)"/></g></g></g><g opacity="0.66" style="mix-blend-mode:multiply"><g clip-path="url(#clip-path-8)"><g clip-path="url(#clip-path-9)"><rect x="327.37" y="56.61" width="27.27" height="38.65" transform="translate(-0.58 149.23) rotate(-24.66)" fill="url(#linear-gradient-4)"/></g></g></g><g opacity="0.66" style="mix-blend-mode:multiply"><g clip-path="url(#clip-path-10)"><g clip-path="url(#clip-path-11)"><rect x="219.08" y="115.74" width="36.99" height="40.59" transform="matrix(0.51, -0.86, 0.86, 0.51, -1.09, 270.15)" fill="url(#linear-gradient-5)"/></g></g></g><g opacity="0.66" style="mix-blend-mode:multiply"><g clip-path="url(#clip-path-12)"><g clip-path="url(#clip-path-13)"><rect x="282.99" y="117.8" width="39.53" height="37.01" transform="translate(-21.34 208.41) rotate(-36.78)" fill="url(#linear-gradient-6)"/></g></g></g><path d="M270.33,154.62h0a19.07,19.07,0,0,1-14.05-6.1L246.4,138a33,33,0,0,0-16.64-9.6l-14.07-3.28a19.26,19.26,0,0,1-14.06-24.35l4.2-13.83a32.92,32.92,0,0,0,0-19.21l-4.2-13.83a19.25,19.25,0,0,1,14.06-24.34l14.07-3.28a33,33,0,0,0,16.64-9.6l9.88-10.56a19.26,19.26,0,0,1,28.11,0l9.88,10.56a33,33,0,0,0,16.63,9.6L325,29.53a19.25,19.25,0,0,1,14,24.34l-4.2,13.83a33.08,33.08,0,0,0,0,19.21l4.2,13.83a19.27,19.27,0,0,1-14,24.35l-14.08,3.28a33,33,0,0,0-16.63,9.6l-9.88,10.55a19.09,19.09,0,0,1-14.06,6.1m0-150.33A14.8,14.8,0,0,0,259.41,9l-9.88,10.55a37.33,37.33,0,0,1-18.79,10.85l-14.08,3.28a15,15,0,0,0-10.92,18.92l4.19,13.83a37.14,37.14,0,0,1,0,21.7L205.74,102a15,15,0,0,0,10.92,18.92l14.08,3.28A37.19,37.19,0,0,1,249.53,135l9.88,10.55a15,15,0,0,0,21.85,0L291.14,135a37.1,37.1,0,0,1,18.79-10.85L324,120.91A15,15,0,0,0,334.93,102l-4.2-13.83a37.31,37.31,0,0,1,0-21.7l4.2-13.83A15,15,0,0,0,324,33.71l-14.08-3.28a37.25,37.25,0,0,1-18.79-10.85L281.26,9a14.81,14.81,0,0,0-10.93-4.74" fill="#46b978"/><path d="M204.68,90.7,208.17,94l1.76-5.8a37.14,37.14,0,0,0,0-21.7l-1.76-5.81-3.49,3.27,1.15,3.78a32.92,32.92,0,0,1,0,19.21Z" fill="#46b978"/><path d="M230.74,30.43a37.33,37.33,0,0,0,18.79-10.85l4.15-4.43-4.58-1.39-2.7,2.89a33,33,0,0,1-16.64,9.6l-3.85.9-1.08,4.65Z" fill="#46b978"/><path d="M291.14,19.58a37.25,37.25,0,0,0,18.79,10.85l5.91,1.37-1.09-4.65-3.85-.9a33,33,0,0,1-16.63-9.6l-2.71-2.89L287,15.15Z" fill="#46b978"/><path d="M309.93,124.19A37.18,37.18,0,0,0,291.14,135L287,139.47l4.57,1.39,2.71-2.89a33,33,0,0,1,16.63-9.6l3.85-.9,1.09-4.66Z" fill="#46b978"/><path d="M334.83,86.91h0a33.08,33.08,0,0,1,0-19.21L336,63.92l-3.49-3.27-1.76,5.81a37.31,37.31,0,0,0,0,21.7L332.49,94,336,90.7Z" fill="#46b978"/><g opacity="0.66" style="mix-blend-mode:multiply"><g clip-path="url(#clip-path-14)"><g clip-path="url(#clip-path-15)"><rect x="311.22" y="93.81" width="37.56" height="34.04" transform="matrix(0.51, -0.86, 0.86, 0.51, 67.16, 339.08)" fill="url(#linear-gradient-7)"/></g></g></g><path d="M249.53,135a37.26,37.26,0,0,0-18.79-10.85l-5.91-1.38,1.08,4.66,3.85.9A33,33,0,0,1,246.4,138l2.7,2.89,4.58-1.39Z" fill="#46b978"/><g opacity="0.66" style="mix-blend-mode:multiply"><g clip-path="url(#clip-path-16)"><g clip-path="url(#clip-path-17)"><rect x="194.19" y="98.83" width="32.95" height="23.99" transform="translate(80.7 310.25) rotate(-84.66)" fill="url(#linear-gradient-8)"/></g></g></g><g opacity="0.66" style="mix-blend-mode:multiply"><g clip-path="url(#clip-path-18)"><g clip-path="url(#clip-path-19)"><rect x="251.45" y="137.73" width="37.77" height="22.12" transform="translate(-32.62 90.18) rotate(-17.88)" fill="url(#linear-gradient-9)"/></g></g></g><g opacity="0.66" style="mix-blend-mode:multiply"><g clip-path="url(#clip-path-20)"><g clip-path="url(#clip-path-21)"><rect x="263.26" y="-12.5" width="14.15" height="36.66" transform="translate(245.52 275.08) rotate(-85.97)" fill="url(#linear-gradient-10)"/></g></g></g><g opacity="0.66" style="mix-blend-mode:multiply"><g clip-path="url(#clip-path-22)"><g clip-path="url(#clip-path-23)"><rect x="192.11" y="25.37" width="37.11" height="36.83" transform="translate(33.13 165.36) rotate(-46.15)" fill="url(#linear-gradient-11)"/></g></g></g><g opacity="0.66" style="mix-blend-mode:multiply"><g clip-path="url(#clip-path-24)"><g clip-path="url(#clip-path-25)"><rect x="315.2" y="25.75" width="29.61" height="36.07" transform="translate(2.23 101.98) rotate(-17.63)" fill="url(#linear-gradient-12)"/></g></g></g><path d="M259.83,121.51l39.85-39.85a6.14,6.14,0,0,0,0-8.7L286.89,60.17,257,90.07a11.88,11.88,0,0,0-3.48,8.4v20.42a3.71,3.71,0,0,0,6.33,2.62" fill="#46b978"/><g opacity="0.66" style="mix-blend-mode:multiply"><g clip-path="url(#clip-path-26)"><g clip-path="url(#clip-path-27)"><rect x="238.8" y="52.17" width="77.39" height="79.68" transform="translate(4.11 195.58) rotate(-39.09)" fill="url(#linear-gradient-13)"/></g></g></g><path d="M253.5,35.73V56.15A11.85,11.85,0,0,0,257,64.54l29.91,29.91,12.79-12.79a6.14,6.14,0,0,0,0-8.7L259.83,33.11a3.71,3.71,0,0,0-6.33,2.62" fill="#06675e"/></g><g clip-path="url(#clip-path-28)"><rect x="241.21" y="24.08" width="73.16" height="78.31" transform="translate(5.23 146.16) rotate(-29.74)" fill="url(#linear-gradient-14)"/></g><g clip-path="url(#clip-path)"><path d="M22.07,75.67q0-9.72-4.28-15.28-3.85-5-12-7.53a.91.91,0,0,0-1.14.61l-.95,3.15a.91.91,0,0,0,.61,1.13q6,1.91,8.88,5.67,3,4,3.2,10.67H.91A.91.91,0,0,0,0,75v2.79a.91.91,0,0,0,.91.91H21.16a.91.91,0,0,0,.91-.91Z" fill="#009652"/><path d="M61.62,78.7H63.3v0c4-.2,6.44-1.71,7.35-4.57q3.07,4.6,12,4.61h63.42a.91.91,0,0,0,.91-.91V75a.91.91,0,0,0-.91-.91h-3.32q-6.6,0-10-2.54a8.12,8.12,0,0,1-1.08-11.84,7.08,7.08,0,0,1,5.28-2,14.31,14.31,0,0,1,5,.84.9.9,0,0,0,1.18-.66l.64-2.81a.9.9,0,0,0-.6-1.07,20,20,0,0,0-6-.85q-6.42,0-10.06,3.65a11.72,11.72,0,0,0-3.3,8.6q0,6.24,4.95,8.7h-16V54.67a.91.91,0,0,0-.91-.91h-4a.91.91,0,0,0-.91.91V74.09H93v-9q0-12-11.63-12-6.34,0-10,3.91a12.59,12.59,0,0,0-3.38,9q0,4.53-1.73,6.39a6,6,0,0,1-4.61,1.61h-26V42.21a.91.91,0,0,0-.91-.91h-4a.91.91,0,0,0-.91.91V77.79a.91.91,0,0,0,.91.91H61.62ZM75.68,60A6.64,6.64,0,0,1,81,57.75q6.38,0,6.38,8.28v8.06h-4.7q-8.86,0-8.87-8.29A8.48,8.48,0,0,1,75.68,60" fill="#009652"/><path d="M113.14,49.25a3,3,0,0,0,2.22-.93,3.24,3.24,0,0,0,0-4.48,3,3,0,0,0-2.22-.93,2.93,2.93,0,0,0-2.19.93,3.09,3.09,0,0,0-.9,2.23,3.12,3.12,0,0,0,.9,2.28,3,3,0,0,0,2.19.9" fill="#009652"/><path d="M104.92,49.25a2.94,2.94,0,0,0,2.22-.93,3.24,3.24,0,0,0,0-4.48,2.94,2.94,0,0,0-2.22-.93,2.91,2.91,0,0,0-2.17.93,3.09,3.09,0,0,0-.9,2.23,3.19,3.19,0,0,0,.9,2.28,2.92,2.92,0,0,0,2.17.9" fill="#009652"/><path d="M158.85,41.3h-4a.91.91,0,0,0-.91.91V77.79a.91.91,0,0,0,.91.91h4a.91.91,0,0,0,.91-.91V42.21a.91.91,0,0,0-.91-.91" fill="#009652"/><path d="M63.73,113H74a.54.54,0,0,0,.55-.55v-1.87A.55.55,0,0,0,74,110H66.66v-6.75h7a.55.55,0,0,0,.55-.55V101a.55.55,0,0,0-.55-.55h-7V94.28H74a.54.54,0,0,0,.55-.55V91.92a.55.55,0,0,0-.55-.55H63.73a.55.55,0,0,0-.55.55v20.53a.55.55,0,0,0,.55.55" fill="#46b978"/><path d="M86.32,110.37a1.89,1.89,0,0,1-1.64-.61,4.53,4.53,0,0,1-.43-2.39V99.73h3.59a.55.55,0,0,0,.55-.55V97.62a.55.55,0,0,0-.55-.55H84.25V92a.58.58,0,0,0-.58-.58H81.41a.58.58,0,0,0-.58.58v5.11H78.34a.55.55,0,0,0-.55.55v1.56a.55.55,0,0,0,.55.55h2.49v8.69a5.88,5.88,0,0,0,.92,3.77,4.5,4.5,0,0,0,3.48,1.1,14.15,14.15,0,0,0,2.83-.28.54.54,0,0,0,.44-.59l-.17-1.67a.55.55,0,0,0-.63-.49,8.19,8.19,0,0,1-1.38.11" fill="#46b978"/><path d="M93.78,113h2.31a.55.55,0,0,0,.55-.55V97.62a.55.55,0,0,0-.55-.55H93.78a.55.55,0,0,0-.55.55v14.83a.54.54,0,0,0,.55.55" fill="#46b978"/><path d="M94.65,90a2.12,2.12,0,0,0-1.56.64,2.12,2.12,0,0,0,0,3,2.14,2.14,0,0,0,1.56.62,2.19,2.19,0,0,0,2.18-2.14,2,2,0,0,0-.66-1.52A2,2,0,0,0,94.65,90" fill="#46b978"/><path d="M119.65,96.76a5.37,5.37,0,0,0-5.3,3.43c-.4-2.29-1.87-3.43-4.39-3.43a5.41,5.41,0,0,0-5.36,3.49l-.07,0a17.65,17.65,0,0,0,.22-2.59.56.56,0,0,0-.55-.56h-2.15a.55.55,0,0,0-.55.55v14.83a.54.54,0,0,0,.55.55h2.31a.55.55,0,0,0,.55-.55v-7a6.9,6.9,0,0,1,1.21-4.16A3.43,3.43,0,0,1,109,99.61q2.31,0,2.31,3.24v9.6a.54.54,0,0,0,.55.55h2.25a.55.55,0,0,0,.55-.55v-7a6.69,6.69,0,0,1,1.28-4.22,3.42,3.42,0,0,1,2.8-1.58c1.53,0,2.29,1.08,2.29,3.24v9.6a.55.55,0,0,0,.55.55h2.28a.54.54,0,0,0,.55-.55V102q0-5.26-4.72-5.26" fill="#46b978"/><path d="M141.62,102.33a5.69,5.69,0,0,0-1.29-4.09q-1.44-1.48-4.77-1.48a15.64,15.64,0,0,0-5.42.94.54.54,0,0,0-.34.64l.35,1.55a.55.55,0,0,0,.75.38,11.23,11.23,0,0,1,4.18-.85,3.18,3.18,0,0,1,2.45.8,3.74,3.74,0,0,1,.68,2.5v.67a13.8,13.8,0,0,0-6.85,1.41,4.5,4.5,0,0,0-2.5,4.1,4.3,4.3,0,0,0,1.2,3.18,4.36,4.36,0,0,0,3.24,1.24q3.93,0,5.27-3.29l0,0a17.91,17.91,0,0,0-.16,2.38.54.54,0,0,0,.55.56h2.16a.53.53,0,0,0,.54-.57c0-1.18-.07-2.45-.07-3.79Zm-3.41,3.79a4.87,4.87,0,0,1-1.07,3.11,3.45,3.45,0,0,1-2.79,1.39,2.12,2.12,0,0,1-1.59-.61,2.07,2.07,0,0,1-.58-1.53q0-2.79,6-2.79Z" fill="#46b978"/><path d="M156.38,90.15v6.79q-1.73-.12-2.4-.12a7.8,7.8,0,0,0-6.06,2.44,9.3,9.3,0,0,0-2.23,6.56,8.93,8.93,0,0,0,1.47,5.48,5.13,5.13,0,0,0,4.37,2,5.23,5.23,0,0,0,5.18-3.29h.06a16.32,16.32,0,0,0-.23,2.42.55.55,0,0,0,.55.55h2.12a.54.54,0,0,0,.55-.55V90.15a.55.55,0,0,0-.55-.55h-2.28a.55.55,0,0,0-.55.55m0,14.62a7.33,7.33,0,0,1-1,3.88,3.34,3.34,0,0,1-2.92,1.85c-2.1,0-3.16-1.67-3.16-5q0-6,4.57-6a12.31,12.31,0,0,1,2.52.28Z" fill="#46b978"/></g></g></g></svg>