<svg xmlns="http://www.w3.org/2000/svg" xmlns:xlink="http://www.w3.org/1999/xlink" width="204.878" height="60" viewBox="0 0 204.878 60"><defs><linearGradient id="a" x1="0.398" y1="0.387" x2="0.747" y2="0.929" gradientUnits="objectBoundingBox"><stop offset="0" stop-color="#d3f0f9"/><stop offset="0.448" stop-color="#a2d0e0"/><stop offset="1" stop-color="#72a3c4"/></linearGradient><linearGradient id="b" x1="0.5" y1="1.175" x2="0.5" y2="-0.175" gradientUnits="objectBoundingBox"><stop offset="0" stop-color="#00af8d"/><stop offset="0.634" stop-color="#288bc5"/><stop offset="1" stop-color="#11448c"/></linearGradient></defs><g transform="translate(0)"><circle cx="30" cy="30" r="30" transform="translate(144.877 0)" fill="#fff"/><path d="M1233.146,815.367a22.964,22.964,0,0,1-14.615-5.208,22.333,22.333,0,0,1-8.236-17.3c0-3.922,2.384-9.641,4.174-12.852a26.208,26.208,0,0,0-9.166,20.488,25.617,25.617,0,0,0,1.037,7.211,19.721,19.721,0,0,0,5.7,9.524,12.869,12.869,0,0,0,4.092,2.385,14.416,14.416,0,0,0,4.159.915l.189,0q.341.01.683.012a28.51,28.51,0,0,0,17.142-5.763A23.176,23.176,0,0,1,1233.146,815.367Z" transform="translate(-1045.951 -761.868)" fill="#1773b3"/><path d="M1313.9,747a28.35,28.35,0,0,0-4.5-1.6c2.059,3.64,2.231,6.2,2.231,10.685a23.736,23.736,0,0,1-23.048,24.256c4.005,3.336,9.784,5.1,15.4,5.1a12.088,12.088,0,0,0,4.78-.924c6.833-5.242,10.3-12.113,10.3-21.39C1319.071,756.409,1317.768,751.88,1313.9,747Z" transform="translate(-1115.352 -733.033)" fill="url(#a)"/><path d="M1125.8,706.766c0,11.8,9.225,24.448,19.652,27.184-5.451-4.672-8.31-12.021-8.31-18.97a28.32,28.32,0,0,1,22.68-27.707,28.5,28.5,0,0,1,17.428,1.938c.075.034.151.066.226.1a28.837,28.837,0,0,0-51.676,17.454Z" transform="translate(-979.701 -676.938)" fill="url(#b)"/><path d="M20286.891,8211.114v-.034a1.775,1.775,0,0,1,1.719-1.736h1.314v-7.533a1.774,1.774,0,0,1,1.736-1.718h.035v6.54h3.373v-4.822a1.783,1.783,0,0,1,1.74-1.718h.037v6.54h2.6v-4.786a1.787,1.787,0,0,1,1.758-1.754h.014v6.54h2.725v-4.822a1.767,1.767,0,0,1,1.73-1.718h.037v7.325a.99.99,0,0,1-.984.985H20291.7v1.725a.985.985,0,0,1-.984.986Zm-73.781,0a1.769,1.769,0,0,1-1.756-1.744v-.973h-2.387a4.151,4.151,0,0,1-1.615-7.977,4.04,4.04,0,0,1,1.615-.328,4.1,4.1,0,0,1,2.316.711,4.131,4.131,0,0,1,1.838,3.444v2.385h3.619v-8.27a1.762,1.762,0,0,1,1.7-1.764h.072v10.918a.886.886,0,0,1-.268.627.845.845,0,0,1-.566.253h-4.557v2.717Zm-5.48-8.846a2.386,2.386,0,0,0-.863,1.05,2.337,2.337,0,0,0-.189.93,2.386,2.386,0,0,0,2.391,2.385h2.387v-2.385a2.382,2.382,0,0,0-.41-1.333,2.383,2.383,0,0,0-3.314-.646Zm32.215,8.841h-.293a.171.171,0,0,1-.17-.17v-1.453a.169.169,0,0,1,.17-.164H20241a.169.169,0,0,1,.172.164v.585a1.036,1.036,0,0,1-1.023,1.038Zm-1.459,0a1.04,1.04,0,0,1-1.027-1.038v-.585a.166.166,0,0,1,.17-.164h1.455a.168.168,0,0,1,.166.164v1.453a.17.17,0,0,1-.166.17Zm-58.932,0a.17.17,0,0,1-.172-.17v-1.453a.168.168,0,0,1,.172-.164h1.451a.169.169,0,0,1,.17.164v.585a1.038,1.038,0,0,1-1.027,1.038Zm-1.174,0a1.038,1.038,0,0,1-1.023-1.038v-.585a.167.167,0,0,1,.168-.164h1.455a.168.168,0,0,1,.17.164v1.453a.169.169,0,0,1-.17.17Zm93.273-2.706a4.087,4.087,0,0,1-3.814-2.542,4.147,4.147,0,1,1,7.641-3.228,4.2,4.2,0,0,1,.332,1.614v2.385h9.41v-2.385a2.32,2.32,0,0,0-.4-1.333,2.2,2.2,0,0,0-1.055-.86,2.33,2.33,0,0,0-.928-.191h-5.311l-1.252-1.252,6.605-6.608.031.021a1.755,1.755,0,0,1-.014,2.469l-3.6,3.6h3.537a4.132,4.132,0,0,1,4.156,4.155v3.277a.9.9,0,0,1-.877.878Zm-1.33-6.14a2.424,2.424,0,0,0-.857,1.055,2.3,2.3,0,0,0-.193.93,2.455,2.455,0,0,0,.4,1.329,2.388,2.388,0,0,0,1.055.857,2.217,2.217,0,0,0,.924.2h2.391v-2.385a2.5,2.5,0,0,0-.408-1.333,2.4,2.4,0,0,0-3.312-.651Zm-52.6,6.14h0Zm-44.467,0a4.155,4.155,0,1,1,2.328-7.6,4.218,4.218,0,0,1,1.508,1.827,4.128,4.128,0,0,1,.322,1.617v2.385h3.885v-4.786a1.766,1.766,0,0,1,1.736-1.748h.035v6.534h4.074v-4.812a1.772,1.772,0,0,1,1.736-1.728h.035v6.54h3.773a3.982,3.982,0,0,1-.426-.768,4.175,4.175,0,0,1-.328-1.617v-7.655a1.774,1.774,0,0,1,1.77,1.771v1.7h.006v.034h5.307a4.1,4.1,0,0,1,2.32.711,4.232,4.232,0,0,1,1.508,1.827,4.166,4.166,0,0,1,.326,1.617v3.27a.9.9,0,0,1-.26.622.878.878,0,0,1-.627.264Zm20.455-4.155a2.376,2.376,0,0,0,2.381,2.385h5.314v-2.385a2.411,2.411,0,0,0-1.457-2.2,2.478,2.478,0,0,0-.932-.187h-5.307Zm-21.785-1.979a2.385,2.385,0,0,0-.645,3.313,2.393,2.393,0,0,0,1.051.864,2.359,2.359,0,0,0,.924.188h2.389v-2.385a2.416,2.416,0,0,0-1.453-2.2,2.459,2.459,0,0,0-.936-.187A2.417,2.417,0,0,0,20171.822,8202.269Zm57.9,6.129a4.158,4.158,0,0,1-2.322-.706,4.232,4.232,0,0,1-1.5-1.826,4.155,4.155,0,0,1,2.209-5.444,4.077,4.077,0,0,1,1.617-.328,4.145,4.145,0,0,1,4.152,4.151v3.27a.911.911,0,0,1-.252.626.888.888,0,0,1-.631.258Zm-1.328-6.129a2.377,2.377,0,0,0-.867,1.047,2.306,2.306,0,0,0-.189.929,2.381,2.381,0,0,0,.4,1.337,2.386,2.386,0,0,0,1.98,1.052h2.389v-2.389a2.42,2.42,0,0,0-.4-1.329,2.464,2.464,0,0,0-1.057-.869,2.437,2.437,0,0,0-.93-.187A2.361,2.361,0,0,0,20228.393,8202.269Zm29.8,6.107h-22.564V8196.6h.01a1.762,1.762,0,0,1,1.76,1.679v8.322h3.828v-4.822a1.774,1.774,0,0,1,1.74-1.713h.023v6.535h3.6v-2.381a4.174,4.174,0,0,1,2.535-3.831,4.21,4.21,0,0,1,1.617-.323,4.156,4.156,0,0,1,4.15,4.154,4.2,4.2,0,0,1-.705,2.324c-.018.021-.033.04-.049.057h4.455v-8.234a1.767,1.767,0,0,1,1.74-1.767h.031v10.89a.872.872,0,0,1-.26.624.888.888,0,0,1-.627.266Zm-8.783-6.14a2.427,2.427,0,0,0-.871,1.052,2.454,2.454,0,0,0-.186.929v2.381h2.389a2.4,2.4,0,0,0,2.2-1.452,2.372,2.372,0,0,0,.188-.929,2.31,2.31,0,0,0-.41-1.334,2.386,2.386,0,0,0-3.307-.646Zm14.482,6.136h-.008a1.769,1.769,0,0,1-1.76-1.739v-10.04a1.775,1.775,0,0,1,1.771,1.771v10.009Zm-41.859,0h-.006a1.766,1.766,0,0,1-1.76-1.735v-10.044a1.768,1.768,0,0,1,1.768,1.771v10.009Zm79.072-8.7a.166.166,0,0,1-.168-.168v-1.453a.17.17,0,0,1,.168-.171h.594a1.041,1.041,0,0,1,1.021,1.044v.58a.165.165,0,0,1-.168.168Zm-2.025,0a.168.168,0,0,1-.172-.168v-.58a1.041,1.041,0,0,1,1.021-1.044h.6a.168.168,0,0,1,.162.171v1.453a.164.164,0,0,1-.162.168Zm-27.213,0a.168.168,0,0,1-.17-.168v-1.453a.172.172,0,0,1,.17-.171h.594a1.039,1.039,0,0,1,1.023,1.044v.58a.164.164,0,0,1-.162.168Zm-2.025,0a.165.165,0,0,1-.17-.168v-.58a1.041,1.041,0,0,1,1.025-1.044h.6a.167.167,0,0,1,.164.171v1.453a.163.163,0,0,1-.164.168Zm-85.182,0a.165.165,0,0,1-.168-.168v-.58a1.039,1.039,0,0,1,1.025-1.044h.6a.169.169,0,0,1,.166.171v1.453a.164.164,0,0,1-.166.168Zm-11.215,0a.165.165,0,0,1-.168-.168v-1.453a.169.169,0,0,1,.168-.171h.6a1.044,1.044,0,0,1,1.023,1.044v.58a.165.165,0,0,1-.168.168Zm-2.027,0a.169.169,0,0,1-.172-.168v-.58a1.041,1.041,0,0,1,1.021-1.044h.6a.173.173,0,0,1,.17.171v1.453a.169.169,0,0,1-.17.168Zm128.557-1.994a.167.167,0,0,1-.172-.167v-.584a1.041,1.041,0,0,1,1.025-1.042h.6a.176.176,0,0,1,.172.173v1.453a.172.172,0,0,1-.172.167Z" transform="translate(-20169 -8181.392)" fill="#fff"/><path d="M-290.57-6.258a.65.65,0,0,0-.478-.2.647.647,0,0,0-.646.448L-293.358-1.6-295.2-6.007a.633.633,0,0,0-.6-.45.653.653,0,0,0-.492.2.672.672,0,0,0-.185.476.515.515,0,0,0,.043.232l1.862,4.4a.91.91,0,0,0,.842.538l-.695,1.839a1.14,1.14,0,0,0-.087.354.658.658,0,0,0,.2.479.644.644,0,0,0,.467.2.668.668,0,0,0,.37-.13.692.692,0,0,0,.264-.317l2.728-7.2a1.068,1.068,0,0,0,.111-.379.661.661,0,0,0-.2-.489m-9.274-.2a2.933,2.933,0,0,0-2.146.884,2.97,2.97,0,0,0-.882,2.18V-.936a.657.657,0,0,0,.2.473.651.651,0,0,0,.943,0,.651.651,0,0,0,.2-.473V-3.473a1.733,1.733,0,0,1,.494-1.282,1.614,1.614,0,0,1,1.187-.49,1.612,1.612,0,0,1,1.185.49,1.707,1.707,0,0,1,.494,1.282V-.936a.663.663,0,0,0,.195.471.633.633,0,0,0,.468.2.671.671,0,0,0,.475-.2.644.644,0,0,0,.21-.475V-3.393a2.982,2.982,0,0,0-.882-2.175,2.923,2.923,0,0,0-2.144-.888m-6.02,4.45a2.026,2.026,0,0,0,.49-1.364,1.936,1.936,0,0,0-.5-1.35,1.6,1.6,0,0,0-1.242-.547,1.684,1.684,0,0,0-1.3.554,1.91,1.91,0,0,0-.521,1.342,1.918,1.918,0,0,0,.522,1.361,1.676,1.676,0,0,0,1.295.56,1.559,1.559,0,0,0,1.248-.557M-304.3-6.26a.653.653,0,0,1,.2.478V-.936a.653.653,0,0,1-.2.48.665.665,0,0,1-.472.2.661.661,0,0,1-.47-.2.649.649,0,0,1-.191-.346,2.957,2.957,0,0,1-1.75.542,2.877,2.877,0,0,1-2.141-.907,3.066,3.066,0,0,1-.874-2.2,3.016,3.016,0,0,1,.881-2.191,2.9,2.9,0,0,1,2.134-.895,2.934,2.934,0,0,1,1.75.541.651.651,0,0,1,.19-.345.671.671,0,0,1,.948,0m-11.025,1.523a1.918,1.918,0,0,0-.487,1.333v.137a1.811,1.811,0,0,0,.491,1.291,1.627,1.627,0,0,0,1.245.515,1.691,1.691,0,0,0,1.3-.55,1.857,1.857,0,0,0,.52-1.336,1.917,1.917,0,0,0-.52-1.361,1.681,1.681,0,0,0-1.3-.56,1.6,1.6,0,0,0-1.249.531m3.482-.812a3.09,3.09,0,0,1,.863,2.2,3.044,3.044,0,0,1-.869,2.185,2.8,2.8,0,0,1-2.078.9,2.6,2.6,0,0,1-1.805-.667V1.58a.644.644,0,0,1-.2.48.659.659,0,0,1-.47.2.654.654,0,0,1-.477-.2.659.659,0,0,1-.2-.478V-5.782a.656.656,0,0,1,.2-.477.679.679,0,0,1,.955,0,.653.653,0,0,1,.2.471,2.609,2.609,0,0,1,1.805-.668,2.79,2.79,0,0,1,2.084.908m-9.259-.908A2.715,2.715,0,0,0-323.23-5.43a2.74,2.74,0,0,0-2.113-1.027,2.728,2.728,0,0,0-2.015.821,2.9,2.9,0,0,0-.807,2.117V-.936a.657.657,0,0,0,.2.473.652.652,0,0,0,.943,0,.653.653,0,0,0,.2-.473v-2.72a1.616,1.616,0,0,1,.422-1.17,1.388,1.388,0,0,1,1.042-.43,1.364,1.364,0,0,1,1.034.43,1.6,1.6,0,0,1,.417,1.17v2.72a.654.654,0,0,0,.2.473.645.645,0,0,0,.939,0,.661.661,0,0,0,.194-.471v-2.72a1.593,1.593,0,0,1,.421-1.17,1.386,1.386,0,0,1,1.04-.43,1.355,1.355,0,0,1,1.029.441,1.594,1.594,0,0,1,.422,1.158v2.72a.644.644,0,0,0,.21.475.67.67,0,0,0,.475.2.612.612,0,0,0,.463-.206.668.668,0,0,0,.189-.469V-3.519a2.928,2.928,0,0,0-.795-2.117,2.674,2.674,0,0,0-1.993-.821m-9.824,4.436a1.9,1.9,0,0,0,.537-1.35,1.857,1.857,0,0,0-.536-1.329,1.745,1.745,0,0,0-1.3-.556,1.745,1.745,0,0,0-1.309.556,1.847,1.847,0,0,0-.542,1.329,1.892,1.892,0,0,0,.538,1.355,1.719,1.719,0,0,0,1.313.566,1.722,1.722,0,0,0,1.3-.571m.906-3.536a2.97,2.97,0,0,1,.911,2.187,3.008,3.008,0,0,1-.91,2.2,3.021,3.021,0,0,1-2.209.913,3.006,3.006,0,0,1-2.209-.906,3.027,3.027,0,0,1-.9-2.2,2.986,2.986,0,0,1,.9-2.192,3.025,3.025,0,0,1,2.208-.894,3.041,3.041,0,0,1,2.208.9m-7.045,3.515a2.808,2.808,0,0,1-1.685.57,2.659,2.659,0,0,1-2.037-.9,3.057,3.057,0,0,1-.831-2.127,3.063,3.063,0,0,1,.831-2.121,2.652,2.652,0,0,1,2.037-.908,2.72,2.72,0,0,1,1.529.471.6.6,0,0,0,.734-.083.577.577,0,0,0,.181-.434.809.809,0,0,0-.478-.668,3.236,3.236,0,0,0-.98-.38,4.687,4.687,0,0,0-.986-.118,4.037,4.037,0,0,0-2.968,1.255A4.127,4.127,0,0,0-342.957-4.5a4.123,4.123,0,0,0,1.235,2.986A4.034,4.034,0,0,0-338.754-.26a3.943,3.943,0,0,0,2.378-.755.652.652,0,0,0,.317-.548.588.588,0,0,0-.189-.448.63.63,0,0,0-.821-.031m-10.9-4.414a2.541,2.541,0,0,0-1.9.782,2.641,2.641,0,0,0-.754,1.9V-.936a.658.658,0,0,0,.2.473.653.653,0,0,0,.472.2.649.649,0,0,0,.471-.2.651.651,0,0,0,.2-.473v-3a1.318,1.318,0,0,1,.35-.942,1.159,1.159,0,0,1,.9-.372,1.44,1.44,0,0,1,.807.32.634.634,0,0,0,.848-.055.617.617,0,0,0,.184-.436.638.638,0,0,0-.251-.507,2.3,2.3,0,0,0-1.531-.534m-7.564,1.614a1.971,1.971,0,0,0-.592.923h3.414a1.749,1.749,0,0,0-.532-.9,1.619,1.619,0,0,0-1.147-.467,1.64,1.64,0,0,0-1.144.448m3.232-.748a2.766,2.766,0,0,1,.846,1.98.836.836,0,0,1-.218.57.715.715,0,0,1-.547.253h-3.9a1.969,1.969,0,0,0,.617.922,2.142,2.142,0,0,0,2.537.009.63.63,0,0,1,.763.091.583.583,0,0,1,.166.419.589.589,0,0,1-.3.544,3.826,3.826,0,0,1-1.992.543,3.054,3.054,0,0,1-2.238-.906,3.011,3.011,0,0,1-.9-2.2,2.97,2.97,0,0,1,.911-2.187,3,3,0,0,1,2.174-.9,2.822,2.822,0,0,1,2.089.866m-5.962.472a.6.6,0,0,0,.43-.178.586.586,0,0,0,.188-.439.581.581,0,0,0-.182-.434.6.6,0,0,0-.436-.172h-.925V-7.2a.637.637,0,0,0-.2-.468.68.68,0,0,0-.951,0,.631.631,0,0,0-.2.468v.857h-.32a.571.571,0,0,0-.427.188.589.589,0,0,0-.178.418.6.6,0,0,0,.172.435.573.573,0,0,0,.433.183h.32v3.189A1.514,1.514,0,0,0-360.1-.835a1.5,1.5,0,0,0,1.111.46h.572a.6.6,0,0,0,.436-.173.575.575,0,0,0,.18-.433.6.6,0,0,0-.178-.437h0a.6.6,0,0,0-.438-.18h-.445a.33.33,0,0,1-.231-.1.294.294,0,0,1-.1-.232V-5.118Zm-5.572,3.112a2.025,2.025,0,0,0,.49-1.364,1.936,1.936,0,0,0-.5-1.35,1.6,1.6,0,0,0-1.242-.547,1.685,1.685,0,0,0-1.3.554,1.911,1.911,0,0,0-.52,1.342,1.918,1.918,0,0,0,.521,1.361,1.677,1.677,0,0,0,1.3.56,1.559,1.559,0,0,0,1.247-.557m1.561-4.253a.654.654,0,0,1,.2.478V-.936a.653.653,0,0,1-.2.48.664.664,0,0,1-.471.2.662.662,0,0,1-.47-.2.653.653,0,0,1-.191-.346,2.955,2.955,0,0,1-1.749.542,2.88,2.88,0,0,1-2.142-.907,3.067,3.067,0,0,1-.873-2.2,3.016,3.016,0,0,1,.881-2.191,2.9,2.9,0,0,1,2.134-.895,2.932,2.932,0,0,1,1.749.541.655.655,0,0,1,.19-.345.672.672,0,0,1,.949,0m-7.653-2.483a.59.59,0,0,0-.462.2.829.829,0,0,0-.2.487l-.362,5.84-1.808-2.555a.894.894,0,0,0-.734-.409.9.9,0,0,0-.734.4l-1.817,2.566-.362-5.842a.821.821,0,0,0-.191-.483.584.584,0,0,0-.466-.206.622.622,0,0,0-.469.206.7.7,0,0,0-.189.5l.457,6.974a.8.8,0,0,0,.2.486.611.611,0,0,0,.467.2h.4a.737.737,0,0,0,.622-.371l2.08-2.877L-371.4-.731a.765.765,0,0,0,.615.357h.4a.631.631,0,0,0,.48-.2.8.8,0,0,0,.205-.49l.457-6.973v-.009a.688.688,0,0,0-.193-.492.649.649,0,0,0-.488-.2M-383.07-9a.65.65,0,0,0-.2.472V-.936a.651.651,0,0,0,.2.473.649.649,0,0,0,.471.2.649.649,0,0,0,.473-.2.652.652,0,0,0,.2-.473V-8.525a.651.651,0,0,0-.2-.472.65.65,0,0,0-.944,0m-3.307,6.99a2.026,2.026,0,0,0,.491-1.364,1.936,1.936,0,0,0-.5-1.35,1.6,1.6,0,0,0-1.243-.547,1.684,1.684,0,0,0-1.3.554,1.911,1.911,0,0,0-.521,1.342,1.917,1.917,0,0,0,.522,1.361,1.675,1.675,0,0,0,1.294.56,1.558,1.558,0,0,0,1.248-.557m1.561-4.253a.654.654,0,0,1,.2.478V-.936a.652.652,0,0,1-.2.48.664.664,0,0,1-.471.2.661.661,0,0,1-.47-.2.648.648,0,0,1-.191-.346,2.956,2.956,0,0,1-1.75.542,2.878,2.878,0,0,1-2.141-.907,3.066,3.066,0,0,1-.874-2.2,3.016,3.016,0,0,1,.881-2.191,2.9,2.9,0,0,1,2.134-.895,2.934,2.934,0,0,1,1.75.541.652.652,0,0,1,.19-.345.672.672,0,0,1,.949,0m-9.878-.2a2.933,2.933,0,0,0-2.146.884,2.97,2.97,0,0,0-.882,2.18V-.936a.657.657,0,0,0,.2.473.651.651,0,0,0,.943,0,.651.651,0,0,0,.2-.473V-3.473a1.733,1.733,0,0,1,.494-1.282,1.613,1.613,0,0,1,1.186-.49,1.612,1.612,0,0,1,1.185.49,1.706,1.706,0,0,1,.494,1.282V-.936a.661.661,0,0,0,.195.471.633.633,0,0,0,.468.2.672.672,0,0,0,.475-.2.645.645,0,0,0,.21-.475V-3.393a2.981,2.981,0,0,0-.882-2.175,2.922,2.922,0,0,0-2.144-.888m-5.793,4.436a1.9,1.9,0,0,0,.537-1.35,1.855,1.855,0,0,0-.536-1.329,1.745,1.745,0,0,0-1.3-.556A1.744,1.744,0,0,0-403.1-4.7a1.847,1.847,0,0,0-.542,1.329,1.892,1.892,0,0,0,.538,1.355,1.72,1.72,0,0,0,1.313.566,1.723,1.723,0,0,0,1.3-.571m.906-3.536a2.971,2.971,0,0,1,.91,2.187,3.008,3.008,0,0,1-.909,2.2,3.02,3.02,0,0,1-2.209.913A3.007,3.007,0,0,1-404-1.167a3.027,3.027,0,0,1-.9-2.2,2.987,2.987,0,0,1,.9-2.192,3.025,3.025,0,0,1,2.208-.894,3.043,3.043,0,0,1,2.208.9m-7.706-2.937a.817.817,0,0,0-.247.6.818.818,0,0,0,.247.6.819.819,0,0,0,.6.248.817.817,0,0,0,.6-.248.817.817,0,0,0,.247-.6.817.817,0,0,0-.247-.6.846.846,0,0,0-1.2,0m.13,2.356a.661.661,0,0,0-.195.471V-.936a.662.662,0,0,0,.2.472.634.634,0,0,0,.466.2.648.648,0,0,0,.48-.2.66.66,0,0,0,.195-.471V-5.667a.661.661,0,0,0-.195-.471.653.653,0,0,0-.947,0m-1.6,1.02a.6.6,0,0,0,.429-.178.586.586,0,0,0,.188-.439.582.582,0,0,0-.182-.434.6.6,0,0,0-.436-.172h-.925V-7.2a.637.637,0,0,0-.2-.468.68.68,0,0,0-.951,0,.632.632,0,0,0-.2.468v.857h-.32a.572.572,0,0,0-.427.188.589.589,0,0,0-.178.418.6.6,0,0,0,.172.435.573.573,0,0,0,.433.183h.32v3.189a1.514,1.514,0,0,0,.453,1.094,1.5,1.5,0,0,0,1.111.46h.572a.6.6,0,0,0,.436-.173.576.576,0,0,0,.18-.433.6.6,0,0,0-.178-.437h0a.6.6,0,0,0-.438-.18h-.445a.33.33,0,0,1-.23-.1.293.293,0,0,1-.1-.232V-5.118Zm-5.573,3.112a2.023,2.023,0,0,0,.491-1.364,1.936,1.936,0,0,0-.495-1.35,1.6,1.6,0,0,0-1.242-.547,1.685,1.685,0,0,0-1.3.554,1.911,1.911,0,0,0-.52,1.342,1.919,1.919,0,0,0,.522,1.361,1.676,1.676,0,0,0,1.3.56,1.557,1.557,0,0,0,1.247-.557m1.561-4.253a.654.654,0,0,1,.2.478V-.936a.653.653,0,0,1-.2.48.663.663,0,0,1-.471.2.661.661,0,0,1-.47-.2.653.653,0,0,1-.191-.346,2.955,2.955,0,0,1-1.75.542,2.878,2.878,0,0,1-2.141-.907,3.066,3.066,0,0,1-.874-2.2,3.016,3.016,0,0,1,.881-2.191,2.9,2.9,0,0,1,2.134-.895,2.934,2.934,0,0,1,1.75.541.657.657,0,0,1,.189-.345.672.672,0,0,1,.949,0m-7.276-2.286a.649.649,0,0,1,.2.477v7.008a.662.662,0,0,1-.2.476.65.65,0,0,1-.483.209H-421a.721.721,0,0,1-.618-.34L-425.7-6.609V-.946a.7.7,0,0,1-.18.486.621.621,0,0,1-.47.2.645.645,0,0,1-.478-.2.675.675,0,0,1-.195-.482v-7a.673.673,0,0,1,.2-.476.651.651,0,0,1,.482-.209h.467a.709.709,0,0,1,.616.348l4.084,5.9V-8.069a.672.672,0,0,1,.183-.474.664.664,0,0,1,.946,0" transform="translate(427.087 43.382)" fill="#fff"/></g></svg>