<?xml version="1.0" encoding="utf-8"?>
<!-- Generator: Adobe Illustrator 25.0.0, SVG Export Plug-In . SVG Version: 6.00 Build 0)  -->
<svg version="1.1" id="Layer_1" xmlns="http://www.w3.org/2000/svg" xmlns:xlink="http://www.w3.org/1999/xlink" x="0px" y="0px"
	 viewBox="0 0 650.93 645.45" style="enable-background:new 0 0 650.93 645.45;" xml:space="preserve">
<style type="text/css">
	.st0{fill:#FFFFFF;}
</style>
<g>
	<g>
		<rect x="42" y="458.97" class="st0" width="130.66" height="53.6"/>
		<rect x="478.19" y="458.97" class="st0" width="130.66" height="53.6"/>
		<g>
			<polygon class="st0" points="357.44,459.06 357.44,512.47 337.1,512.47 337.06,494.44 313.07,494.44 312.93,512.47 
				292.83,512.47 292.83,459.06 312.93,459.06 312.96,477.02 337.36,477.02 337.33,459.06 			"/>
			<path class="st0" d="M216.21,459.06l24.89,0l14.41,24.04v-24.04h19.82v53.5l-27.04,0l-12.26-24.62v24.62l-19.82,0V459.06z"/>
			<polygon class="st0" points="434.49,477.02 434.46,459.09 375.37,459.09 375.37,512.44 434.46,512.44 434.46,494.44 
				395.1,494.44 395.07,477.02 			"/>
		</g>
	</g>
	<g>
		<g>
			<polygon class="st0" points="85.55,423.24 42,423.24 42,387.51 85.55,351.78 			"/>
			<polygon class="st0" points="172.66,423.24 129.11,423.24 129.11,280.45 172.66,244.59 			"/>
			<polygon class="st0" points="260.05,423.24 216.44,423.24 216.44,173.13 260.05,137.4 			"/>
			<polygon class="st0" points="303.66,65.93 303.66,423.24 347.3,423.24 347.27,65.93 325.97,30.2 			"/>
		</g>
		<g>
			<polygon class="st0" points="565.35,423.24 608.9,423.24 608.9,387.85 565.35,352.47 			"/>
			<polygon class="st0" points="478.13,423.24 521.71,423.24 521.71,280.45 478.13,244.59 			"/>
			<polygon class="st0" points="390.91,423.24 434.46,423.24 434.46,173.02 390.91,137.13 			"/>
		</g>
	</g>
	<g>
		<path class="st0" d="M62.88,560.24c3.4,0,6.53-1.93,6.53-6.01c0-3.59-2.85-5.94-6.53-5.94c-3.67,0-6.59,2.35-6.59,5.94
			C56.29,558.31,59.42,560.24,62.88,560.24z"/>
		<path class="st0" d="M72.14,588.92h-3.91c-7.61,0-12.75-3.25-12.75-11.12v-11.64H42v13.16c0,14.23,8.77,22.45,24.12,22.45h19.49
			v-35.61H72.14V588.92z"/>
		<path class="st0" d="M242.97,582.71c0,4.75-2.47,7.39-6.55,7.39c-3.96,0-6.49-2.51-6.49-7.12v-16.93h-12.13v15.15
			c0,6.86-5.45,8.31-9.08,8.31h-3.31v-23.45h-12.07v23.45h-4.8h-1.3h-25.67V587c0-14.57-6.81-21.17-20.25-21.17h-6.88l10.32-17.54
			h-14.73l-9.21,17.61c0.07,5.21,1.88,9.5,3.76,12.2h18.3c3.96,0,6.49,2.37,6.49,6.66v4.75h-30.11h-1.3h-12.51v-41.21H93.38v53.48
			h24.58h1.3h67.98h1.3h20.18c6.1,0,10.97-1.98,14.28-5.54c2.73,4.09,7.59,5.54,13.43,5.54c13.04,0,18.62-6.4,18.62-20.38v-20.25
			h-12.07V582.71z"/>
		<path class="st0" d="M276.92,610.61c0-1.19,0.84-1.98,2.08-1.98h3.31v-4.29h-3.37c-4.8,0-8.24,2.18-8.24,7.58v4.35h13.37v-5.08
			h-7.14V610.61z"/>
		<rect x="270.54" y="561.15" class="st0" width="12.07" height="22.99"/>
		<path class="st0" d="M315.62,589.5h-4.8h-1.3c-4.35,0-6.81-2.64-7.2-7.71v-0.92v-32.57h-12.13v33.56c0,4.88-3.05,7.65-8.24,7.65
			h-19.14l2.47,12.27h15.25c7.85,0,13.5-1.98,17.07-5.94c2.01,3.63,6.49,5.93,11.94,5.94h0h1.3h16.87v-53.48h-12.07V589.5z"/>
		<path class="st0" d="M358.74,559.64c3.31,0,6.23-1.85,6.23-5.6c0-3.43-2.73-5.67-6.23-5.67c-3.44,0-6.16,2.24-6.16,5.67
			C352.58,557.79,355.5,559.64,358.74,559.64z"/>
		<path class="st0" d="M373.21,559.64c3.31,0,6.23-1.85,6.23-5.6c0-3.43-2.66-5.67-6.23-5.67c-3.5,0-6.16,2.24-6.16,5.67
			C367.05,557.79,369.97,559.64,373.21,559.64z"/>
		<path class="st0" d="M410.13,605c-3.44,0-6.16,2.18-6.16,5.6c0,3.76,2.92,5.67,6.16,5.67c3.31,0,6.23-1.91,6.23-5.67
			C416.36,607.18,413.63,605,410.13,605z"/>
		<path class="st0" d="M424.6,605c-3.5,0-6.16,2.18-6.16,5.6c0,3.76,2.92,5.67,6.16,5.67c3.31,0,6.23-1.91,6.23-5.67
			C430.83,607.18,428.17,605,424.6,605z"/>
		<path class="st0" d="M444.78,559.7c3.24,0,6.23-1.85,6.23-5.74c0-3.43-2.73-5.67-6.23-5.67c-3.5,0-6.29,2.24-6.29,5.67
			C438.48,557.85,441.47,559.7,444.78,559.7z"/>
		<path class="st0" d="M486.1,563.33h-12.91v-15.03h-12.07v41.21h-4.8h-0.47h-5.1v-23.57h-12.07v23.57h-4.48h-1.3h-9.99v-23.57
			h-12.07v23.57h-8.69h-19.7h-2.81v-28.36H367.5v2.18c-13.17,0.07-21.93,7.78-21.93,19.25v0.07c0,11.47,8.18,19.12,20.44,19.12h1.49
			h14.94h19.7h30.76h1.3h21.64h0.47h51.13v-16.55C507.45,571.37,499.73,563.39,486.1,563.33z M367.5,589.5h-2.6
			c-4.35,0-7.98-2.44-7.98-6.86v-0.07c0-4.55,3.63-6.99,7.98-6.99h2.6V589.5z M495.32,589.5h-22.13v-13.85h14.02
			c5,0,8.11,2.7,8.11,7.39V589.5z"/>
		<path class="st0" d="M575.25,589.5h-4.8h-1.3h-19.8v-26.18h-0.07c-0.2,0-0.39,0-0.59,0h-11.42c-13.24,0-22.06,7.71-22.06,19.25
			v0.07c0,11.47,8.18,19.12,20.44,19.12h1.49c-0.45,2.51-2.47,3.17-5.65,3.17c-4.02,0-8.18-0.33-11.81-0.99l2.01,11.54
			c3.37,0.59,6.55,0.79,9.86,0.79c10.45,0,16.29-4.02,17.52-14.51h20.06h1.3h16.87v-53.48h-12.07V589.5z M537.15,589.5h-2.6
			c-4.35,0-7.98-2.44-7.98-6.86v-0.07c0-4.55,3.63-6.99,7.98-6.99h2.6V589.5z"/>
		<rect x="596.86" y="548.29" class="st0" width="12.07" height="53.48"/>
	</g>
</g>
</svg>
