<svg version="1.2" xmlns="http://www.w3.org/2000/svg" viewBox="0 0 3900 2167" width="3900" height="2167"><defs><linearGradient id="P" gradientUnits="userSpaceOnUse"/><linearGradient id="g1" x2="1" href="#P" gradientTransform="matrix(223.066,0,0,83.468,3207.199,1315.286)"><stop stop-color="#f1cc52"/><stop offset="1" stop-color="#ff6935"/></linearGradient><linearGradient id="g2" x2="1" href="#P" gradientTransform="matrix(165.929,0,0,239.302,3688.638,1389.886)"><stop stop-color="#f1cc52"/><stop offset="1" stop-color="#ff6935"/></linearGradient><linearGradient id="g3" x2="1" href="#P" gradientTransform="matrix(179.128,0,0,310.2,3568.83,1389.886)"><stop stop-color="#f1cc52"/><stop offset="1" stop-color="#ff6935"/></linearGradient><linearGradient id="g4" x2="1" href="#P" gradientTransform="matrix(68.83,0,0,330.288,3550.519,1394.524)"><stop stop-color="#f1cc52"/><stop offset="1" stop-color="#ff6935"/></linearGradient><linearGradient id="g5" x2="1" href="#P" gradientTransform="matrix(218.843,0,0,309.435,1916.738,1388.006)"><stop stop-color="#f1cc52"/><stop offset="1" stop-color="#ff6935"/></linearGradient><linearGradient id="g6" x2="1" href="#P" gradientTransform="matrix(84.013,0,0,192.598,1899.869,1388.026)"><stop stop-color="#f1cc52"/><stop offset="1" stop-color="#ff6935"/></linearGradient><linearGradient id="g7" x2="1" href="#P" gradientTransform="matrix(177.151,0,0,240.485,1355.101,1389.517)"><stop stop-color="#f1cc52"/><stop offset="1" stop-color="#ff6935"/></linearGradient><linearGradient id="g8" x2="1" href="#P" gradientTransform="matrix(191.243,0,0,311.733,1221.19,1389.517)"><stop stop-color="#f1cc52"/><stop offset="1" stop-color="#ff6935"/></linearGradient><linearGradient id="g9" x2="1" href="#P" gradientTransform="matrix(73.485,0,0,331.92,1207.641,1394.178)"><stop stop-color="#f1cc52"/><stop offset="1" stop-color="#ff6935"/></linearGradient><linearGradient id="g10" x2="1" href="#P" gradientTransform="matrix(233.644,0,0,310.964,192.362,1384.628)"><stop stop-color="#f1cc52"/><stop offset="1" stop-color="#ff6935"/></linearGradient><linearGradient id="g11" x2="1" href="#P" gradientTransform="matrix(89.695,0,0,193.549,174.352,1384.648)"><stop stop-color="#f1cc52"/><stop offset="1" stop-color="#ff6935"/></linearGradient><linearGradient id="g12" x2="1" href="#P" gradientTransform="matrix(209.879,0,0,606.668,651.299,1530.733)"><stop stop-color="#f1cc52"/><stop offset="1" stop-color="#ff6935"/></linearGradient><linearGradient id="g13" x2="1" href="#P" gradientTransform="matrix(168.775,0,0,599.195,579.257,1538.282)"><stop stop-color="#f1cc52"/><stop offset="1" stop-color="#ff6935"/></linearGradient></defs><style>.a{fill:#00dbef}.b{fill:#6f36bb}.c{fill:#00b9e3}.d{opacity:.5;fill:#aed3ff}.e{fill:#00cff2}.f{fill:#283250}.g{fill:#462160}.h{fill:#d9935c}.i{fill:#cb7d45}.j{fill:#522b73}.k{fill:#ffde69}.l{fill:url(#g1)}.m{fill:#ffa412}.n{fill:#e27f2b}.o{fill:url(#g2)}.p{fill:url(#g3)}.q{fill:url(#g4)}.r{fill:#f1a34f}.s{fill:url(#g5)}.t{fill:url(#g6)}.u{fill:#e69d43}.v{fill:#ff753c}.w{fill:url(#g7)}.x{fill:url(#g8)}.y{fill:url(#g9)}.z{fill:url(#g10)}.A{fill:url(#g11)}.B{fill:#8f3b99}.C{fill:url(#g12)}.D{fill:url(#g13)}.E{fill:#e9f3fe}.F{fill:#bed4f4}</style><path class="a" d="m4057.4 1089.6c-126.4-58-170.5-869.9-731.9-464-223.3 161.5-544.8-33.9-852.6 72.9-282.8 98.1-289.3 381-253.5 482.8 39.1 111.3-116.7 244.3-276.2 335.7-250.3 143.4-66.3 647.1 170.1 649.5 236.4 2.4 1973.2-4.8 1973.2-4.8 0 0 472.7-841.8-29.1-1072.1z"/><path fill-rule="evenodd" class="b" d="m3881.7 1062.1v47.7c0 4.5-3.5 8.2-7.7 8.2h-65.4c-4.2 0-7.7-3.7-7.7-8.2v-19.1h-43.6v877.4h-51.3v-877.4h-210.9l-58.9 67.2h12.1c4.2 0 7.7 3.7 7.7 8.2v8.2c0 4.5-3.5 8.2-7.7 8.2h-24.8c-4.2 0-7.7-3.7-7.7-8.2v-8.2c0-4.5 3.5-8.2 7.7-8.2h7.2v-69.4l2.2-0.2v-27.5l-0.6-2.3 312.5-100.1 130.4 93.6-1.2 1.9c4.2 0 7.7 3.7 7.7 8.2zm-441-1.3h360.3c0.6-3.9 3.8-6.9 7.6-6.9h61.4l-126-90.2zm48.3 29.9h-30.6l-23.2 2.2v59.3z"/><path class="c" d="m2823.8 736.5h431.5v1426.7h-431.5z"/><path class="d" d="m2823.8 933.3h312.3v209h-312.3z"/><path class="d" d="m2823.8 1316.1h312.3v209h-312.3z"/><path class="d" d="m2823.8 1693.8h312.3v209h-312.3z"/><path class="e" d="m3793.2 1901.5h-58.2v-193.3h-479.7v-971.7h-119.2v1427.5h119.2v-0.8h479.7 58.2z"/><path class="f" d="m3993.4 2166.5h-2195.2c-1.2 0-2.2-1-2.2-2.3 0-1.2 1-2.3 2.2-2.3h2195.2c1.2 0 2.1 1.1 2.1 2.3 0 1.3-0.9 2.3-2.1 2.3z"/><path class="g" d="m3344.5 2162c0 0 0.9-19.8 5.9-30.4 4.9-10.5 44.8-3.3 44.8-3.3 0 0 9.2 17.7 8 33.6z"/><path class="g" d="m3237.5 2162c0 0 0.9-19.8 5.8-30.4 5-10.5 44.9-3.3 44.9-3.3 0 0 9.2 17.7 7.9 33.6z"/><path class="h" d="m3370.4 1323.9c-5 3.8-50.1 28.8-50.1 28.8l-47.6-36c0 0 14.5-2.2 14.9-2.3 4.3-1.3 4.1-13.5 4.6-26.6q0.1-3 0.3-6l46.6-1.8v0.6q0.1 1 0.2 2v1.4q0.1 0.7 0.1 1.5c0.9 11.4 2.7 27.6 6.1 29.5 2 1 15.2 0.9 24.9 8.9z"/><path class="i" d="m3339.4 1285.5c-3.8 8.1-12.3 22.4-25 21.9-12.1-0.5-19-12.2-22.2-19.6q0.1-3 0.3-6l46.6-1.8v0.6l0.2 2v1.4q0.1 0.7 0.1 1.5z"/><path class="j" d="m3287 1171.5c0 0 22.4-23.7 48.9 0.5 0 0-15.7-3.5-48.9-0.5z"/><path class="b" d="m3278.7 1258.9c0 0-7.2-15.6-11.5-33.8-3.2-13-0.3-62.4 46.4-59.1 0 0 13.5 0.4 26.8 8.4 10.5 6.4 26.1 20.8 12.9 64.7l-3.2 14.8z"/><path class="h" d="m3344 1279.7c-12.1 12.2-27 28.5-59.3-1.7-6.3-5.9-5.9-14.9-6.3-28-0.4-15.4-3.9-24.9-2.3-33.8 1.9-10.6 10.5-15.4 28.3-17.1 32.6-3 49.1 4.8 46.9 22-4.9 38.5 5 46.1-7.3 58.6z"/><path class="k" d="m3317.4 1198.5c0 0 19.3-0.4 23.8 6.4 4.4 6.9 5 14.6 7.2 18.5 2.2 3.9 1.9 8.2 1.9 8.2l4.3-30.7-26.2-5.5z"/><path class="l" d="m3430.3 1367.8c0 0-8.3 25.9-41.8 30.6q-1.4 0.2-2.8 0.4h-136.4q-0.1 0-0.8-0.3c-5.3-1.8-37.9-13.6-41.3-35.8 0 0 17.1-37.4 30.2-42.1 3.8-1.3 9.1-2.3 14.7-3.1 5.6-0.8 11.6-1.3 16.6-1.6 6.9-0.5 12-0.6 12-0.6 0 0 10.6 22.9 36.5 22.5 25.8-0.3 31.8-22.2 31.8-22.2 0 0 7.3 0.2 16.9 1.4 5.4 0.6 11.4 1.4 17.3 2.7 10.1 2.1 20 5.3 25.6 10.2 14.9 12.9 21.5 37.9 21.5 37.9z"/><path class="j" d="m3397.8 1568c-1.4-8.6-3.6-21.7-5.3-33.1 0-0.2 5.1-64.8 6.9-75.7 1.9-11-10.8-70.4-10.8-70.4-3-9.1-8-11.9-11.8-11.9l6.4-57.2c-5.9-1.3-11.9-2.1-17.3-2.7l-3.1 59.9v0.9c-7.1 0.4-15.9 0.9-24.1 1.3-8.2 0.4-15.8 0.7-20.5 0.7-9.5 0-31.4-1.2-45.9-2l-0.1-0.9-3.5-61c-5 0.3-11 0.8-16.6 1.6l6.1 59.4c-4 0-8.7 7.7-9.3 12l-0.7 18.6c-3 9.3-9.4 30.1-10.5 44.7-1.4 19.3 6.2 86.4 6.3 86.9-0.3 8-0.8 18.2-1.9 28.1-5.7 16.4-30 92.8-27.5 195.4 2.3 95.9 3.7 259.6 14.3 339.1 1.7 12.9 3.7 23.6 5.9 31.4 1.2 3.9 4.4 6.8 8.2 7.3 12.2 1.8 39.7 5.1 51.5 0.6 5.7-2.2 9.7-35.6 12.6-78.7 2.7-41.3 4.4-91.5 5.3-131.6q0 0 0 0c0.8-31.9 1-57.4 1-66.9 0-21.3 4.8-84 6.4-120.8 0-1 1.4-1 1.5 0q0 0 0 0c2.4 43.7 10.7 110.1 10.8 124.8 0.3 35.8-1.6 265.5 13.1 273.2 11.2 5.9 37.7 1.4 50.4-0.4 4.6-0.7 8.3-4.1 9.6-8.8 15.8-57.8 17.2-258.7 19.9-369.2 2.4-101.2-21.2-176.8-27.3-194.6z"/><path class="h" d="m3273.9 1609.3c-4.7 4-20 2.3-25.9-3-5.9-5.3-17.7-3.6-20.5-5.6-0.2-0.2-55.3-69.5-61.3-98.7-6-29.5 32.1-110.6 42.9-132.7 8 17.9 34.6 27.6 39.4 29.2q0.7 0.3 0.7 0.3h1.5c-9 25.8-35.9 72.2-46.2 89.7-2.6 4.3-2.9 9.8-0.9 14.5 13.3 30.2 26.3 55.8 32 73.5 1.1 1.9 3.6 5.5 6.5 5 4.1-0.7 17.1-3.7 23.7 6.6 6.5 10.3 12.7 17.2 8.1 21.2z"/><path class="m" d="m3357.8 1172.2c0 0-3.6-5.2-10.1-11q-1.5-1.4-3.2-2.8c-11.9-9.5-30.8-18.9-53.6-8.8-6.2 2.8-11.4 6.5-15.6 10.8q-1.6 1.5-2.9 3.1c-19.8 23.4-18.1 60-18.1 60l114.2-1.3c0.3-33.9-10.7-50-10.7-50z"/><path class="n" d="m3336.4 1222.5c-0.3-5.1-2.5-46.9 11.3-61.3-1-0.9-0.7-0.7-1.9-1.7-14.8 16.5-15.7 57.7-15.7 63.1l-36.5 0.4c-1.1-29.7-16.5-59.3-18.3-62.6-1.1 1-1.2 1.2-2.1 2.3 2.6 5 12.7 33.7 13.7 60.4l-32.6 0.4c0 0 30.4 8.3 53.3 8 22.9-0.3 60.9-9.3 60.9-9.3z"/><path class="b" d="m3278.2 1383.2c-11.7 23.8-44.9 28.3-44.9 28.3 10.8-27.8-10.9-36.6-24.3-65.1-13.4-28.4 10.3-47.3 10.3-47.3-14.6 3-17.4 23.8-17.4 23.8-1.3-13.9 9.6-37.4 44.2-42 25.3-3.4 31.4-12.5 32.9-17.1 0.6 6 1.9 10.7 5.7 14.2q4 3.8 7.7 6.6-0.1 1.6-0.2 3.2c-0.1 3.7-0.2 7.3-0.4 10.6-4.5 5.8-4.4 11.9-3.6 15.7 0.5 2.4 1.2 3.9 1.2 3.9 3.6 5.3 5.5 10.6 6 15.9 1.6 15.7-8.4 31.4-17.2 49.3z"/><path class="g" d="m3397.5 1566.4l-5-31.5c-24.6 9.7-47.8 13.9-68.3 15-2.4-4.7-6.8-8.2-12.2-9l-18.1-2.8c-7.2-1.1-13.9 2.9-17 9.3-17.4-2.8-29.2-7-32.9-8.5v0.2l-1.8 27.7v0.1c10.4 2.9 20.5 5.2 30.1 7l-0.6 3.8c-1.3 9.6 4.9 18.5 13.9 20l20.1 3.2c9.6 1.5 18.4-6 19-16.3l0.3-5.9c38.3-0.3 63.7-8.8 72.5-12.3z"/><path class="h" d="m3471 1502c-6 29.2-61.1 98.5-61.3 98.7-0.5 0.3-1.2 0.6-2.2 0.7q0 0-0.1 0.1c-4.5 0.8-13.4 0.4-18.3 4.8-5.9 5.3-21.1 7-25.8 3-4.7-4 1.5-10.9 8.1-21.2 6.5-10.3 19.6-7.3 23.7-6.6 2.4 0.4 4.5-1.9 5.7-3.9q0.1 0 0.1-0.1 0.4-0.5 0.7-1c5.5-17.3 18.1-42.1 31-71.5 2.6-5.9 2.3-12.8-1-18.3-8.6-14.7-26.2-45.3-37.6-69.8-1.3-7.1-2.6-13.7-3.6-18.8 24.9-4.2 35.1-20.3 38.5-27.2 11.7 24.3 48 102.3 42.1 131.1z"/><path class="o" d="m3844 1627.8c-8.3 2.1-46 2.6-72.5-3.8-5.5-1.3-10.5-2.9-14.7-4.8-5-2.4-8.7-5.2-10.6-8.6-3-5.3-8.5-23.4-14.9-47.2-17.7-65.4-42.7-173.5-42.7-173.5 0 0 50.1 10.8 60.7 20.1 10.6 9.3 19.9 156.2 29.9 160.2 1.5 0.6 4 1.8 7.2 3.5q0.3 0.2 0.5 0.3c1.9 1 4.1 2.2 6.5 3.5 20.6 11.2 54.8 31.6 58.4 36.1 4.6 5.9 4.3 11.2-7.8 14.2z"/><path class="p" d="m3748 1473.6q-0.1-3.8-0.7-7.6c-6.4-37.6-57.7-76.1-58.7-76.1v0.8c0 5.7-8.5 16.3-21.6 17.2-15.6 1.1-34.9-8.3-34.9-17.9-0.1 0-8.7 1.3-11.7 1.6-12.5 1.5-37.4 8.7-48.1 17.3-10.1 8.1 4.2 59.6 13.1 96 3.8 15.4 6.5 28.1 6.1 33.7-0.2 2.8-2.6 40.1-4.6 73.9-1.8 27.9-3.3 53.4-3.4 55-0.1 3.1 14.8 14.2 39.6 22.6 6 2 12.7 3.9 19.8 5.5 12.8 2.7 27.2 4.5 42.9 4.5q7.7-0.1 14.6-0.8c35.6-3.7 47.8-46.8 47.6-225.7z"/><path class="h" d="m3632.1 1389.6c-0.3-14.6 0-32.1 1.8-46.8l54.9 9.5c0 0 0.1 17.8-0.2 37.6 0.1 0 1.5 18.3-19.7 21-21.2 2.7-37.3-7.2-36.8-21.3z"/><path class="g" d="m3678.1 2162c-6.9-4.5-2.9-38-2.9-38 0 0 32.3-27.3 36.7-6.3 4.4 21 30.5 30.6 45.4 33.2 10.3 1.8 14.1 7.5 15.1 11z"/><path class="g" d="m3627.8 1586.8c0 55.9-25.5 40.8-40.9 25.7 2-33.8 3.5-153.5 3.5-153.5 0 0 37.4 47.7 37.4 127.8z"/><path class="g" d="m3793.4 1577.5c-1 7.8-12.7 30.6-21.9 46.5-5.5-1.3-10.5-2.9-14.7-4.8-5-2.4-8.7-5.2-10.6-8.6-3-5.3-8.5-23.4-14.9-47.2 4.7-29.2 9.3-58.1 9.3-58.1l1.4-19.3c0 1.5 21.3 86.5 31 88.5 5.8 1.2 9.9-0.2 13.4-0.8q0.3 0.2 0.5 0.3c1.9 1 4.1 2.2 6.5 3.5z"/><path class="g" d="m3579 2162c-6.9-4.5-2.9-38-2.9-38 0 0 32.4-27.3 36.7-6.3 4.4 21 30.6 30.6 45.5 33.2 10.2 1.8 14 7.5 14.9 11z"/><path class="g" d="m3626.9 1326c0 0-36.6-61.4 33.7-65.5 0 0 26.4 3.3 32.4-3 0 0 20.5 33 1.4 68.5-19.2 35.4-67.5 0-67.5 0z"/><path class="h" d="m3687.2 1358c-5.3 4.5-21 8.9-25.5 9.4 0 0-23.2-5.5-27.4-8.2-6.5-4.2-6.1-12.7-6.5-24.5-0.4-14-1.7-25-0.2-33.1 1.7-9.7 7.5-15.2 23.6-16.7 29.7-2.7 42 5.2 42.5 15.7q0.2 4.3 0.4 8.1c1.1 32.9-1.3 44.6-6.9 49.3z"/><path class="g" d="m3694.3 1319.5c-0.3 19.1-5.1 30.4-8.6 31.8-4 1.6-8.8 3-13.7 3.9-1.7 0.2-3.3 0.1-3.3-0.9 0.1-3 3.8-6.7 1-9.3-2.9-2.8-18.7-3.8-20 2.3-0.6 3 4.5 8.2 1 8.4q-1.6-0.3-3.1-0.7c-5.8-1.6-10.3-4.5-12.2-5.7-6.5-4.2-6.1-10.7-7.6-22.4-0.9-7.6-0.9-3.5 0 7.8 1 11.8-0.9 19.3 6.5 24.5 4.1 2.9 27.7 14.2 27.7 14.2-0.3-6 19.9-10.9 25.2-15.4 4.9-4.1 7.4-13.7 7.1-38.5z"/><path class="j" d="m3583.5 1667.5c-0.1 3.1 14.8 14.2 39.6 22.6q3.1 1 6.3 2 0 0 0 0c2.3 29 8.6 69.9 14.3 109.3q0 0 0 0c1.5 10.3 2.9 20.4 4.2 30.2 3.4 25.9 6 49.6 6.3 66.6v0.2c0.1 7.8-6.1 27.3-6.5 31.7q-0.5 4.2-0.7 8.8c-0.7 12.1-0.4 26.5 0.5 41.9 4.1 67.1 20.7 153 26.7 156.6 11.8 7.3 33.4 0 44.3-1.7 4.5-0.7 8.2-4.8 7.9-9.7-5.3-111.3 10-266.4 21.5-361.7q0.5-3.7 0.9-7.3c1.4-11.3 2.3-21.8 2.9-31.2 0.5-8.3 0.7-15.9 0.9-22.4q0-3.1 0-5.8c0-6-4.4-45.1-4.6-224 0-4.2-3.2-7.6-7.1-7.6h-103c-10 0-18 8.7-17.9 19.3 0.2 13.6-0.3 32.7-3.1 50.9-3.8 24.8-11.9 48.1-28.7 53.6q0 0-0.1 0.1c0 0.2-0.5 1.2-1.2 3.1q0 0 0 0-0.3 6.7-0.6 13.7 0 1.4-0.1 2.8 0 0.9-0.1 1.7 0 1.4-0.1 2.8-0.1 2.4-0.2 4.8-0.1 1.9-0.2 3.8-0.2 3.6-0.4 7.3-0.1 1.2-0.2 2.4-0.3 4.8-0.6 9.7-0.1 1.5-0.2 3-0.1 0.7-0.1 1.5-0.2 1.9-0.3 3.8-0.2 2.1-0.3 4.1c-0.4 5.1 0.2 9.5 0 13.1z"/><path class="g" d="m3647.5 1980.8c4.1 67.1 20.7 153 26.7 156.6 11.8 7.3 33.4 0 44.3-1.7 4.5-0.7 8.2-4.8 7.9-9.7-5.3-111.3 10-266.4 21.5-361.7q0.5-3.7 0.9-7.3c1.4-11.3 2.3-21.8 2.9-31.2-5.5-37.8-36.3-39.8-64.2 38.3 3.4 26-40.9 201.3-40 216.7z"/><path class="j" d="m3582.4 1895c-0.9 7.8-9.4 26.2-10.4 30.6-14.1 60.4-6.3 203.5 0.7 209.2 10.8 8.8 33 4.6 44.1 4.5 4.6-0.1 8.7-3.7 9-8.5 8.7-114 44.7-270.6 67.9-362.7 11.6-46.4 13.3-80.5 13.3-80.5 0 0-108.2-70.5-119.9-32-10.3 34 1.8 179.9-4.7 239.4z"/><path class="m" d="m3692.5 1243.3q-1.1-1.3-2.3-2.6c-3.6-3.5-7.8-6.6-12.9-8.9-18.9-8.3-34.5-0.6-44.3 7.3q-1.4 1.2-2.7 2.3c-5.3 4.8-8.3 9.1-8.3 9.1 0 0-9.1 13.3-8.8 41.3l94.3 1c0 0 1.4-30.2-15-49.5z"/><path class="n" d="m3639.6 1292.1h5.2c0.1-1.6-0.1-38-12.9-52.1-1 0.8-0.8 0.7-1.6 1.4 12.1 12.5 9.4 50.3 9.3 50.7z"/><path class="n" d="m3680.6 1292.5c1.1-22.2 9.1-45.6 11.3-49.8-0.7-0.9-0.9-1.1-1.7-2-1.5 2.8-13.8 27-15.1 51.8l-61.9-0.7c0 0 31.3 7.4 50.3 7.7 18.9 0.2 44-6.7 44-6.7z"/><path class="j" d="m3616.7 1392.2c0 0 31.9 39.4 33.8 73.8l-16.3 1c0 0-4.1-38.4-28-72.5 0 0 3.7-0.9 5-1.2 1.6-0.4 5.5-1.1 5.5-1.1z"/><path class="j" d="m3696.2 1391.6c22.8 36.7 25.3 75.2 25.3 75.2l16.4-0.3c-1.4-27.1-17.4-56.8-26.2-70.9 0 0-11.4-3.1-15.5-4z"/><path class="m" d="m3660.6 1770.3h-13.2c-6.1-3-39-18.2-70.7-18.3-22.9-0.2-48.9 18-50.5 18.2-4 0.5 13.3 0.6 13.3 0.6 0 0 25.8-12.1 37.3-12.4 11.1-0.3 35.6 8.3 45.4 11.9h-73.8c-6.1 0-11.2 5.3-11.2 11.9v89.4c0 6.5 5.1 11.9 11.2 11.9h112.2c6.2 0 11.2-5.4 11.2-11.9v-89.4c0-6.6-5-11.9-11.2-11.9z"/><path class="n" d="m3500.8 1781.3c0-6.1 4.9-11 11-11h112.6c6 0 11 4.9 11 11v91.2c0 6-5 11-11 11h-112.6c-6.1 0-11-5-11-11z"/><path class="q" d="m3591.2 1604c0.8 40.4-3.9 120.8-3.9 120.8h-22.5c-10.5-56.6-14.3-93-14.3-112.9q0-5.8 0.1-10.9c0.1-17 0.5-26.8 0.5-26.8-4.2-102.8 15.2-157.7 21.2-165.3 6.1-7.6 33.8-14.4 33.8-14.4 0 0 9.2 28.4 13 51.3 3.7 22.8-29.4 118.8-28.1 151.6q0.1 3 0.2 6.6z"/><path class="r" d="m3860.9 1634.5c0-1.7 1.4-3 3-3h18.7c1.7 0 3 1.3 3 3v525.8c0 1.7-1.3 3-3 3h-18.7c-1.6 0-3-1.3-3-3z"/><path class="j" d="m3882.3 1631.5h-18.1c-1.8 0-3.3 1.5-3.3 3.5v16.2h24.7v-16.2c0-2-1.5-3.5-3.3-3.5z"/><path class="j" d="m3860.9 2159.8c0 1.9 1.5 3.5 3.3 3.5h18.1c1.8 0 3.3-1.6 3.3-3.5v-14h-24.7z"/><path class="n" d="m3873.4 1665.9c-1 0-1.8 0.8-1.8 1.9v462c0 1.1 0.8 2 1.8 2 1.1 0 1.9-0.9 1.9-2v-462c0-1.1-0.8-1.9-1.9-1.9z"/><path class="h" d="m3587.3 1724.8c0 0 4.7-80.4 3.9-120.8-17.9-6.2-32.4-4.8-40.6-3q-0.1 5.1-0.1 10.9c0 19.9 3.8 56.3 14.3 112.9-4.6 20.9-4.3 43.4 3.8 47.3 8.1 4 34.9-10.9 34.6-17.5-0.3-6.6-15.9-29.8-15.9-29.8z"/><path class="h" d="m3894.2 1631.8c-2.2-8.5-3.8-13.2-9.3-17.4-8.1-6-17.6-4.4-24.7-3-5.4 1-11.1-1-13.5-1.9-12.5-8.9-44.1-27.3-59.8-35.5-10.7 6.6-23.9 19.7-30.1 45.2 24.2 11.3 77.1 11.1 87.2 8.6 0 0 9.3 7.2 16.4 7.9 2.7 0.2 6.1-0.6 9.3-1.7 4.9-1.8 10.3 0 13.9 4.7 3.4 4.5 7.9 7 9.8 7 2.9 0 2.2-8.5 0.8-13.9z"/><path class="m" d="m1866.6 1746.2c0-6.1 4.9-11 11-11h112.6c6 0 11 4.9 11 11v91.2c0 6.1-5 11-11 11h-112.6c-6.1 0-11-4.9-11-11z"/><path class="n" d="m1903 1746.2c0-6.1 5-11 11-11h112.6c6.1 0 11 4.9 11 11v91.2c0 6.1-4.9 11-11 11h-112.6c-6 0-11-4.9-11-11z"/><path class="m" d="m1890 1735.7c0 0 26.6-20.9 30.6-20.4 3.9 0.5 10.2 2 10.2 2l-23.8 19.1z"/><path fill-rule="evenodd" class="s" d="m2128.6 1599.3c0 0-15.6 2.8-42.6 0.3 0.6 16.7 1.5 33.2 3 52.2 0.5 5-0.2 9.5 0 13 0.1 3.2-14.7 14.3-39.6 22.7-6 2-12.6 3.9-19.8 5.4-12.7 2.8-27.2 4.6-42.9 4.5q-7.7 0-14.6-0.7c-35.6-3.7-54.7-19.4-54.7-19.4-3.3 0 6.9-27.4 7.2-206.4q0-3.7 0.6-7.5c6.5-37.6 57.7-75.4 58.7-75.4 0 5.8 8.5 16.4 21.7 17.3 15.5 1.1 34.7-7.2 34.7-16.7 0.1 0 8.8 0 11.8 0.4 12.5 1.5 37.4 8.7 48.1 17.2 14.4 11.6 50.5 142.5 28.4 193.1zm-47.5-94.4c0.8 6.5 1.4 13.3 1.9 20.4 0.6 8.5 1 17.4 1.4 26.8q0 1 0 2 2.2-0.4 4.2-0.8 2.8-0.7 5.3-1.4c3.1-0.8-3.4-20.9-12.8-47z"/><path class="h" d="m1983.9 1388c0 0-39.6 6.4-56.6 21.5-17 15.1-18.8 111.1-24.4 138.2-1.2 5.4-2.2 14-3 24.5-3.1 36.8 0.6 87.9 3.6 106.8 0.3 4.5 0.1 11.2-2.3 17.8-4.4 11.6-5.3 14.9 2.5 21.5 7.7 6.7 16.2 15.9 22.1 13.3 4.5-2.1 3.7-34.2 3.1-48.8 6.9-31.3 17.9-89.8 28.3-146.6 13.9-75.7 26.7-148.2 26.7-148.2z"/><path class="t" d="m1983.9 1388c0 0-7.4 41.8-17 95-3 16.9-6.3 35-9.7 53.2-13.6 28.3-25.3 47.6-28.9 44-7.3-7.4-20.3-8.3-28.4-8 0.8-10.5 1.8-19.1 3-24.5 0.4-2.1 0.8-4.7 1.2-7.6 4.8-34.2 7.5-116.7 23.2-130.6 8.2-7.3 21.8-12.6 33.5-16.1 6.1-1.8 11.6-3.1 15.8-4 4.4-0.9 7.3-1.4 7.3-1.4z"/><path class="m" d="m1928.3 1580.2c-7.3-7.4-20.3-8.3-28.4-8 0.8-10.5 1.8-19.1 3-24.5 0.4-2.1 0.8-4.7 1.2-7.6l40.9-104.7c0 0-13.1 148.4-16.7 144.8z"/><path class="h" d="m2040.4 1387c0.3-14.7 0.1-32.1-1.8-46.9l-54.9 9.6c0 0 0 17.8 0.2 37.5q0 0 0 0c0 0-1.5 18.4 19.7 21 21.3 2.7 37.4-7.1 36.8-21.2z"/><path class="g" d="m1994.4 2161.9c6.9-4.5 2.9-38.2 2.9-38.2 0 0-32.3-27.2-36.7-6.2-4.3 21-30.5 30.5-45.4 33.1-10.3 1.8-13.5 7.9-14.4 11.5z"/><path class="m" d="m2088.6 1553.3c0 0-10.3 14.8-12.4 14.8-2.1 0-28.1-10.7-20.6-34.6 7.4-23.8 25.5-28.6 25.5-28.6 0.8 6.5 1.4 13.3 1.9 20.4 0.6 8.5 1 17.4 1.4 26.8q0 1 0 2 2.2-0.4 4.2-0.8z"/><path class="g" d="m2093.5 2161.9c6.9-4.5 2.9-38.2 2.9-38.2 0 0-32.4-27.2-36.7-6.2-4.4 21-30.5 30.5-45.4 33.1-10.3 1.8-13.5 7.9-14.5 11.5z"/><path class="b" d="m2045.6 1323.3c0 0 36.7-61.4-33.7-65.4 0 0-26.4 3.3-32.4-3.1 0 0-20.5 33.1-1.3 68.5 19.1 35.5 67.4 0 67.4 0z"/><path class="h" d="m1985.3 1355.4c5.4 4.4 21 8.9 25.5 9.4 0 0 23.2-5.5 27.4-8.2 6.6-4.2 6.1-12.7 6.5-24.6 0.4-14 1.7-25 0.2-33.1-1.7-9.6-7.5-15.1-23.6-16.6-29.6-2.7-42 5.1-42.5 15.7q-0.2 4.2-0.4 8.1c-1.1 32.9 1.3 44.6 6.9 49.3z"/><path class="b" d="m1978.2 1316.9c0.3 19 5.1 30.3 8.6 31.8 4.1 1.6 8.8 3 13.8 3.9 1.6 0.2 3.2 0.1 3.2-0.9 0-3-3.8-6.7-1-9.4 2.9-2.8 18.8-3.7 20 2.4 0.6 3-4.5 8.2-1 8.3q1.6-0.3 3.1-0.7c5.8-1.6 10.3-4.5 12.2-5.7 6.6-4.2 6.1-10.6 7.6-22.4 0.9-7.6 0.9-3.4 0 7.8-1 11.8 0.9 19.4-6.5 24.6-4.1 2.9-27.7 14.1-27.7 14.1 0.3-5.9-19.8-10.9-25.2-15.3-4.9-4.2-7.4-13.7-7.1-38.5z"/><path class="j" d="m2089 1664.8c0.1 3.2-14.7 14.3-39.6 22.7q-3 1-6.2 1.9-0.1 0-0.1 0.1c-2.3 28.9-8.6 69.8-14.3 109.3q0 0 0 0c-1.4 10.2-2.9 20.4-4.2 30.2-3.4 25.9-6 49.5-6.3 66.5v0.2c-0.1 7.8 6.1 27.3 6.5 31.8q0.5 4.1 0.7 8.7c0.7 12.2 0.4 26.6-0.5 42-4.1 67.1-20.7 152.9-26.7 156.6-11.8 7.2-33.4 0-44.3-1.7-4.5-0.8-8.2-4.9-7.9-9.7 5.3-111.4-10-266.4-21.5-361.8q-0.5-3.7-0.9-7.3c-1.4-11.2-2.3-21.7-2.8-31.2-0.6-8.3-0.8-15.8-0.9-22.3q-0.1-3.1-0.1-5.9c0-5.9 4.4-45 4.7-224 0-4.1 3.1-7.5 7-7.5h103c10 0 18 8.7 17.9 19.2-0.2 13.7 0.3 32.7 3.1 50.9 3.8 24.9 11.9 48.1 28.7 53.7q0.1 0 0.1 0c0 0.2 0.5 1.3 1.2 3.1q0 0 0 0 0.3 6.8 0.6 13.8 0 1.4 0.1 2.8 0 0.8 0.1 1.6 0 1.5 0.1 2.9 0.1 2.3 0.2 4.7 0.1 1.9 0.2 3.8 0.2 3.6 0.4 7.4 0.1 1.1 0.2 2.3 0.3 4.8 0.6 9.8 0.1 1.5 0.2 3 0.1 0.7 0.1 1.4 0.2 2 0.3 3.9 0.2 2 0.3 4.1c0.5 5-0.2 9.5 0 13z"/><path class="g" d="m2025 1978.2c-4.1 67.1-20.7 152.9-26.7 156.6-11.8 7.2-33.4 0-44.3-1.7-4.5-0.8-8.2-4.9-7.9-9.7 5.3-111.4-10-266.4-21.5-361.8q-0.5-3.7-0.9-7.3c-1.4-11.2-2.3-21.7-2.8-31.2 5.4-37.8 36.2-39.8 64.2 38.4 11.9 30.3 40.8 201.3 39.9 216.7z"/><path class="j" d="m2090.1 1892.4c0.9 7.7 9.4 26.2 10.4 30.6 14.2 60.3 6.4 203.4-0.6 209.1-10.9 8.9-33.1 4.7-44.2 4.5-4.6 0-8.7-3.6-9-8.4-8.7-114.1-44.7-270.6-67.8-362.8-11.7-46.4-13.3-80.5-13.3-80.5 0 0 108.1-70.4 119.8-31.9 10.4 34-1.8 179.8 4.7 239.4z"/><path class="m" d="m2050.5 1247.9c0 0-3-4.3-8.3-9.1q-1.3-1.2-2.7-2.3c-9.8-7.9-25.4-15.7-44.3-7.3-5.1 2.3-9.3 5.3-12.9 8.9q-1.2 1.3-2.3 2.6c-16.4 19.3-15 49.5-15 49.5l94.3-1.1c0.3-28-8.8-41.2-8.8-41.2z"/><path class="n" d="m2032.9 1289.4c-0.1-0.4-2.8-38.2 9.3-50.6-0.8-0.8-0.6-0.7-1.6-1.4-12.8 14.1-13 50.5-12.9 52.1z"/><path class="n" d="m1997.5 1289.8c-0.9-24.5-13.6-49-15.2-51.7-0.8 0.8-0.9 1-1.7 1.9 2.2 4.1 10.5 27.8 11.3 49.9l-26.9 0.3c0 0 25.1 6.9 44.1 6.6 18.9-0.2 50.2-7.7 50.2-7.7z"/><path class="j" d="m2055.8 1389.5c0 0-31.9 39.5-33.8 73.9h16.2c0 0 4.2-37.4 28.2-71.5z"/><path class="j" d="m1976.6 1389.4c-22.9 36.8-25.6 74-25.6 74h-16.2c1.4-27.1 17.2-55.9 26-70 6.1-1.8 11.6-3.1 15.8-4z"/><path fill-rule="evenodd" class="b" d="m2133.7 1658.7c-3.2 6.6-7.1 12.2-11.7 16.7-7.3 7.2-16.2 11.8-26.3 13.5q-4.7 0.9-9.8 0.8-1.8 0.4-3.5 0.6-0.9 0.1-1.9 0.2-1.1 0.1-2.1 0.2c-4.7 1.5-9.5 2.2-14.6 2.2q-1.7 0-3.5-0.1-1.7 0.1-3.4 0.1c-5.4 0-11-0.8-16.8-2.6q-0.1 0-0.1 0-2.2-0.7-4.5-1.5-4-1.5-8.1-3.6c-28-13.9-55.6-48.1-54.4-86.2 1.5-48.2 27.2-151.3 54.9-197.7q0 0 0 0c2.9-4.9 5.8-9.1 8.7-12.6q0.6-0.6 1.1-1.2c5.2-6 10.3-9.2 15.1-9.7q2.3-0.9 4.6-0.9 1.1 0 2.4 0.3 1.1-0.2 2.2-0.3c4.6-0.2 11.8 3.7 21.9 20.6q0 0.1 0.1 0.1-1.3-0.5-2.6-1-1.2-0.4-2.4-0.8-1.1-0.4-2.3-0.8-0.9-0.3-1.9-0.6-1.7-0.6-3.3-1.1-0.3-0.1-0.7-0.1-0.1-0.1-0.1-0.1-1.4-0.4-2.7-0.8-2.9-0.7-5.6-1.4 0 0 0 0c-1.6-2.1-2.9-3.5-4-4.4q-0.6-0.5-1.2-0.8-1.9 1.2-4 3.4 0 0 0 0.1-0.9 1-1.9 2.2-0.5 0.7-1.1 1.5 0 0 0 0-0.4 0.6-0.8 1.2c-17.2 25.4-31.3 89.4-37.8 144.6-3.3 28-4.6 53.7-3.4 71 1.8 24.4 19.7 54 50.8 67.1q3.8 1.6 7.9 2.9 0.5 0.1 0.9 0.3 0 0 0.1 0 0.4 0.1 0.9 0.2 3.3 1 6.6 1.6c7-3.5 13.2-9.1 18.1-16.7 7.8-12.2 12-34.5 12.3-64.4q2.8 0 5.4-0.1c-0.3 35.7-6 55.3-12 66.2q0.6-0.9 1.2-1.7c7.8-12.2 12-34.5 12.3-64.5q2.9-0.1 5.4-0.2c-0.3 39.1-7.1 59-13.6 69.1q-3.1 4.9-6.7 8.7c7.7-4.3 14.1-11.1 18.9-20.2 6.3-12 8.9-32 7.8-58.2 2.7-0.2 4.1-0.5 4.1-0.5q0.6-1.4 1.2-3c1.8 35.8-3.2 55.2-8.7 65.6-2.8 5.4-6.1 10-9.9 13.9 7.4-4.7 13.5-11.7 17.9-20.8 7.2-14.6 8.7-40.6 4.7-74.5 1.2-7.7 1.8-16.1 1.8-25.1 3.2 18.6 4.9 34.2 5.5 47.3 1.4 29.5-2.8 46.4-7.4 56zm-140.3-11.7c-8.7-14.1-14.1-30.7-13.5-48 1.3-41.5 20.5-123.7 43.5-175.3q1.3-3.5 2.5-6.7c-24.2 48.9-46.2 139.6-47.6 182.3-0.4 14.6 4.6 32.1 15.1 47.7zm45.1 32.9c-23.9-13.9-45.3-40.5-46.7-72.5-1.1-25.3 3.4-66.5 11.3-107.1-10.2 37.6-17.1 75.5-17.9 99-0.8 26.4 16.4 62.2 51 79.5q1.2 0.6 2.3 1.1zm0.8-7c-19-14-34.5-36.1-36.4-62.5-1-14.7-0.4-34.9 1.7-57.3 4-43.3 13.4-94.9 25.8-131q-1.1 2.3-2.2 4.8c-1.9 5.3-3.8 10.9-5.6 16.9-16.1 52.8-27 126.6-25.4 163.2 0.9 22.6 15.6 50.3 42.1 65.9z"/><path class="h" d="m2088.6 1553.3c-0.9 0.2-17.5 3.4-18.4 3.5-27.6 4.3-64.7 6.2-68.6 6.4-0.3-0.4-13.5-13.4-18.6-13.4-5.2 0-20.2 5.8-21.8 10.3-1.5 4.4-2.1 12.5 2.2 14.3 4.3 1.8 22 6.2 26.6 6.7 0.7 0 1.4 0 2.2 0 33 10.3 61.4 15.3 83.3 17.7 2 0.2 13.3 1.8 23.3 1.7-0.4-20.3-6.8-38.9-10.2-47.2z"/><path class="a" d="m2846.2 665.4h4.6v87.9h-4.6z"/><path class="a" d="m3103.5 665.4h4.7v87.9h-4.7z"/><path class="a" d="m2878.7 665.4h4.6v87.9h-4.6z"/><path class="a" d="m3126.8 665.4h4.6v87.9h-4.6z"/><path class="j" d="m2192.9 1960.5c-1.5-0.3-2.9 0.6-3.3 2.2l-25.1 116.4c-6.7 0.2-13.6 8-16 18.8l-2.3 11.1c-0.2 0.6-0.3 1.3-0.4 1.9l27.9 6.8c0.2-0.6 0.4-1.3 0.5-1.8l2.4-11.1c2.3-10.9-0.6-21-6.7-24.4l25.1-116.4c0.3-1.5-0.6-3.1-2.1-3.5z"/><path class="u" d="m2120.1 2110.7c0 0 57.8-15.9 76.3-2.9 18.4 12.9-9.4 26.6-9.4 26.6z"/><path class="h" d="m2839.4 1237.6c20.6-112.2 39.5-219.5 39.5-219.5 0 0-58.6 9.4-83.8 31.7-25.3 22.4-27.8 164.7-36.2 204.9-1.7 7.9-3.2 20.6-4.5 36.2-4.8 57.8 1.2 144.4 5.7 168.7-0.3 2.4-2.2 13.8-12.1 35.8 0 0-5.1 16.9 28.5 42.2 21.5 16.2 40.6-178.2 62.9-300z"/><path class="v" d="m2878.9 1018.1c0 0-10.9 61.8-25.1 140.7-4.5 25-9.4 51.7-14.4 78.8-20.1 42-37.4 70.5-42.8 65.2-10.9-11-30-12.3-42.2-11.9 1.3-15.6 2.8-28.3 4.5-36.2 0.6-3.2 1.2-7 1.9-11.3 7-50.6 11-173 34.3-193.6 25.2-22.3 83.8-31.7 83.8-31.7z"/><path class="m" d="m2853.8 1158.8c-4.5 25-9.4 51.7-14.4 78.8-20.1 42-37.4 70.5-42.8 65.2-10.9-11-30-12.3-42.2-11.9 1.3-15.6 2.8-28.3 4.5-36.2 0.6-3.2 1.2-7 1.9-11.3l60.4-155.2z"/><path class="h" d="m2962.6 1016.5c0.4-21.7 0.1-47.5-2.7-69.4l-81.3 14.2c0 0 0 26.3 0.4 55.6q-0.1 0-0.1 0c0 0-2.2 27.2 29.2 31.1 31.5 4 55.3-10.6 54.5-31.5z"/><path class="i" d="m2878.4 966.6c0 0 19.2 41.7 41.1 41.7 22 0 42.5-39.2 42.5-39.2z"/><path class="g" d="m2932.6 2162.1c0 0 3-24.5 9.8-39.1 6.9-14.5 50.5-5.3 50.5-5.3 0 0 8.7 8 10.6 45.1z"/><path class="g" d="m2784 2161.8c10.2-6.7 4.4-56.3 4.4-56.3 0 0-47.7-40.6-54.3-9.5-6.6 31.1-45.4 45.1-67.5 48.9-15.2 2.6-19.9 11.6-21.4 16.9z"/><path class="g" d="m2970.3 922.2c0 0 54.3-90.9-49.9-97 0 0-39.1 4.9-48-4.5 0 0-30.3 49-2 101.5 28.3 52.5 99.9 0 99.9 0z"/><path class="h" d="m2881 969.7c7.9 6.6 31.1 13.2 37.8 13.9 0 0 34.4-8.1 40.6-12.1 9.7-6.3 9.1-18.9 9.6-36.4 0.6-20.7 2.5-37 0.3-49-2.6-14.3-11.1-22.5-35-24.7-43.9-4-62.2 7.7-62.9 23.3q-0.3 6.3-0.6 12c-1.7 48.7 1.9 66 10.2 73z"/><path class="j" d="m2882.9 1793.3c-1.9 11.4-3.2 20.7-3.5 27.4-4.4 92-72.9 302.4-85.1 307.3-19 7.6-48.8-8.5-64.4-13.8-6.5-2.2-10.8-9.2-9.4-16.2 33.9-165.6 46.4-404 50.9-545.2 2.3-71.1 13.8-120.2 13.8-120.2 0 0 166.9-47.3 167.9 12.5 0.9 53-55.3 260.8-70.2 348.2z"/><path class="g" d="m2882.9 1793.3l-111.5-240.5c2.3-71.1 13.8-120.2 13.8-120.2 0 0 166.9-47.3 167.9 12.5 0.9 53-55.3 260.8-70.2 348.2z"/><path class="j" d="m2845.8 1445.4l88.2 679.6c0 0 38.8 10 68.9 2 0 0 25.9-361.5 23.7-448.9-2.1-87.4 18.6-233.8-4.7-250-23.3-16.1-176.1 17.3-176.1 17.3z"/><path class="b" d="m3034.6 1428.1c0.3 7.9-5.6 14.5-13 14.6l-139.1 2.3-102.1 1.6c-4.8 0.1 10.3-40.6 10.6-305.7 0.1-59.2 86.3-122.9 87.9-122.9v0.1c0 8.5 12.6 24.2 32.1 25.6 23.1 1.6 51.5-10.6 51.5-24.8 0-0.1 2.6 3 7 9.6 11.5 17.9 34.7 61.4 49.6 137.2 11.7 59.9 7.2 139.9 15.6 243.1 0.6 7.5-0.3 14.1-0.1 19.3z"/><path class="v" d="m3029.4 1443.5c0 0-18.4 8.8-53 16.4-25.7 5.7-60.3 10.7-102.8 11-67.6 0.5-93.2-24.3-93.2-24.3-4.8 0.1 10.3-40.6 10.6-305.7 0.1-59.2 86.3-122.9 87.9-122.9v0.1c0 0-2.2 78.8 20.2 101.9 0 0 31.5-25.8 72.3-99.3 11.5 17.9 32.8 69.2 47.7 145 3 15.4 4.9 32.2 6.3 50.3 3.9 52.3 3 116.2 9.3 192.8 0.6 7.5-0.3 14.1-0.1 19.3 0.3 7.9 2.3 15.3-5.2 15.4z"/><path class="m" d="m3029.4 1443.5c0 0-18.4 8.8-53 16.4-10.9-17.6-24.6-49.4-26.5-99.5-3.2-84.8 72.6-194 72.6-194l2.9 49.6c3.9 52.3 3 116.2 9.3 192.8 0.6 7.5-0.3 14.1-0.1 19.3 0.3 7.9 2.3 15.3-5.2 15.4z"/><path class="j" d="m2963.8 1156.4l-129.2 79.3 102.3 188.3 129.2-79.3z"/><path class="h" d="m3044.3 1046.5c-15.8-12.7-53-21.7-71.3-25.5-6.4-1.4-10.5-2.1-10.5-2.1 1.9 9.4 6.1 24 11.8 41.6 23.5 73.8 70 199.2 60.6 201.9-7.6 2.1-17.4 4.1-28.1 5.7-40.9 6.4-95.8 9.2-101.6 9.5-0.4-0.5-20-19.9-27.6-19.9-7.7 0-30 8.6-32.2 15.3-2.3 6.6-3.2 18.5 3.1 21.1 6.4 2.7 32.7 9.3 39.5 10 0.9 0.1 2.1 0.1 3.3-0.1 48.9 15.3 90.9 22.8 123.4 26.4 45.2 4.9 71.6 2.1 71.6 2.1 32.8-74.9-20.6-268.8-42-286z"/><path class="v" d="m3086.3 1332.5c0 0-26.4 2.8-71.6-2.1 2.4-13.1 4.8-38.6-7.9-62.3 10.7-1.6 20.5-3.6 28.1-5.7 9.4-2.7-37.1-128.1-60.6-201.9-1.9-23.8-2.9-39.8-2.9-39.8l1.6 0.3c18.3 3.8 55.5 12.8 71.3 25.5 21.4 17.2 74.8 211.1 42 286z"/><path class="m" d="m2899.1 1120c0 0 62.9-29.4 63.9-31.8 0.9-2.3-3.1-20.1-7.5-25.4 0 0 30.2 2.9 32.1-1 1.9-4 3.3-36.7 3.3-36.7 0 0-12.6-13.8-28.2-15.1 0 0-13.7 36.1-18.7 46.8-13.4 28.5-44.9 63.2-44.9 63.2z"/><path class="m" d="m2884.2 1061.8c0 0 4 34.4 14.9 58.2 0 0-32.9-24.3-35.7-32.2-2.8-8 8-23.4 8-23.4 0 0-19.6-0.5-20.1-7.4-0.5-7 6.1-34.3 6.1-34.3 0 0 16.8-13.1 21.5-12.6z"/><path class="m" d="m2990.7 871.6l-139.8 1.5c0 0-2-44.7 22.2-73.3q1.7-2 3.5-3.8c5.2-5.3 11.5-9.9 19.1-13.2 27.9-12.4 51.1-1 65.6 10.7q2.1 1.8 4 3.5c7.9 7.1 12.3 13.4 12.3 13.4 0 0 13.5 19.7 13.1 61.2z"/><path class="n" d="m2951.4 872c-0.3-6-2.8-57.4 14.2-74.8-1.3-1.1-0.9-0.9-2.4-2-18.1 20-19.5 70.5-19.4 76.9l-44.7 0.5c-1.3-36.4-20.2-72.6-22.5-76.6-1.2 1.2-1.5 1.5-2.6 2.8 3.3 6.1 15.7 41.2 16.8 73.9l-39.9 0.4c0 0 37.3 10.3 65.3 9.9 28-0.4 74.5-11.4 74.5-11.4z"/><path class="a" d="m1951.2 1096.8c-174.7-57.6-235.7-864.2-1011.8-460.9-308.7 160.4-753.1-33.7-1178.7 72.4-390.9 97.4-399.9 378.4-350.4 479.6 54 110.5-161.4 242.7-381.9 333.4-346 142.4-91.6 642.8 235.2 645.2 326.9 2.4 2727.9-4.8 2727.9-4.8 0 0 653.4-836.2-40.3-1064.9z"/><path fill-rule="evenodd" class="b" d="m889.2 987.5v11.9c0 6.6-5.4 12-12 12h-38.5c-6.6 0-12-5.4-12-12v-11.9c0-6.6 5.4-12 12-12h18.7l-91.5-98.5h-328.4v1285.4h-79.8v-1285.4h-67.8v28c0 6.5-5.4 11.9-12 11.9h-101.8c-6.6 0-12-5.4-12-11.9v-69.9c0-6.6 5.4-12 12-12l-2-2.9 203.1-137 486.4 146.6-1 3.3v40.4l3.5 0.3v101.7h11.1c6.6 0 12 5.4 12 12zm-706.9-164.4h95.6c5.9 0 10.8 4.4 11.8 10h560.8l-472.1-142.2zm593.1 53.8l83.6 90.1v-86.9l-36.1-3.2z"/><path class="n" d="m694.5 2162.2h-351.2c16.9-12.5 77.6-56 132.6-79.5 22.8-9.8 44.6-16.1 61.9-15.3 54.8 2.5 131.7 71.1 156.7 94.8z"/><path class="u" d="m582.9 2162.2h-351.2c23.9-17.7 135.4-97.4 194.4-94.8 15.4 0.7 32.6 6.6 49.8 15.3 44.2 22.2 89 62.4 107 79.5z"/><path class="d" d="m1160.8 927.7h333.4v210h-333.4z"/><path class="d" d="m1160.8 1312.3h333.4v210.1h-333.4z"/><path class="d" d="m1160.8 1692h333.4v210h-333.4z"/><path class="e" d="m2195.5 1903.3h-62.1v-194.3h-512.2v-976.5h-127.2v1434.5h127.2v-0.8h512.2 62.1z"/><path class="f" d="m2409.5 2167h-2343.7c-1.3 0-2.3-1-2.3-2.3 0-1.3 1-2.3 2.3-2.3h2343.7c1.2 0 2.3 1 2.3 2.3 0 1.3-1.1 2.3-2.3 2.3z"/><path class="w" d="m1521 1628.6c-8.9 2.1-49.2 2.6-77.4-3.8-5.9-1.3-11.3-2.9-15.7-4.9-5.3-2.3-9.3-5.2-11.4-8.6-3.2-5.3-9-23.5-15.9-47.4-18.9-65.7-45.5-174.4-45.5-174.4 0 0 53.4 10.9 64.7 20.2 11.4 9.3 21.3 157 32 161 1.5 0.6 4.2 1.9 7.7 3.6q0.3 0.1 0.5 0.2c2.1 1 4.4 2.2 6.9 3.5 22.1 11.4 58.6 31.8 62.4 36.3 5 6 4.6 11.3-8.3 14.3z"/><path class="x" d="m1412.4 1473.6q0-3.8-0.7-7.5c-6.9-37.9-61.5-76.6-62.6-76.6v0.8c0 5.8-9.1 16.5-23.1 17.4-16.7 1.1-37.2-8.4-37.2-18-0.1 0-9.4 1.2-12.5 1.6-13.4 1.5-40 8.7-51.4 17.3-10.8 8.2 4.5 59.9 14 96.5 4 15.4 7 28.2 6.5 33.9-0.3 2.7-2.7 40.3-5 74.3-1.8 28-3.5 53.6-3.5 55.2-0.1 3.2 15.7 14.3 42.3 22.7 6.4 2.1 13.4 3.9 21 5.5 13.7 2.8 29.1 4.6 45.9 4.5q8.2 0 15.6-0.7c38-3.8 51-47 50.7-226.9z"/><path class="h" d="m1294.8 1389.2c-0.3-14.7-0.1-32.2 1.9-47l58.6 9.6c0 0 0.1 17.9-0.2 37.7 0 0 1.6 18.4-21.1 21.1-22.7 2.7-39.8-7.2-39.2-21.4z"/><path class="g" d="m1343.8 2165.4c-7.4-4.5-3-38.1-3-38.1 0 0 34.5-27.4 39.1-6.3 4.7 21.1 32.6 30.6 48.5 33.3 11 1.8 15.1 7.5 16.1 11.1z"/><path class="g" d="m1290.1 1587.4c0 56.2-27.2 41-43.7 25.9 2.3-34 3.8-154.3 3.8-154.3 0 0 39.9 47.9 39.9 128.4z"/><path class="g" d="m1466.9 1578c-1.1 7.9-13.5 30.9-23.3 46.8-5.9-1.3-11.3-2.9-15.7-4.9-5.3-2.3-9.3-5.2-11.4-8.6-3.2-5.3-9-23.5-15.9-47.4 5.1-29.3 9.9-58.4 9.9-58.4l1.5-19.4c0 1.5 22.8 87 33.1 89 6.2 1.2 10.7-0.3 14.4-0.8q0.3 0.1 0.5 0.2c2.1 1 4.4 2.2 6.9 3.5z"/><path class="g" d="m1238 2165.4c-7.3-4.5-3-38.1-3-38.1 0 0 34.5-27.4 39.2-6.3 4.6 21.1 32.6 30.6 48.5 33.3 10.9 1.8 14.9 7.5 16 11.1z"/><path class="g" d="m1289.2 1325.3c0 0-39.1-61.7 36-65.8 0 0 28.2 3.3 34.6-3.1 0 0 21.8 33.3 1.4 68.9-20.4 35.6-72 0-72 0z"/><path class="h" d="m1353.6 1357.5c-5.7 4.5-22.4 8.9-27.3 9.4 0 0-24.7-5.5-29.2-8.2-7-4.2-6.6-12.8-6.9-24.7-0.4-14.1-1.9-25.1-0.3-33.2 1.9-9.7 8-15.3 25.3-16.8 31.6-2.7 44.8 5.2 45.3 15.8q0.2 4.3 0.4 8.2c1.3 33-1.4 44.8-7.3 49.5z"/><path class="g" d="m1361.2 1318.8c-0.3 19.2-5.5 30.5-9.2 31.9-4.3 1.7-9.4 3.1-14.7 4-1.8 0.2-3.5 0.1-3.5-0.9 0.1-3 4.1-6.7 1.1-9.4-3.1-2.8-20-3.8-21.4 2.3-0.6 3 4.8 8.3 1.1 8.4q-1.7-0.3-3.3-0.7c-6.2-1.6-11-4.5-13.1-5.7-6.9-4.2-6.5-10.7-8-22.5-1-7.6-1-3.5 0 7.8 1 11.9-1 19.5 6.9 24.7 4.4 2.9 29.6 14.2 29.6 14.2-0.4-6 21.2-10.9 26.9-15.4 5.2-4.2 7.9-13.8 7.6-38.7z"/><path class="g" d="m1311.2 1983.4c4.3 67.4 22.1 153.7 28.5 157.3 12.6 7.3 35.6 0 47.3-1.7 4.8-0.7 8.7-4.8 8.5-9.7-5.8-111.9 10.6-267.7 22.9-363.5q0.5-3.8 0.9-7.4c1.5-11.3 2.5-21.8 3.1-31.3-5.8-38-38.7-40.1-68.6 38.5 3.7 26.1-43.6 202.3-42.6 217.8z"/><path class="j" d="m1241.7 1897.2c-0.9 7.8-10.1 26.3-11.2 30.7-15 60.7-6.7 204.5 0.8 210.2 11.5 8.9 35.3 4.7 47.1 4.5 4.9-0.1 9.3-3.6 9.7-8.5 9.2-114.6 47.6-272 72.4-364.5 12.4-46.7 14.2-80.9 14.2-80.9 0 0-115.5-70.8-128-32.1-11 34.2 1.9 180.7-5 240.6z"/><path class="m" d="m1359.3 1242.2q-1.2-1.3-2.6-2.6c-3.7-3.5-8.3-6.6-13.7-8.9-20.2-8.4-36.9-0.6-47.3 7.3q-1.5 1.2-2.9 2.3c-5.7 4.8-8.8 9.1-8.8 9.1 0 0-9.8 13.4-9.5 41.5l100.7 1.1c0 0 1.5-30.4-15.9-49.8z"/><path class="n" d="m1302.8 1291.2l5.5 0.1c0.1-1.6-0.1-38.2-13.8-52.4-1 0.8-0.8 0.6-1.7 1.4 13 12.5 10 50.5 10 50.9z"/><path class="n" d="m1346.6 1291.7c1.1-22.4 9.7-45.9 12-50.1-0.8-0.9-1-1.1-1.9-2-1.6 2.8-14.7 27.2-16.1 52l-66.1-0.7c0 0 33.5 7.5 53.7 7.8 20.2 0.2 47-6.7 47-6.7z"/><path class="j" d="m1278.3 1391.8c0 0 34.1 39.7 36 74.3l-17.3 0.9c0 0-4.4-38.6-30-72.8 0 0 4-1 5.4-1.3 1.8-0.3 5.9-1.1 5.9-1.1z"/><path class="j" d="m1363.2 1391.3c24.3 36.9 27 75.5 27 75.5l17.5-0.3c-1.5-27.2-18.6-57.1-28-71.3 0 0-12.1-3-16.5-3.9z"/><path class="m" d="m1325.2 1771.8h-14.1c-6.5-3-41.7-18.2-75.5-18.4-24.4-0.2-52.2 18.1-53.9 18.3-4.2 0.5 14.1 0.6 14.1 0.6 0 0 27.6-12.1 39.9-12.4 11.8-0.3 38 8.3 48.5 11.9h-78.8c-6.6 0-11.9 5.4-11.9 11.9v89.9c0 6.6 5.3 11.9 11.9 11.9h119.8c6.6 0 11.9-5.3 11.9-11.9v-89.9c0-6.5-5.3-11.9-11.9-11.9z"/><path class="n" d="m1154.5 1782.8c0-6.1 5-11 11-11h121.7c6.1 0 11 4.9 11 11v91.7c0 6.1-4.9 11-11 11h-121.7c-6 0-11-4.9-11-11z"/><path class="y" d="m1251.1 1604.7c0.8 40.5-4.2 121.4-4.2 121.4h-24c-11.3-56.9-15.3-93.5-15.3-113.4q0-5.9 0.1-11c0.1-17.1 0.6-27 0.6-27-4.5-103.2 16.1-158.5 22.6-166.1 6.5-7.6 36.1-14.4 36.1-14.4 0 0 9.8 28.5 13.8 51.5 4 22.9-31.4 119.4-29.9 152.3q0.1 3.1 0.2 6.7z"/><path class="r" d="m1539 1635.3c0-1.7 1.4-3 3-3h20.4c1.7 0 3 1.3 3 3v528.5c0 1.6-1.3 3-3 3h-20.4c-1.6 0-3-1.4-3-3z"/><path class="j" d="m1561.9 1632.3h-19.4c-1.9 0-3.5 1.6-3.5 3.5v16.3h26.4v-16.3c0-1.9-1.6-3.5-3.5-3.5z"/><path class="j" d="m1539 2163.3c0 1.9 1.6 3.5 3.5 3.5h19.4c1.9 0 3.5-1.6 3.5-3.5v-14.1h-26.4z"/><path class="n" d="m1552.4 1666.9c-1.1 0-2 0.8-2 1.9v464.3c0 1.1 0.9 2 2 2 1.1 0 2-0.9 2-2v-464.3c0-1.1-0.9-1.9-2-1.9z"/><path class="h" d="m1246.9 1726.1c0 0 5-80.9 4.2-121.4-19.2-6.2-34.6-4.9-43.4-3q-0.1 5.1-0.1 11c0 19.9 4 56.5 15.3 113.4-5 21-4.6 43.6 4 47.6 8.7 4 37.3-11 36.9-17.7-0.3-6.6-16.9-29.9-16.9-29.9z"/><path class="h" d="m1574.5 1632.6c-2.3-8.5-4-13.3-9.9-17.4-8.6-6.1-18.7-4.5-26.3-3.1-5.8 1-11.9-0.9-14.4-1.9-13.4-9-47.1-27.4-63.9-35.7-11.4 6.7-25.5 19.8-32.1 45.4 25.8 11.4 82.3 11.2 93.1 8.7 0 0 9.9 7.3 17.5 7.9 2.9 0.3 6.5-0.6 9.9-1.7 5.3-1.8 11 0 14.8 4.7 3.7 4.6 8.5 7.1 10.5 7.1 3.1 0 2.3-8.6 0.8-14z"/><path class="m" d="m138.8 1744.5c0-6.1 4.9-11 11-11h121.7c6.1 0 11 4.9 11 11v91.8c0 6.1-4.9 11-11 11h-121.7c-6.1 0-11-4.9-11-11z"/><path class="n" d="m177.7 1744.5c0-6.1 5-11 11-11h121.7c6.1 0 11 4.9 11 11v91.8c0 6.1-4.9 11-11 11h-121.7c-6 0-11-4.9-11-11z"/><path class="m" d="m163.8 1734c0 0 28.4-20.9 32.6-20.4 4.3 0.5 11 2 11 2l-25.4 19.2z"/><path fill-rule="evenodd" class="z" d="m418.5 1597c0 0-16.6 2.8-45.4 0.3 0.7 16.7 1.6 33.4 3.2 52.4 0.5 5.1-0.2 9.6-0.1 13.1 0.2 3.2-15.7 14.3-42.2 22.8-6.5 2-13.5 3.9-21.1 5.4-13.6 2.8-29.1 4.7-45.9 4.6q-8.2-0.1-15.6-0.8c-37.9-3.7-58.4-19.5-58.4-19.5-3.4 0.1 7.5-27.5 7.7-207.4q0-3.7 0.7-7.5c6.9-37.8 61.6-75.8 62.6-75.8 0 5.8 9.2 16.5 23.2 17.4 16.6 1.1 37.1-7.2 37.1-16.8 0.1 0 9.4 0.1 12.6 0.4 13.3 1.5 39.9 8.7 51.3 17.4 15.5 11.6 54 143.1 30.3 194zm-50.6-94.9c0.8 6.5 1.5 13.4 2 20.5 0.6 8.5 1 17.5 1.4 26.9q0.1 1.1 0.1 2.1 2.3-0.4 4.4-0.9 3.1-0.6 5.7-1.3c3.3-0.9-3.7-21.1-13.6-47.3z"/><path class="h" d="m264 1384.6c0 0-42.2 6.4-60.4 21.6-18.2 15.2-20 111.7-26.1 139-1.2 5.3-2.2 14-3.2 24.5-3.2 37 0.7 88.4 3.9 107.4 0.4 4.5 0.2 11.2-2.5 17.9-4.6 11.6-5.6 14.9 2.7 21.6 8.3 6.6 17.3 16 23.6 13.3 4.9-2.1 4-34.4 3.4-49.1 7.3-31.3 19.1-90.2 30.2-147.3 14.8-76 28.4-148.9 28.4-148.9z"/><path class="A" d="m264 1384.6c0 0-7.8 42-18.1 95.5-3.2 17-6.7 35.1-10.3 53.4-14.5 28.5-27 47.9-30.9 44.3-7.8-7.5-21.6-8.4-30.3-8.1 0.9-10.5 1.9-19.2 3.1-24.5 0.5-2.2 1-4.8 1.4-7.7 5.1-34.4 8-117.3 24.7-131.3 8.8-7.3 23.3-12.6 35.8-16.1h0.1c6.4-1.8 12.3-3.1 16.7-4 4.8-1 7.8-1.5 7.8-1.5z"/><path class="m" d="m204.7 1577.8c-7.8-7.5-21.6-8.4-30.4-8.1 1-10.5 2-19.2 3.2-24.5 0.5-2.2 1-4.8 1.4-7.7l43.6-105.2c0 0-13.9 149.1-17.8 145.5z"/><path class="h" d="m324.4 1383.6c0.3-14.7 0-32.3-1.9-47.1l-58.7 9.6c0 0 0 17.9 0.3 37.8q-0.1 0-0.1 0c0 0-1.6 18.4 21.1 21.1 22.7 2.7 39.9-7.2 39.3-21.4z"/><path class="g" d="m275.3 2162.4c7.4-4.5 3.1-38.4 3.1-38.4 0 0-34.5-27.4-39.2-6.3-4.7 21.1-32.6 30.7-48.5 33.3-11 1.8-14.3 7.9-15.4 11.5z"/><path class="m" d="m375.8 1550.8c0 0-11 14.8-13.2 14.8-2.3 0-30-10.7-22-34.7 7.9-24 27.3-28.8 27.3-28.8 0.8 6.5 1.5 13.4 2 20.5 0.6 8.5 1 17.5 1.4 26.9q0.1 1.1 0.1 2.1 2.3-0.4 4.4-0.9z"/><path class="g" d="m381.1 2162.4c7.4-4.5 3-38.4 3-38.4 0 0-34.5-27.4-39.1-6.3-4.7 21.1-32.6 30.7-48.5 33.3-11 1.8-14.4 7.9-15.4 11.5z"/><path class="b" d="m329.9 1319.6c0 0 39.2-61.7-36-65.8 0 0-28.1 3.4-34.5-3 0 0-21.9 33.2-1.5 68.8 20.5 35.6 72 0 72 0z"/><path class="h" d="m265.6 1351.8c5.7 4.5 22.4 9 27.2 9.5 0 0 24.8-5.5 29.3-8.3 6.9-4.2 6.5-12.7 6.9-24.6 0.4-14.1 1.8-25.2 0.2-33.3-1.8-9.7-8-15.2-25.2-16.7-31.7-2.8-44.8 5.2-45.4 15.8q-0.2 4.2-0.4 8.1c-1.2 33.1 1.4 44.8 7.4 49.5z"/><path class="b" d="m258 1313.1c0.3 19.2 5.4 30.6 9.2 32 4.3 1.6 9.4 3 14.6 3.9 1.8 0.2 3.5 0.2 3.5-0.9 0-3-4.1-6.7-1.1-9.4 3.2-2.8 20.1-3.7 21.4 2.4 0.7 3-4.8 8.3-1 8.4q1.7-0.3 3.3-0.7c6.1-1.6 11-4.5 13-5.8 7-4.2 6.5-10.7 8-22.5 1-7.6 1-3.5 0 7.9-1 11.8 1 19.4-6.8 24.6-4.4 2.9-29.7 14.3-29.7 14.3 0.4-6-21.1-11-26.8-15.5-5.3-4.1-8-13.7-7.6-38.7z"/><path class="j" d="m376.2 1662.8c0.2 3.2-15.7 14.3-42.2 22.8q-3.2 1-6.7 1.9 0 0.1 0 0.1c-2.5 29.1-9.2 70.2-15.3 109.8q0 0 0 0.1c-1.5 10.2-3.1 20.4-4.4 30.3-3.7 26-6.5 49.8-6.8 66.9v0.2c-0.1 7.8 6.5 27.4 7 31.9q0.4 4.1 0.7 8.7c0.7 12.3 0.4 26.8-0.5 42.2-4.4 67.4-22.2 153.7-28.5 157.4-12.7 7.3-35.7 0-47.4-1.7-4.8-0.8-8.7-4.9-8.4-9.8 5.7-111.9-10.7-267.7-23-363.5q-0.4-3.7-0.9-7.3c-1.5-11.3-2.4-21.9-3-31.4-0.6-8.3-0.9-15.9-1-22.5q0-3-0.1-5.8c0-6 4.8-45.3 5-225.2 0-4.1 3.4-7.5 7.6-7.5h109.9c10.7 0 19.2 8.7 19.1 19.3-0.2 13.7 0.3 32.9 3.3 51.2 4 25 12.7 48.3 30.7 53.9q0 0 0 0c0.1 0.2 0.6 1.3 1.4 3.1q0 0 0 0.1 0.2 6.7 0.6 13.8 0 1.4 0.1 2.8 0 0.8 0.1 1.7 0 1.4 0.1 2.8 0.1 2.4 0.2 4.8 0.2 1.9 0.3 3.8 0.2 3.6 0.4 7.4 0.1 1.2 0.1 2.4 0.4 4.8 0.7 9.7 0.1 1.5 0.3 3.1 0 0.7 0.1 1.4 0.1 1.9 0.3 3.9 0.1 2 0.3 4.1c0.5 5.1-0.2 9.6-0.1 13.1z"/><path class="g" d="m308 1977.7c-4.4 67.4-22.2 153.7-28.5 157.4-12.7 7.3-35.7 0-47.4-1.7-4.8-0.8-8.7-4.9-8.4-9.8 5.7-111.9-10.7-267.7-23-363.5q-0.4-3.7-0.9-7.3c-1.5-11.3-2.4-21.9-3-31.4 5.8-38 38.7-40 68.5 38.6 12.8 30.4 43.6 202.3 42.7 217.7z"/><path class="j" d="m377.5 1891.5c0.9 7.8 10 26.3 11.1 30.7 15.1 60.7 6.7 204.5-0.7 210.2-11.6 8.9-35.4 4.7-47.2 4.6-4.8-0.1-9.2-3.7-9.6-8.6-9.3-114.5-47.7-271.9-72.4-364.5-12.5-46.6-14.2-80.9-14.2-80.9 0 0 115.5-70.8 127.9-32.1 11.1 34.2-1.9 180.8 5.1 240.6z"/><path class="m" d="m335.2 1243.8c0 0-3.2-4.3-8.9-9.1q-1.3-1.2-2.9-2.4c-10.4-7.9-27.1-15.7-47.2-7.3-5.5 2.3-10 5.4-13.8 9q-1.3 1.2-2.5 2.6c-17.5 19.4-16 49.7-16 49.7l100.7-1c0.3-28.2-9.4-41.5-9.4-41.5z"/><path class="n" d="m316.3 1285.5c0-0.3-2.9-38.3 10-50.8-0.9-0.8-0.7-0.7-1.7-1.4-13.6 14.1-13.9 50.7-13.8 52.3z"/><path class="n" d="m278.6 1286c-0.9-24.7-14.6-49.3-16.2-52-0.9 0.8-1.1 1-1.9 1.9 2.4 4.1 11.3 27.9 12.1 50.1l-28.7 0.3c0 0 26.8 7 47 6.7 20.2-0.2 53.7-7.7 53.7-7.7z"/><path class="j" d="m340.8 1386.2c0 0-34 39.6-36 74.2h17.3c0 0 4.4-37.6 30-71.9z"/><path class="j" d="m256.2 1386.1c-24.4 36.9-27.2 74.3-27.2 74.3h-17.3c1.4-27.2 18.3-56.2 27.7-70.3h0.1c6.4-1.8 12.3-3.1 16.7-4z"/><path fill-rule="evenodd" class="b" d="m424 1656.7c-3.4 6.6-7.6 12.2-12.5 16.7-7.8 7.3-17.3 11.9-28 13.6q-5.1 0.9-10.6 0.9-1.8 0.3-3.7 0.5-1 0.1-2 0.2-1.1 0.1-2.3 0.2c-4.9 1.5-10.1 2.2-15.5 2.2q-1.9 0-3.7-0.1-1.9 0.1-3.7 0.1c-5.8 0-11.8-0.8-18-2.6q0 0-0.1 0-2.3-0.7-4.8-1.5-4.3-1.5-8.6-3.6c-29.9-14-59.4-48.3-58.1-86.7 1.6-48.4 29.1-152 58.6-198.6q0 0 0.1-0.1c3.1-4.8 6.2-9.1 9.3-12.6q0.5-0.6 1.1-1.2c5.6-6 11-9.2 16.1-9.7q2.5-0.9 5-0.9 1.1 0 2.5 0.3 1.2-0.2 2.3-0.3c5-0.2 12.7 3.7 23.4 20.7q0.1 0.1 0.1 0.1-1.4-0.5-2.7-1-1.3-0.4-2.6-0.9-1.2-0.4-2.4-0.8-1.1-0.3-2.1-0.6-1.8-0.5-3.5-1-0.4-0.1-0.7-0.2-0.1 0-0.2 0-1.5-0.5-2.9-0.8-3-0.8-5.9-1.4 0-0.1 0-0.1c-1.7-2.1-3.1-3.4-4.3-4.3q-0.7-0.6-1.3-0.9-2.1 1.3-4.2 3.5 0 0 0 0-1.1 1-2.1 2.3-0.6 0.6-1.1 1.4 0 0 0 0-0.5 0.6-1 1.3c-18.3 25.5-33.3 89.8-40.2 145.3-3.5 28.1-5 54-3.6 71.3 1.8 24.5 20.9 54.3 54.2 67.5q4.1 1.6 8.4 2.9 0.5 0.1 0.9 0.2 0.1 0 0.1 0 0.5 0.2 1 0.3 3.5 1 7 1.5c7.6-3.4 14.1-9 19.4-16.7 8.3-12.3 12.8-34.7 13.1-64.8q3 0.1 5.7 0c-0.3 35.8-6.3 55.6-12.7 66.5q0.6-0.9 1.2-1.7c8.4-12.3 12.8-34.7 13.1-64.8q3.2-0.1 5.8-0.3c-0.3 39.3-7.5 59.4-14.5 69.6q-3.3 4.8-7.2 8.6c8.3-4.3 15.2-11.1 20.2-20.2 6.8-12.1 9.6-32.2 8.4-58.5 2.9-0.3 4.3-0.5 4.3-0.5q0.7-1.5 1.3-3c2 35.9-3.4 55.4-9.2 65.9-3 5.4-6.6 10-10.6 14 7.9-4.7 14.4-11.8 19.1-20.9 7.6-14.8 9.3-40.9 5-75 1.3-7.6 1.9-16.1 1.9-25.1 3.4 18.6 5.2 34.3 5.9 47.5 1.5 29.6-2.9 46.6-7.9 56.3zm-149.8-11.8c-9.3-14.2-15-30.8-14.4-48.3 1.3-41.7 21.9-124.2 46.4-176.1q1.4-3.5 2.8-6.8c-26 49.2-49.4 140.3-50.9 183.2-0.5 14.7 4.9 32.3 16.1 48zm48.2 33c-25.5-13.9-48.4-40.6-49.9-72.8-1.1-25.4 3.6-66.8 12-107.6-10.8 37.7-18.2 75.9-19 99.4-0.9 26.6 17.5 62.5 54.4 79.9q1.2 0.6 2.5 1.1zm0.9-7c-20.4-14.1-36.9-36.3-38.9-62.8-1.2-14.8-0.4-35.1 1.8-57.6 4.3-43.5 14.2-95.3 27.5-131.6q-1.2 2.3-2.3 4.8c-2.1 5.3-4.1 11-6 17-17.2 53.1-28.8 127.2-27.2 164 1.1 22.7 16.7 50.6 45.1 66.2z"/><path class="h" d="m375.8 1550.8c-0.9 0.1-18.6 3.3-19.6 3.5-29.4 4.3-69.1 6.2-73.2 6.4-0.4-0.4-14.4-13.5-19.9-13.5-5.6 0-21.6 5.9-23.2 10.4-1.7 4.4-2.3 12.5 2.3 14.3 4.5 1.8 23.5 6.3 28.4 6.8 0.7 0 1.5 0 2.4-0.1 35.2 10.4 65.5 15.5 88.9 17.9 2.1 0.2 14.1 1.8 24.8 1.7-0.4-20.4-7.2-39.2-10.9-47.4z"/><path fill-rule="evenodd" class="B" d="m1002.3 1131v24.8h16.9v7.8h-16.9v24.8h16.9v7.8h-16.9v24.8h16.9v7.8h-16.9v24.8h16.9v7.8h-16.9v24.9h16.9v7.7h-16.9v20.1h16.9v7.7h-16.9v24.9h16.9v7.8h-16.9v24.8h16.9v7.8h-16.9v24.8h16.9v7.8h-16.9v24.8h16.9v7.8h-16.9v24.8h16.9v7.8h-16.9v23.7h16.9v7.7h-16.9v24.9h16.9v7.7h-16.9v24.9h16.9v7.7h-16.9v24.9h16.9v7.8h-16.9v24.8h16.9v7.8h-16.9v24.8h16.9v7.8h-16.9v20.1h16.9v7.7h-16.9v24.9h16.9v7.7h-16.9v24.9h16.9v7.7h-16.9v24.9h16.9v7.7h-16.9v24.9h16.9v7.7h-16.9v24.9h16.9v7.7h-16.9v22.2h16.9v7.8h-16.9v24.8h16.9v7.8h-16.9v24.8h16.9v7.8h-16.9v24.8h16.9v7.8h-16.9v24.8h16.9v7.8h-16.9v24.8h16.9v7.8h-16.9v20.1h16.9v7.7h-16.9v24.9h16.9v7.7h-16.9v24.9h16.9v7.7h-201.2v-7.7h18.6v-24.9h-18.6v-7.7h18.6v-24.9h-18.6v-7.7h18.6v-20.1h-18.6v-7.8h18.6v-24.8h-18.6v-7.8h18.6v-24.8h-18.6v-7.8h18.6v-24.8h-18.6v-7.8h18.6v-24.8h-18.6v-7.8h18.6v-24.8h-18.6v-7.8h18.6v-22.2h-18.6v-7.7h18.6v-24.9h-18.6v-7.7h18.6v-24.9h-18.6v-7.7h18.6v-24.9h-18.6v-7.7h18.6v-24.9h-18.6v-7.7h18.6v-24.9h-18.6v-7.7h18.6v-20.1h-18.6v-7.8h18.6v-24.8h-18.6v-7.8h18.6v-24.8h-18.6v-7.8h18.6v-24.9h-18.6v-7.7h18.6v-24.9h-18.6v-7.7h18.6v-24.9h-18.6v-7.7h18.6v-23.7h-18.6v-7.8h18.6v-24.8h-18.6v-7.8h18.6v-24.8h-18.6v-7.8h18.6v-24.8h-18.6v-7.8h18.6v-24.8h-18.6v-7.8h18.6v-24.9h-18.6v-7.7h18.6v-20.1h-18.6v-7.7h18.6v-24.9h-18.6v-7.8h18.6v-24.8h-18.6v-7.8h18.6v-24.8h-18.6v-7.8h18.6v-24.8h-18.6v-7.8h18.6v-24.8h-18.6v-7.8h18.6v-51h14v51h35.5v-51h14v51h38.6v-51h14v51h35.5v-51h14.1v51h16.9v7.8zm-102.1 24.8h38.6v-24.8h-38.6zm0 960h38.6v-24.8h-38.6zm0 32.6h38.6v-24.9h-38.6zm0-65.2h38.6v-20.1h-38.6zm0-27.9h38.6v-24.8h-38.6zm0-32.6h38.6v-24.9h-38.6zm0-32.6h38.6v-24.9h-38.6zm0-32.6h38.6v-24.9h-38.6zm0-32.6h38.6v-24.8h-38.6zm0-32.6h38.6v-22.2h-38.6zm0-29.9h38.6v-24.9h-38.6zm0-32.6h38.6v-24.9h-38.6zm0-32.6h38.6v-24.8h-38.6zm0-32.6h38.6v-24.9h-38.6zm0-32.6h38.6v-24.9h-38.6zm0-32.6h38.6v-20.1h-38.6zm0-27.9h38.6v-24.8h-38.6zm0-32.6h38.6v-24.9h-38.6zm0-32.6h38.6v-24.9h-38.6zm0-32.6h38.6v-24.8h-38.6zm0-32.6h38.6v-24.9h-38.6zm0-32.6h38.6v-23.7h-38.6zm0-31.5h38.6v-24.9h-38.6zm0-32.6h38.6v-24.8h-38.6zm0-32.7h38.6v-24.8h-38.6zm0-32.6h38.6v-24.9h-38.6zm0-32.6h38.6v-24.9h-38.6zm0-32.6h38.6v-20.1h-38.6zm0-27.8h38.6v-24.9h-38.6zm0-32.6h38.6v-24.9h-38.6zm0-32.6h38.6v-24.8h-38.6zm0-32.7h38.6v-24.8h-38.6zm-49.6-32.6h35.6v-24.9h-35.6zm0 32.6h35.6v-24.8h-35.6zm0 32.6h35.6v-24.9h-35.6zm0 32.6h35.6v-24.9h-35.6zm0 32.6h35.6v-24.8h-35.6zm0 27.8h35.6v-20.1h-35.6zm0 32.6h35.6v-24.9h-35.6zm0 32.6h35.6v-24.8h-35.6zm0 32.6h35.6v-24.9h-35.6zm0 32.6h35.6v-24.8h-35.6zm0 32.6h35.6v-24.9h-35.6zm0 31.5h35.6v-23.8h-35.6zm0 32.6h35.6v-24.8h-35.6zm0 32.6h35.6v-24.9h-35.6zm0 32.6h35.6v-24.8h-35.6zm0 32.6h35.6v-24.9h-35.6zm0 32.6h35.6v-24.9h-35.6zm0 27.9h35.6v-20.1h-35.6zm0 32.6h35.6v-24.9h-35.6zm0 32.6h35.6v-24.9h-35.6zm0 32.6h35.6v-24.8h-35.6zm0 32.6h35.6v-24.9h-35.6zm0 32.6h35.6v-24.8h-35.6zm0 29.9h35.6v-22.2h-35.6zm0 32.6h35.6v-24.9h-35.6zm0 32.6h35.6v-24.8h-35.6zm0 32.6h35.6v-24.9h-35.6zm0 32.6h35.6v-24.9h-35.6zm0 32.7h35.6v-24.9h-35.6zm0 27.8h35.6v-20.1h-35.6zm0 32.6h35.6v-24.8h-35.6zm0 32.6h35.6v-24.9h-35.6zm102.2 0h35.5v-24.9h-35.5zm0-32.6h35.5v-24.8h-35.5zm0-32.6h35.5v-20.2h-35.5zm0-27.8h35.5v-24.9h-35.5zm0-32.6h35.5v-24.9h-35.5zm0-32.6h35.5v-24.8h-35.5zm0-32.6h35.5v-24.9h-35.5zm0-32.6h35.5v-24.9h-35.5zm0-32.6h35.5v-22.2h-35.5zm0-29.9h35.5v-24.8h-35.5zm0-32.6h35.5v-24.9h-35.5zm0-32.6h35.5v-24.9h-35.5zm0-32.6h35.5v-24.9h-35.5zm0-32.6h35.5v-24.8h-35.5zm0-32.6h35.5v-20.1h-35.5zm0-27.9h35.5v-24.9h-35.5zm0-32.6h35.5v-24.8h-35.5zm0-32.6h35.5v-24.9h-35.5zm0-32.6h35.5v-24.9h-35.5zm0-32.6h35.5v-24.9h-35.5zm0-32.6h35.5v-23.7h-35.5zm0-31.5h35.5v-24.8h-35.5zm0-32.6h35.5v-24.9h-35.5zm0-32.6h35.5v-24.9h-35.5zm0-32.6h35.5v-24.8h-35.5zm0-32.6h35.5v-24.9h-35.5zm0-32.6h35.5v-20.1h-35.5zm0-27.9h35.5v-24.9h-35.5zm0-32.6h35.5v-24.8h-35.5zm0-32.6h35.5v-24.9h-35.5zm0-32.6h35.5v-24.9h-35.5zm0-32.6h35.5v-24.8h-35.5z"/><path class="a" d="m1184.7 658.4h4.9v88.3h-4.9z"/><path class="a" d="m1459.4 658.4h5v88.3h-5z"/><path class="a" d="m1219.4 658.4h4.9v88.3h-4.9z"/><path class="a" d="m1484.2 658.4h5v88.3h-5z"/><path class="j" d="m487.2 1960c-1.5-0.4-3.1 0.6-3.5 2.2l-26.8 116.9c-7.2 0.2-14.6 8.1-17.1 19l-2.5 11.1c-0.1 0.6-0.3 1.3-0.4 1.9l29.8 6.8c0.3-0.5 0.4-1.2 0.6-1.8l2.5-11.2c2.5-10.8-0.7-21.1-7.1-24.4l26.7-117c0.4-1.6-0.6-3.2-2.2-3.5z"/><path class="u" d="m409.4 2110.9c0 0 61.8-16 81.5-3 19.7 13.1-10.1 26.8-10.1 26.8z"/><path class="j" d="m886.3 1405.7c-11.8 36.1-76.1 98.6-85 104.8 0 0-15-24.9-12-38.9 2.4-11.4 27.5-52.1 36.1-72q0.6-1.6 1.1-3c1.2-3 1.8-5.4 1.7-6.8-0.4-4.4-14.1-14.9-29.9-27.5-20.6-16.2-45-35.8-48.9-49.4-7-23.9-31.2-118.8-31.2-118.8 0 0 60.1 13 77.1 28 16.9 15 89.8 139.7 92.8 171.7 0.3 3.4-0.4 7.5-1.8 11.9z"/><path class="h" d="m886.3 1405.7c-11.8 36.1-76.1 98.6-85 104.8 0 0-15-24.9-12-38.9 2.6-12 30.1-56.4 37.2-75 10.7-1.8 35.8-4.1 59.8 9.1z"/><path class="h" d="m718.2 1185.8v7.4c0 0 2 23-26.4 26.4-28.3 3.3-49.7-7-48.9-24.7 2.5-13.8 5.2-25.3 5.4-36.7 0.1-4.2-0.2-8.7-1-13.8l54.9-1.1 16.2 2.7z"/><path class="i" d="m718.4 1146l-0.2 39.8c-5.8 2.7-12.4 4.4-19.8 4.4-25.2 0-41.6-18.5-50.1-32 0.1-4.2-0.2-8.7-1-13.8l54.9-1.1z"/><path class="g" d="m669.8 2162.5c0 0-2.7-20.8-8.9-33.2-6.1-12.3-45.4-4.5-45.4-4.5 0 0-7.9 6.8-9.6 38.2z"/><path class="g" d="m803.7 2162.4c-9.2-5.6-4-47.7-4-47.7 0 0 43.1-34.4 49-8.1 5.9 26.4 40.9 38.2 60.8 41.5 13.7 2.2 18 9.8 19.3 14.3z"/><path class="C" d="m714.6 1851.8c1.7 9.6 2.8 17.6 3.1 23.2 4 78.1 65.7 256.5 76.7 260.7 17.1 6.5 44-7.2 58.1-11.7 5.8-1.9 9.7-7.8 8.4-13.7-30.5-140.5-41.7-342.8-45.8-462.5-2.1-60.3-12.4-102-12.4-102 0 0-150.5-40.2-151.4 10.6-0.8 45 49.8 221.2 63.3 295.4z"/><path class="v" d="m714.6 1851.8l100.5-204c-2.1-60.3-12.4-102-12.4-102 0 0-150.5-40.2-151.4 10.6-0.8 45 49.8 221.2 63.3 295.4z"/><path class="D" d="m748 1556.6l-79.5 576.6c0 0-34.9 8.4-62.1 1.7 0 0-23.3-306.7-21.4-380.8 2-74.1-16.7-198.4 4.3-212.1 21-13.7 158.7 14.6 158.7 14.6z"/><path class="j" d="m807 1557.7c0 0-40.7 23.7-99.5 23-23-0.2-42.9-2-59.9-4.5-47.2-7-71-20.2-70.8-25.1 0.1-4.4 0.4-19.1 1-25.5 7.5-86.5 3.6-153.8 13.7-204.4q0.2-0.9 0.4-1.8c13.3-64.3 34.3-101.2 44.7-116.4 3.8-5.5 6.2-8.1 6.3-8.1 0 12 25.5 22.3 46.3 21 17.6-1.2 29-14.5 29-21.7v-0.1c1.4 0 79.1 54 79.2 104.2 0.3 225 13.9 259.5 9.6 259.4z"/><path class="g" d="m647.7 1575.5q0 0.4-0.1 0.7c-47.2-7-71-20.2-70.8-25.1 0.1-4.4 0.4-19.1 1-25.5 7.5-86.5 3.6-153.8 13.7-204.4 24.8 33.1 75.7 119.9 56.2 254.3z"/><path class="E" d="m777.1 1467.9l-6.4 21.1-6.3 21-273.9-82.4q-0.6 0-1.1-0.2-0.6-0.1-1.1-0.5c-3.4-2.4-4.1-11.4-1.4-21.5q0.2-0.8 0.5-1.7c3.2-10.8 9-18.8 13.5-18.9q0.5 0 1 0.1 0.6 0.2 1 0.5z"/><path class="F" d="m770.7 1489l-6.3 21-273.9-82.4q-0.6 0-1.1-0.2-0.6-0.1-1.1-0.5c-3.4-2.4-4.1-11.4-1.4-21.5 11.2 8.4 64.7 45.6 155.9 63.7 94.4 18.7 123.6 19.9 127.9 19.9z"/><path class="c" d="m777.6 1467.8c-4.6-1.4-11.1 7-14.6 18.8-3.5 11.7-2.5 22.3 2 23.7 4.6 1.3 11.1-7.1 14.6-18.8 3.5-11.8 2.6-22.4-2-23.7z"/><path class="E" d="m504.9 1377.7l-32.3-5.2q-0.5-0.3-1-0.4-0.6-0.1-1.1 0c-4.4 0.7-9.2 9.4-10.9 20.6q-0.2 0.8-0.3 1.7c-0.6 4.9-0.5 9.5 0.2 13.2 0.7 3.9 2.1 6.8 4 7.8q0 0.1 0.1 0.1 0.5 0.3 1.1 0.4 0.5 0.1 1.1 0l282.4 45.8 3.5-21.6 3.5-21.8z"/><path class="F" d="m622.3 1437.1c-60.4-3.9-92.4-35.8-117.4-59.4l-32.3-5.2q-0.5-0.3-1-0.4-0.6-0.1-1.1 0c-4.4 0.7-9.2 9.4-10.9 20.6q-0.2 0.8-0.3 1.7c-0.6 4.9-0.5 9.5 0.2 13.2 1.5 4.3 3 7.2 4 7.8q0 0.1 0.1 0.1 0.5 0.3 1.1 0.4 0.5 0.1 1.1 0l282.4 45.8 3.5-21.6c-4.3 0.5-33.4 3.2-129.4-3z"/><path class="c" d="m755.7 1418.1c-4.7-0.7-10.1 8.5-12 20.6-1.9 12.1 0.4 22.5 5.1 23.2 4.7 0.7 10.1-8.5 12-20.5 1.9-12.1-0.4-22.5-5.1-23.3z"/><path class="h" d="m655.3 1501.2c-65.5-10.4-108.8-37.8-126.6-51.1-6.1-4.6-9.2-7.4-9.2-7.4-33.5-70.6 27.2-194.3 38.3-215.3 12-22.6 85.1-32.5 85.1-32.5 0 0-11.7 34.3-16.3 79.1-4.5 44.8-53.2 132.1-51.2 139.4 0.5 1.8 6.4 5.7 15 10.6 25.4 14.5 74.5 37.8 77.5 43.3 4 7.3-12.6 33.9-12.6 33.9z"/><path class="h" d="m667.9 1467.3c0 0 36.6-14.7 45.6-8.7 8.9 6 23.9 15 23.9 21 0 6-19 21.9-34.9 26.9-16 5-47.3-5.3-47.3-5.3z"/><path class="j" d="m626.6 1274c-4.5 44.8-53.2 132.1-51.2 139.4 0.5 1.8 6.4 5.7 15 10.6q-0.8 0.1-1.7 0c-38.3-1.7-55.6 19.5-60 26.1-6.1-4.6-9.2-7.4-9.2-7.4-33.5-70.6 27.2-194.3 38.3-215.3 12-22.6 85.1-32.5 85.1-32.5 0 0-11.7 34.3-16.3 79.1z"/><path class="h" d="m721.6 1165.3c0 0-70.3 14.2-78.5-29.7-8.2-44-22.8-71.8 21.8-82.7 44.6-11 56.5 4.2 62.8 18.2 6.3 14 12 89.4-6.1 94.2z"/><path class="g" d="m644.5 1148.2c0 0-13.6-29-25-41.9-11.3-12.9-5.1-77.4 43.9-75.3 49 2.1 66.5 37.1 67 43.8 0.5 6.7-39.2 1.6-50 10.4-10.8 8.7-0.5 23.2-12.9 28.3-12.4 5.2-22.2 5.2-20.1 16.5 2 11.4-2.9 18.2-2.9 18.2z"/><path class="m" d="m659.6 1001.1c-14 3.5-24.5 9.1-32.4 15.9q-1.2 1-2.3 2c-29 27.8-17.4 71.9-17.4 71.9 0 0 3.8 11.1 6.5 15.4 2.7 4.4 41.2-0.6 43.2-8.9 2-8.4 9.7-17 9.7-17 0 0 40.7-2.8 43.4-3 9.2-0.7 35.4-9.8 35.4-9.8-0.3-2.6-15.1-84.4-86.1-66.5z"/><path class="n" d="m769.8 1059c-4.9-1.2-13.2-2.6-26.9-3.1 0 0-11.5 9.6-34.4 16.8-10.8-13.5-41.4-46.2-81.3-55.7q-0.2-0.1-0.3-0.1c-0.9 1.1-1.4 1.4-2 2.1q-0.2 0.4-0.5 0.8c32.4 5.7 63.3 42.2 73.9 55.8-9.1 2.2-19.6 4-31.4 4.8 0 0 71.1 1.3 103.6-15.8 2.4-1.3 2-5-0.7-5.6z"/><path class="g" d="m842.2 1381.8c-1.3 7.5-5.4 15.3-16.8 17.8q0.6-1.6 1.1-3c1.2-3 1.8-5.4 1.7-6.8-0.4-4.4-14.1-14.9-29.9-27.5-1.3-7.1-4.5-28.1 0-44.9 5.5-20.4 45.4 55.9 43.9 64.4z"/><path class="g" d="m582.7 1419c0 0-48.9-4-64.8 24.4 0 0 1.3 9.6 10.8 6.7 0 0 41.4-28.3 61.7-26.1 0 0-3.2-5-7.7-5z"/><path class="n" d="m825.4 1399.6c0 0 25.3 1 57.2 14.9 0 0 7.1-6.9 4.3-10.9-2.8-4-47.8-18.4-61.5-4z"/></svg>