<svg version="1.2" xmlns="http://www.w3.org/2000/svg" viewBox="0 0 992 440" width="992" height="440"><defs><linearGradient id="P" gradientUnits="userSpaceOnUse"/><linearGradient id="g1" x2="1" href="#P" gradientTransform="matrix(50.687,0,0,18.977,789.889,246.554)"><stop stop-color="#f1cc52"/><stop offset="1" stop-color="#ff6935"/></linearGradient><linearGradient id="g2" x2="1" href="#P" gradientTransform="matrix(37.704,0,0,54.372,899.286,263.505)"><stop stop-color="#f1cc52"/><stop offset="1" stop-color="#ff6935"/></linearGradient><linearGradient id="g3" x2="1" href="#P" gradientTransform="matrix(40.703,0,0,70.472,872.062,263.505)"><stop stop-color="#f1cc52"/><stop offset="1" stop-color="#ff6935"/></linearGradient><linearGradient id="g4" x2="1" href="#P" gradientTransform="matrix(15.64,0,0,74.938,867.902,264.559)"><stop stop-color="#f1cc52"/><stop offset="1" stop-color="#ff6935"/></linearGradient><linearGradient id="g5" x2="1" href="#P" gradientTransform="matrix(32.833,0,0,58.343,299.391,248.45)"><stop stop-color="#f1cc52"/><stop offset="1" stop-color="#ff6935"/></linearGradient><linearGradient id="g6" x2="1" href="#P" gradientTransform="matrix(35.445,0,0,75.612,274.572,248.45)"><stop stop-color="#f1cc52"/><stop offset="1" stop-color="#ff6935"/></linearGradient><linearGradient id="g7" x2="1" href="#P" gradientTransform="matrix(13.619,0,0,80.145,272.061,249.581)"><stop stop-color="#f1cc52"/><stop offset="1" stop-color="#ff6935"/></linearGradient><linearGradient id="g8" x2="1" href="#P" gradientTransform="matrix(43.303,0,0,75.44,83.891,247.263)"><stop stop-color="#f1cc52"/><stop offset="1" stop-color="#ff6935"/></linearGradient><linearGradient id="g9" x2="1" href="#P" gradientTransform="matrix(16.624,0,0,46.87,80.553,247.268)"><stop stop-color="#f1cc52"/><stop offset="1" stop-color="#ff6935"/></linearGradient><linearGradient id="g10" x2="1" href="#P" gradientTransform="matrix(38.899,0,0,147.314,168.95,282.734)"><stop stop-color="#f1cc52"/><stop offset="1" stop-color="#ff6935"/></linearGradient><linearGradient id="g11" x2="1" href="#P" gradientTransform="matrix(31.281,0,0,145.475,155.597,284.567)"><stop stop-color="#f1cc52"/><stop offset="1" stop-color="#ff6935"/></linearGradient></defs><style>.a{fill:#00dbef}.b{fill:#6f36bb}.c{fill:#00b9e3}.d{opacity:.5;fill:#aed3ff}.e{fill:#00cff2}.f{fill:#283250}.g{fill:#462160}.h{fill:#d9935c}.i{fill:#cb7d45}.j{fill:#522b73}.k{fill:#ffde69}.l{fill:url(#g1)}.m{fill:#ffa412}.n{fill:#e27f2b}.o{fill:url(#g2)}.p{fill:url(#g3)}.q{fill:url(#g4)}.r{fill:#f1a34f}.s{fill:#ff753c}.t{fill:#e69d43}.u{fill:url(#g5)}.v{fill:url(#g6)}.w{fill:url(#g7)}.x{fill:url(#g8)}.y{fill:url(#g9)}.z{fill:#8f3b99}.A{fill:url(#g10)}.B{fill:url(#g11)}.C{fill:#e9f3fe}.D{fill:#bed4f4}</style><path class="a" d="m900.1 156.6c-50.5-15.3-68-228.9-292-122-89.1 42.4-217.3-9-340.1 19.1-112.7 25.8-115.3 100.2-101.1 127 15.6 29.3-46.5 64.2-110.1 88.3-99.9 37.8-26.5 170.2 67.8 170.9 94.3 0.6 787-1.3 787-1.3 0 0 188.5-221.5-11.5-282z"/><path fill-rule="evenodd" class="b" d="m934.4 189v10.9c0 1-0.7 1.8-1.7 1.8h-14.9c-0.9 0-1.7-0.8-1.7-1.8v-4.4h-9.9v199.4h-11.7v-199.4h-47.9l-13.3 15.3h2.7c1 0 1.8 0.8 1.8 1.9v1.8c0 1.1-0.8 1.9-1.8 1.9h-5.6c-1 0-1.8-0.8-1.8-1.9v-1.8c0-1.1 0.8-1.9 1.8-1.9h1.5v-15.8h0.6v-6.3l-0.1-0.5 71-22.7 29.6 21.2-0.3 0.5c1 0 1.7 0.8 1.7 1.8zm-100.2-0.3h81.9c0.2-0.9 0.9-1.5 1.7-1.5h14l-28.6-20.6zm10.9 6.8h-6.9l-5.3 0.5v13.5z"/><path class="c" d="m702.8 115.1h98v324.1h-98z"/><path class="d" d="m702.8 159.7h70.9v47.6h-70.9z"/><path class="d" d="m702.8 246.7h70.9v47.5h-70.9z"/><path class="d" d="m702.8 332.6h70.9v47.5h-70.9z"/><path class="e" d="m923 379.7h-13.2v-43.8h-109v-220.8h-27.1v324.3h27.1v-0.2h109 13.2z"/><path class="f" d="m968.5 440h-498.8c-0.2 0-0.5-0.2-0.5-0.6 0-0.2 0.3-0.5 0.5-0.5h498.8c0.3 0 0.5 0.3 0.5 0.5 0 0.4-0.2 0.6-0.5 0.6z"/><path class="g" d="m821.1 438.9c0 0 0.2-4.4 1.3-6.9 1.2-2.3 10.2-0.7 10.2-0.7 0 0 2.1 4 1.8 7.6z"/><path class="g" d="m796.8 438.9c0 0 0.2-4.4 1.3-6.9 1.2-2.3 10.2-0.7 10.2-0.7 0 0 2 4 1.8 7.6z"/><path class="h" d="m826.9 248.5c-1 0.9-11.3 6.6-11.3 6.6l-10.8-8.2c0 0 3.2-0.5 3.3-0.5 1-0.4 1-3.2 1.1-6.1q0-0.7 0.1-1.3l10.6-0.4q0 0.3 0 0.5l0.1 0.4q0 0.1 0 0.3c0.1 2.6 0.5 6.2 1.3 6.6 0.5 0.3 3.5 0.3 5.6 2.1z"/><path class="i" d="m820 239.8c-1 1.8-2.8 5.1-5.8 4.9-2.7-0.1-4.3-2.7-5-4.4q0-0.7 0.1-1.3l10.6-0.4v0.5l0.1 0.4q0 0.1 0 0.3z"/><path class="j" d="m808 213.9c0 0 5.1-5.4 11.1 0.1 0 0-3.5-0.8-11.1-0.1z"/><path class="b" d="m806.2 233.7c0 0-1.7-3.5-2.7-7.6-0.7-3-0.1-14.2 10.5-13.5 0 0 3.2 0.1 6.1 2 2.5 1.4 6 4.7 3 14.7l-0.8 3.3z"/><path class="h" d="m820.9 238.5c-2.7 2.8-6 6.5-13.4-0.4-1.4-1.3-1.3-3.4-1.4-6.4-0.1-3.5-0.9-5.6-0.5-7.7 0.4-2.4 2.4-3.5 6.4-3.8 7.4-0.7 11.2 1 10.7 5-1.2 8.7 1 10.4-1.8 13.3z"/><path class="k" d="m814.9 220c0 0 4.4-0.1 5.5 1.5 0.9 1.5 1.1 3.3 1.6 4.2 0.5 0.9 0.4 1.9 0.4 1.9l1-7-6-1.3z"/><path class="l" d="m840.6 258.5c0 0-1.9 5.8-9.5 6.9q-0.3 0.1-0.6 0.1h-31.1q0 0-0.1 0c-1.2-0.4-8.7-3.1-9.4-8.2 0 0 3.9-8.5 6.9-9.5 0.8-0.4 2-0.5 3.3-0.8 1.3-0.1 2.6-0.2 3.8-0.3 1.5-0.1 2.7-0.2 2.7-0.2 0 0 2.4 5.3 8.3 5.2 5.9-0.1 7.2-5.1 7.2-5.1 0 0 1.6 0.1 3.8 0.3 1.3 0.2 2.7 0.4 4 0.7 2.3 0.4 4.5 1.1 5.8 2.3 3.4 2.9 4.9 8.6 4.9 8.6z"/><path class="j" d="m833.2 303.9c-0.4-1.9-0.8-4.8-1.2-7.4 0-0.1 1.2-14.7 1.6-17.3 0.4-2.5-2.5-15.9-2.5-15.9-0.6-2.1-1.8-2.7-2.7-2.7l1.5-13c-1.3-0.3-2.7-0.5-4-0.7l-0.6 13.7-0.1 0.1c-1.6 0.1-3.6 0.3-5.4 0.4-1.9 0-3.6 0.1-4.7 0.1-2.1 0-7.1-0.2-10.4-0.5v-0.1l-0.8-13.9c-1.2 0.1-2.5 0.2-3.8 0.3l1.4 13.6c-0.9 0-2 1.7-2.2 2.7l-0.1 4.2c-0.7 2.1-2.2 6.9-2.4 10.2-0.3 4.4 1.5 19.6 1.5 19.7-0.1 1.8-0.3 4.1-0.4 6.4-1.4 3.7-6.9 21.1-6.4 44.4 0.6 21.8 0.9 59 3.3 77 0.4 3 0.8 5.4 1.3 7.2 0.4 0.9 1 1.5 1.9 1.7 2.8 0.4 9.1 1.1 11.7 0.1 1.3-0.5 2.2-8.1 2.9-17.9 0.6-9.4 0.9-20.8 1.2-29.9 0.2-7.3 0.2-13.1 0.2-15.2 0-4.9 1.1-19.1 1.4-27.4 0-0.3 0.4-0.3 0.4 0 0.5 9.9 2.4 24.9 2.5 28.3 0 8.1-0.4 60.3 3 62.1 2.5 1.3 8.5 0.3 11.4-0.1 1-0.2 1.9-0.9 2.2-2 3.6-13.1 3.9-58.8 4.5-83.9 0.6-23-4.8-40.2-6.2-44.3z"/><path class="h" d="m805 313.4c-1.1 0.9-4.5 0.5-5.8-0.7-1.4-1.2-4-0.8-4.7-1.3-0.1 0-12.6-15.8-14-22.4-1.3-6.8 7.3-25.1 9.8-30.2 1.8 4.1 7.9 6.3 9 6.7q0.1 0 0.1 0h0.4c-2.1 5.9-8.2 16.4-10.6 20.4-0.5 1-0.6 2.3-0.1 3.3 3 6.8 6 12.7 7.2 16.7 0.3 0.4 0.8 1.2 1.5 1.1 1-0.1 3.9-0.8 5.4 1.5 1.5 2.4 2.9 4 1.8 4.9z"/><path class="m" d="m824.1 214c0 0-0.8-1.1-2.3-2.5q-0.3-0.3-0.7-0.6c-2.7-2.1-7-4.3-12.2-2-1.4 0.7-2.6 1.5-3.6 2.5q-0.3 0.3-0.6 0.6c-4.5 5.4-4.1 13.7-4.1 13.7l25.9-0.3c0.1-7.7-2.4-11.4-2.4-11.4z"/><path class="n" d="m819.2 225.5c0-1.1-0.6-10.7 2.6-14-0.2-0.2-0.1-0.1-0.5-0.4-3.2 3.8-3.5 13.2-3.5 14.4l-8.3 0.1c-0.2-6.7-3.8-13.5-4.2-14.2-0.2 0.2-0.2 0.2-0.5 0.5 0.7 1.1 3 7.6 3.2 13.7l-7.4 0.1c0 0 6.9 1.9 12.1 1.9 5.2-0.1 13.8-2.2 13.8-2.2z"/><path class="b" d="m806 262c-2.6 5.4-10.2 6.5-10.2 6.5 2.5-6.4-2.5-8.4-5.5-14.8-3-6.5 2.3-10.8 2.3-10.8-3.3 0.7-3.9 5.4-3.9 5.4-0.3-3.2 2.2-8.5 10.1-9.6 5.7-0.7 7.1-2.8 7.4-3.8 0.1 1.3 0.4 2.3 1.3 3.2q0.9 0.9 1.8 1.4-0.1 0.5-0.1 0.8c0 0.9 0 1.7-0.1 2.5-1 1.3-1 2.6-0.8 3.5 0.1 0.6 0.2 0.9 0.2 0.9 0.9 1.2 1.4 2.4 1.4 3.6 0.4 3.5-1.9 7.1-3.9 11.2z"/><path class="g" d="m833.2 303.6l-1.2-7.1c-5.6 2.2-10.9 3.1-15.5 3.4-0.6-1.1-1.6-1.9-2.8-2l-4.1-0.7c-1.6-0.3-3.2 0.7-3.9 2.1-4-0.6-6.6-1.6-7.4-1.9l-0.4 6.3q3.5 1.1 6.8 1.6l-0.2 0.9c-0.2 2.2 1.2 4.2 3.2 4.5l4.5 0.8c2.3 0.3 4.2-1.4 4.4-3.7l0.1-1.4c8.7 0 14.4-2 16.5-2.8z"/><path class="h" d="m849.8 289c-1.4 6.6-13.8 22.4-13.9 22.4q-0.2 0.1-0.5 0.2c-1.1 0.1-3 0.1-4.2 1.1-1.3 1.2-4.8 1.6-5.8 0.7-1.1-0.9 0.3-2.5 1.8-4.9 1.5-2.3 4.5-1.6 5.4-1.5 0.5 0.1 1-0.4 1.3-0.9q0.1-0.1 0.2-0.2c1.2-3.9 4.1-9.5 7-16.3 0.6-1.3 0.5-2.8-0.2-4.1-2-3.3-6-10.3-8.5-15.8-0.4-1.7-0.6-3.2-0.9-4.4 5.7-0.9 8-4.6 8.7-6.1 2.7 5.5 11 23.2 9.6 29.8z"/><path class="o" d="m934.6 317.6c-1.9 0.5-10.4 0.5-16.5-0.9-1.2-0.3-2.4-0.6-3.3-1.1q-1.7-0.7-2.5-2c-0.6-1.1-1.9-5.2-3.3-10.7-4.1-14.8-9.7-39.4-9.7-39.4 0 0 11.4 2.5 13.8 4.5 2.4 2.2 4.5 35.6 6.8 36.5 0.3 0.1 0.9 0.4 1.6 0.7q0 0.1 0.1 0.1 0.7 0.4 1.5 0.8c4.7 2.6 12.5 7.2 13.2 8.3 1.1 1.3 1.1 2.5-1.7 3.2z"/><path class="p" d="m912.7 282.5q0-0.8-0.1-1.7c-1.4-8.6-13.1-17.3-13.3-17.3v0.2c0 1.3-2 3.7-4.9 3.9-3.6 0.3-7.9-1.9-7.9-4.1-0.1 0-2.1 0.4-2.7 0.4-2.8 0.4-8.5 2-11 3.9-2.3 1.9 1 13.5 3 21.8 0.9 3.6 1.6 6.4 1.4 7.7 0 0.6-0.6 9.1-1.1 16.8-0.3 6.3-0.7 12.1-0.7 12.5 0 0.7 3.4 3.2 9 5.1q2.1 0.7 4.5 1.3c2.9 0.6 6.2 1 9.7 1q1.8 0 3.4-0.2c8-0.8 10.8-10.6 10.7-51.3z"/><path class="h" d="m886.5 263.4c-0.1-3.2 0-7.3 0.4-10.6l12.5 2.2c0 0 0 4-0.1 8.5 0 0 0.3 4.1-4.5 4.8-4.8 0.6-8.5-1.7-8.3-4.9z"/><path class="g" d="m896.9 438.9c-1.6-1-0.7-8.6-0.7-8.6 0 0 7.4-6.1 8.3-1.4 1.1 4.8 7 6.9 10.4 7.6 2.4 0.4 3.2 1.6 3.4 2.4z"/><path class="g" d="m885.5 308.3c0 12.6-5.8 9.3-9.4 5.8 0.5-7.7 0.8-34.9 0.8-34.9 0 0 8.6 10.9 8.6 29.1z"/><path class="g" d="m923.1 306.1c-0.3 1.8-2.9 7-5 10.6-1.2-0.3-2.4-0.6-3.3-1.1q-1.7-0.7-2.5-2c-0.6-1.1-1.9-5.2-3.3-10.7 1-6.6 2.1-13.2 2.1-13.2l0.3-4.3c0 0.3 4.9 19.6 7 20.1 1.4 0.2 2.3-0.1 3.1-0.3q0 0.1 0.1 0.1 0.7 0.4 1.5 0.8z"/><path class="g" d="m874.4 438.9c-1.6-1-0.7-8.6-0.7-8.6 0 0 7.3-6.1 8.3-1.4 1 4.8 7 6.9 10.4 7.6 2.3 0.4 3.2 1.6 3.3 2.4z"/><path class="g" d="m885.2 249c0 0-8.3-14 7.8-14.9 0 0 6 0.8 7.3-0.7 0 0 4.6 7.5 0.3 15.6-4.4 8-15.4 0-15.4 0z"/><path class="h" d="m899 256.3c-1.3 1-4.8 2-5.8 2.1 0 0-5.3-1.3-6.2-1.9-1.5-0.9-1.4-2.8-1.5-5.5-0.1-3.2-0.4-5.7-0.1-7.6 0.4-2.1 1.7-3.4 5.4-3.8 6.8-0.5 9.5 1.3 9.6 3.6q0.1 1 0.1 1.8c0.3 7.5-0.2 10.2-1.5 11.3z"/><path class="g" d="m900.6 247.5c-0.1 4.4-1.2 6.9-2 7.2-0.9 0.5-1.9 0.7-3.1 0.9-0.4 0-0.7 0-0.7-0.2 0-0.7 0.9-1.5 0.2-2.1-0.6-0.6-4.3-0.9-4.6 0.5-0.1 0.7 1.1 1.9 0.3 1.9q-0.4-0.1-0.8-0.1c-1.2-0.4-2.3-1-2.7-1.4-1.5-0.9-1.4-2.3-1.7-5-0.3-1.8-0.3-0.8 0 1.8 0.2 2.7-0.3 4.4 1.5 5.5 0.9 0.7 6.2 3.2 6.2 3.2 0-1.3 4.5-2.4 5.8-3.4 1.1-1 1.7-3.1 1.6-8.8z"/><path class="j" d="m875.4 326.6c0 0.7 3.4 3.2 9 5.1q0.7 0.2 1.4 0.5c0.6 6.5 2 15.8 3.3 24.9 0.3 2.3 0.7 4.6 0.9 6.8 0.8 5.9 1.4 11.2 1.5 15.1v0.1c0 1.7-1.4 6.1-1.5 7.2q-0.2 0.9-0.2 2c-0.1 2.8 0 6 0.1 9.5 0.9 15.3 4.8 34.7 6.1 35.5 2.7 1.7 7.6 0 10.1-0.4 1-0.1 1.8-1 1.8-2.1-1.2-25.3 2.2-60.5 4.8-82.2q0.1-0.9 0.3-1.6c0.2-2.7 0.5-5 0.6-7.2 0.1-1.9 0.2-3.6 0.2-5.1q0-0.6 0-1.3c0-1.3-1-10.2-1.1-50.9 0-0.9-0.7-1.7-1.5-1.7h-23.4c-2.3 0-4.1 1.9-4.1 4.4 0.1 3-0.1 7.4-0.7 11.6-0.9 5.6-2.7 10.9-6.5 12.1q0 0.1-0.4 0.8 0 1.5-0.1 3.1 0 0.3 0 0.7 0 0.1 0 0.3 0 0.3 0 0.6 0 0.6-0.1 1.1 0 0.4 0 0.9-0.1 0.8-0.1 1.7 0 0.2-0.1 0.4 0 1.2-0.1 2.3-0.1 0.4-0.1 0.7 0 0.2 0 0.3 0 0.4 0 0.9 0 0.4-0.1 0.9c-0.1 1.2 0.1 2.2 0 3z"/><path class="g" d="m889.9 397.8c0.9 15.3 4.8 34.7 6.1 35.5 2.7 1.7 7.6 0 10.1-0.4 1-0.1 1.8-1 1.8-2.1-1.2-25.3 2.2-60.5 4.8-82.2q0.1-0.9 0.3-1.6c0.2-2.7 0.5-5 0.6-7.2-1.3-8.5-8.2-9-14.6 8.7 0.8 5.9-9.2 45.8-9.1 49.3z"/><path class="j" d="m875.1 378.3c-0.1 1.8-2.1 5.9-2.3 6.9-3.2 13.7-1.4 46.3 0.1 47.6 2.5 1.9 7.6 1 10 1 1.1 0 2-0.9 2.1-1.9 2-26 10.2-61.5 15.4-82.5 2.7-10.5 3.1-18.3 3.1-18.3 0 0-24.7-15.9-27.3-7.2-2.4 7.7 0.4 40.9-1.1 54.4z"/><path class="m" d="m900.2 230.2q-0.3-0.3-0.6-0.6c-0.7-0.8-1.7-1.5-2.9-2-4.3-1.9-7.8-0.1-10.1 1.7q-0.3 0.2-0.5 0.5c-1.3 1-1.9 2-1.9 2 0 0-2.2 3.1-2.1 9.4l21.5 0.2c0 0 0.3-6.8-3.4-11.2z"/><path class="n" d="m888.1 241.3h1.2c0-0.4 0-8.7-2.9-11.9-0.3 0.2-0.2 0.2-0.3 0.4 2.7 2.8 2.1 11.4 2 11.5z"/><path class="n" d="m897.5 241.4c0.2-5.1 2-10.4 2.5-11.4-0.1-0.1-0.1-0.2-0.4-0.4-0.3 0.7-3.1 6.2-3.4 11.8l-14.1-0.2c0 0 7.2 1.7 11.4 1.8 4.4 0 10.1-1.6 10.1-1.6z"/><path class="j" d="m882.9 264c0 0 7.3 9 7.7 16.8l-3.6 0.2c0 0-1-8.7-6.4-16.4 0 0 0.8-0.3 1.1-0.3 0.3-0.1 1.2-0.3 1.2-0.3z"/><path class="j" d="m901 263.9c5.2 8.3 5.8 17.1 5.8 17.1l3.6-0.1c-0.2-6.1-3.9-12.9-5.9-16.1 0 0-2.6-0.7-3.5-0.9z"/><path class="m" d="m892.9 349.9h-3c-1.4-0.6-8.9-4.1-16.1-4.1-5.2-0.1-11.1 4-11.4 4.1-0.9 0.1 3 0.2 3 0.2 0 0 5.9-2.8 8.5-2.9 2.5 0 8.1 1.9 10.3 2.7h-16.8c-1.4 0-2.5 1.2-2.5 2.7v20.4c0 1.5 1.1 2.7 2.5 2.7h25.5c1.5 0 2.6-1.2 2.6-2.7v-20.4c0-1.5-1.1-2.7-2.6-2.7z"/><path class="n" d="m856.6 360.9c0-6.1 4.9-11 11-11h8.6c6.1 0 11 4.9 11 11v3.8c0 6.1-4.9 11-11 11h-8.6c-6.1 0-11-4.9-11-11z"/><path class="q" d="m877.1 312.1c0.3 9.2-0.8 27.6-0.8 27.6h-5.1c-2.5-12.9-3.3-21.2-3.3-25.8q0-1.3 0-2.4c0-3.9 0.2-6.1 0.2-6.1-1-23.4 3.3-35.9 4.7-37.6 1.4-1.7 7.8-3.2 7.8-3.2 0 0 2 6.4 2.9 11.6 0.8 5.2-6.7 27-6.4 34.5q0 0.6 0 1.4z"/><path class="r" d="m938.5 321.2c0-1.6 1.2-2.8 2.7-2.8 1.6 0 2.8 1.2 2.8 2.8v115.3c0 1.5-1.2 2.8-2.8 2.8-1.5 0-2.7-1.3-2.7-2.8z"/><path class="j" d="m943.3 318.4h-4.1c-0.4 0-0.7 0.4-0.7 0.8v3.7h5.5v-3.7c0-0.4-0.3-0.8-0.7-0.8z"/><path class="j" d="m938.5 438.4c0 0.5 0.3 0.9 0.7 0.9h4.1c0.4 0 0.7-0.4 0.7-0.9v-3.2h-5.5z"/><path class="n" d="m941.2 326.2c-0.1 0-0.4 0.2-0.4 0.5v104.9c0 0.3 0.3 0.5 0.4 0.5 0.3 0 0.5-0.2 0.5-0.5v-104.9c0-0.3-0.2-0.5-0.5-0.5z"/><path class="h" d="m876.3 339.7c0 0 1.1-18.4 0.8-27.6-4-1.4-7.3-1-9.2-0.6q0 1.1 0 2.4c0 4.6 0.8 12.9 3.3 25.8-1.1 4.6-1.1 9.7 0.8 10.6 1.8 0.9 7.9-2.4 7.9-3.9-0.1-1.5-3.6-6.7-3.6-6.7z"/><path class="h" d="m946 318.5c-0.5-1.9-0.9-3.1-2.1-4-1.8-1.4-4.1-1-5.6-0.6-1.2 0.1-2.6-0.3-3.1-0.5-2.8-2-10.1-6.2-13.6-8.1-2.4 1.5-5.4 4.5-6.8 10.3 5.5 2.6 17.5 2.5 19.8 2 0 0 2.1 1.6 3.7 1.8 0.6 0 1.4-0.2 2.1-0.4 1.2-0.5 2.4 0 3.1 1 0.9 1.1 1.8 1.7 2.3 1.7 0.7 0 0.5-2 0.2-3.2z"/><path class="a" d="m707.9 98.9h1v19.9h-1z"/><path class="a" d="m766.3 98.9h1.1v19.9h-1.1z"/><path class="a" d="m715.3 98.9h1v19.9h-1z"/><path class="a" d="m771.6 98.9h1.1v19.9h-1.1z"/><path class="h" d="m717.8 228.9c4.7-25.5 8.9-49.9 8.9-49.9 0 0-13.3 2.2-19 7.3-5.7 5-6.2 37.3-8.2 46.5-0.3 1.7-0.7 4.7-1 8.2-1.1 13.2 0.2 32.9 1.3 38.4-0.1 0.5-0.5 3.1-2.8 8.1 0 0-1.1 3.8 6.5 9.6 4.9 3.6 9.2-40.5 14.3-68.2z"/><path class="s" d="m726.7 179c0 0-2.4 14.1-5.6 32-1.1 5.7-2.2 11.7-3.3 17.9-4.6 9.5-8.5 16.1-9.7 14.8-2.5-2.5-6.8-2.8-9.6-2.7 0.3-3.5 0.7-6.5 1-8.2q0.2-1.1 0.5-2.6c1.5-11.5 2.4-39.3 7.7-43.9 5.7-5.1 19-7.3 19-7.3z"/><path class="m" d="m721.1 211c-1.1 5.7-2.2 11.7-3.3 17.9-4.6 9.5-8.5 16.1-9.7 14.8-2.5-2.5-6.8-2.8-9.6-2.7 0.3-3.5 0.7-6.5 1-8.2q0.2-1.1 0.5-2.6l13.7-35.2z"/><path class="h" d="m745.8 178.7c0.1-4.9 0-10.8-0.6-15.8l-18.5 3.2c0 0 0 6 0.1 12.7q-0.1 0-0.1 0c0 0-0.4 6.1 6.7 7 7.1 0.9 12.6-2.4 12.4-7.1z"/><path class="i" d="m726.7 167.3c0 0 4.3 9.5 9.3 9.5 5 0 9.7-8.9 9.7-8.9z"/><path class="g" d="m739 439c0 0 0.6-5.6 2.2-8.9 1.6-3.3 11.5-1.2 11.5-1.2 0 0 2 1.8 2.4 10.2z"/><path class="g" d="m705.2 438.9c2.3-1.5 1-12.8 1-12.8 0 0-10.8-9.2-12.3-2.1-1.5 7-10.3 10.2-15.4 11.1-3.4 0.5-4.5 2.6-4.8 3.8z"/><path class="g" d="m747.5 157.3c0 0 12.4-20.7-11.3-22.1 0 0-8.9 1.1-10.8-1 0 0-6.9 11.1-0.5 23.1 6.4 11.9 22.6 0 22.6 0z"/><path class="h" d="m727.2 168c1.8 1.5 7.1 3 8.7 3.2 0 0 7.8-1.9 9.2-2.8 2.2-1.4 2-4.2 2.2-8.3 0.1-4.6 0.6-8.3 0.1-11-0.6-3.3-2.6-5.1-8-5.7-10-0.9-14.1 1.8-14.3 5.3q-0.1 1.4-0.2 2.7c-0.4 11.1 0.5 15.1 2.3 16.6z"/><path class="j" d="m727.7 355.2c-0.5 2.6-0.7 4.7-0.8 6.2-1 20.9-16.6 68.7-19.4 69.8-4.2 1.7-11.1-1.9-14.6-3.1-1.5-0.5-2.4-2.1-2.1-3.7 7.7-37.6 10.5-91.8 11.6-123.8 0.5-16.2 3.1-27.4 3.1-27.4 0 0 37.9-10.7 38.2 2.9 0.1 12-12.6 59.2-16 79.1z"/><path class="g" d="m727.7 355.2l-25.3-54.6c0.5-16.2 3.1-27.4 3.1-27.4 0 0 37.9-10.7 38.2 2.9 0.1 12-12.6 59.2-16 79.1z"/><path class="j" d="m719.3 276.1l20 154.5c0 0 8.8 2.2 15.7 0.4 0 0 5.8-82.2 5.3-102-0.5-19.8 4.3-53.2-1-56.8-5.3-3.7-40 3.9-40 3.9z"/><path class="b" d="m762.1 272.2c0.1 1.8-1.2 3.3-2.9 3.3l-31.6 0.5-23.2 0.4c-1.1 0 2.3-9.3 2.4-69.5 0-13.4 19.6-27.9 19.9-27.9 0 1.9 2.9 5.5 7.4 5.9 5.2 0.3 11.7-2.5 11.7-5.7 0 0 0.6 0.6 1.6 2.2 2.6 4 7.8 14 11.2 31.1 2.7 13.7 1.7 31.8 3.6 55.3 0.1 1.7-0.1 3.2-0.1 4.4z"/><path class="s" d="m761 275.7c0 0-4.2 2-12.1 3.8-5.8 1.2-13.7 2.3-23.3 2.4-15.4 0.1-21.2-5.5-21.2-5.5-1.1 0 2.3-9.3 2.4-69.5 0-13.4 19.6-27.9 19.9-27.9 0 0-0.4 17.9 4.6 23.2 0 0 7.2-5.8 16.5-22.6 2.6 4.1 7.4 15.8 10.8 32.9 0.7 3.6 1.2 7.3 1.5 11.5 0.9 11.9 0.6 26.4 2.1 43.8 0.1 1.7-0.1 3.2-0.1 4.4 0.1 1.8 0.6 3.5-1.1 3.5z"/><path class="m" d="m761 275.7c0 0-4.2 2-12.1 3.8-2.4-4.1-5.6-11.3-6-22.7-0.7-19.3 16.5-44.1 16.5-44.1l0.7 11.3c0.9 11.9 0.6 26.4 2.1 43.8 0.1 1.7-0.1 3.2-0.1 4.4 0.1 1.8 0.6 3.5-1.1 3.5z"/><path class="j" d="m746 210.5l-29.3 18 23.3 42.7 29.4-17.9z"/><path class="h" d="m764.4 185.5c-3.7-2.9-12.1-4.9-16.2-5.8-1.5-0.3-2.4-0.5-2.4-0.5 0.4 2.1 1.4 5.5 2.6 9.4 5.4 16.8 16 45.3 13.8 45.9-1.7 0.5-3.9 0.9-6.4 1.4-9.3 1.3-21.7 2-23.1 2.1 0-0.1-4.5-4.5-6.2-4.5-1.8 0-6.8 1.9-7.3 3.4-0.6 1.6-0.7 4.2 0.7 4.9 1.4 0.5 7.4 2 9 2.2q0.3 0.1 0.7 0c11.1 3.4 20.6 5.2 28 6 10.3 1.1 16.3 0.5 16.3 0.5 7.5-17-4.7-61.1-9.5-65z"/><path class="s" d="m773.9 250.5c0 0-6 0.6-16.3-0.5 0.6-3 1.1-8.8-1.8-14.1 2.5-0.5 4.7-0.9 6.4-1.4 2.2-0.6-8.4-29.1-13.8-45.9-0.4-5.4-0.6-9-0.6-9l0.4 0.1c4.1 0.9 12.5 2.9 16.2 5.8 4.8 3.9 17 48 9.5 65z"/><path class="m" d="m731.3 202.2c0 0 14.4-6.7 14.6-7.2 0.2-0.5-0.8-4.6-1.7-5.8 0 0 6.9 0.7 7.3-0.2 0.4-0.9 0.7-8.4 0.7-8.4 0 0-2.9-3.1-6.4-3.5 0 0-3 8.2-4.2 10.7-3.1 6.5-10.3 14.4-10.3 14.4z"/><path class="m" d="m728 189c0 0 0.9 7.8 3.3 13.2 0 0-7.4-5.5-8-7.3-0.7-1.8 1.8-5.4 1.8-5.4 0 0-4.5 0-4.6-1.6-0.1-1.6 1.4-7.8 1.4-7.8 0 0 3.9-3 4.9-2.9z"/><path class="m" d="m752.2 145.7l-31.8 0.4c0 0-0.5-10.2 5-16.7q0.4-0.5 0.9-0.9c1.2-1.1 2.6-2.2 4.3-2.9 6.3-2.8 11.6-0.3 14.9 2.4q0.5 0.4 1 0.8c1.7 1.6 2.7 3 2.7 3 0 0 3.1 4.5 3 13.9z"/><path class="n" d="m743.3 145.9c-0.1-1.4-0.7-13.1 3.2-17-0.3-0.3-0.2-0.3-0.5-0.5-4.1 4.5-4.5 16-4.5 17.5h-10.2c-0.2-8.2-4.6-16.4-5-17.4-0.3 0.4-0.4 0.4-0.6 0.7 0.7 1.4 3.5 9.3 3.8 16.8l-9.1 0.1c0 0 8.5 2.3 14.9 2.2 6.3-0.1 16.9-2.6 16.9-2.6z"/><path fill-rule="evenodd" class="b" d="m213.1 150.9v2.8c0 1.7-1 3-2.2 3h-7.2c-1.2 0-2.2-1.3-2.2-3v-2.8c0-1.7 1-3 2.2-3h3.5l-17-23.9h-60.9v312.1h-14.8v-312.1h-12.5v6.8c0 1.6-1 2.9-2.3 2.9h-18.8c-1.3 0-2.3-1.3-2.3-2.9v-17c0-1.5 1-2.9 2.3-2.9l-0.4-0.7 37.6-33.2 90.2 35.6-0.2 0.7v9.9l0.7 0.1v24.6h2.1c1.2 0 2.2 1.3 2.2 3zm-131.1-40h17.7c1.1 0 2 1.1 2.3 2.4h103.8l-87.4-34.5zm109.9 13.1l15.5 21.8v-21l-6.7-0.8z"/><path class="n" d="m176.9 436.1h-65c3.1-3.1 14.4-13.7 24.6-19.3 4.1-2.4 8.2-4 11.4-3.7 10.1 0.5 24.4 17.2 29 23z"/><path class="t" d="m156.2 436.1h-65c4.4-4.3 25.1-23.7 36.1-23 2.7 0.1 6 1.5 9.2 3.7 8.2 5.3 16.5 15.1 19.7 19.3z"/><path class="d" d="m263.4 136.3h61.8v51h-61.8z"/><path class="d" d="m263.4 229.7h61.8v51h-61.8z"/><path class="d" d="m263.4 321.9h61.8v51h-61.8z"/><path class="e" d="m455.2 379.2h-11.5v-42.7h-94.9v-214.6h-23.6v315.3h23.6v-0.2h94.9 11.5z"/><path class="f" d="m494.8 437.2h-434.4c-0.2 0-0.4-0.2-0.4-0.6 0-0.3 0.2-0.5 0.4-0.5h434.4c0.3 0 0.4 0.2 0.4 0.5 0 0.4-0.1 0.6-0.4 0.6z"/><path class="u" d="m330.2 306.5c-1.8 0.5-9.1 0.6-14.4-0.9-1.1-0.4-2.1-0.8-3-1.2-0.9-0.6-1.7-1.3-2-2.1-0.6-1.3-1.7-5.7-3-11.5-3.5-15.9-8.4-42.4-8.4-42.4 0 0 9.9 2.7 12 4.9 2.1 2.3 3.9 38.1 5.9 39.1 0.3 0.2 0.8 0.5 1.5 0.9q0 0 0 0 0.6 0.4 1.4 0.9c4 2.7 10.8 7.8 11.4 8.8 1 1.5 1 2.7-1.4 3.5z"/><path class="v" d="m310.1 268.9q0-0.9-0.2-1.8c-1.3-9.2-11.4-18.7-11.6-18.7v0.3c0 1.4-1.7 3.9-4.3 4.2-3.1 0.2-6.9-2.1-6.9-4.4 0 0-1.8 0.3-2.3 0.4-2.5 0.3-7.4 2.1-9.6 4.2-1.9 2 0.9 14.5 2.7 23.4 0.7 3.8 1.3 6.9 1.2 8.2-0.1 0.7-0.6 9.8-1 18.1-0.3 6.8-0.6 13-0.6 13.4 0 0.8 2.9 3.4 7.8 5.5q1.8 0.8 3.9 1.4c2.5 0.6 5.4 1 8.5 1q1.5 0 2.9-0.1c7.1-0.9 9.5-11.4 9.5-55.1z"/><path class="h" d="m288.2 248.4c-0.1-3.6 0-7.9 0.3-11.5l11 2.4c0 0 0 4.4-0.1 9.1 0 0 0.3 4.5-3.9 5.2-4.3 0.6-7.4-1.7-7.3-5.2z"/><path class="g" d="m297.3 436.8c-1.4-1.1-0.6-9.2-0.6-9.2 0 0 6.5-6.7 7.3-1.6 0.9 5.1 6.1 7.5 9 8.1 2 0.5 2.8 1.9 3 2.7z"/><path class="g" d="m287.4 296.5c0 13.7-5.1 10-8.1 6.3 0.4-8.3 0.6-37.5 0.6-37.5 0 0 7.5 11.6 7.5 31.2z"/><path class="g" d="m320.2 294.2c-0.3 1.9-2.6 7.5-4.4 11.4-1.1-0.4-2.1-0.8-3-1.2-0.9-0.6-1.7-1.3-2-2.1-0.6-1.3-1.7-5.7-3-11.5 0.9-7.2 1.8-14.2 1.8-14.2l0.4-4.7c0 0.3 4.2 21.1 6 21.6 1.2 0.3 2-0.1 2.8-0.2q0 0 0 0 0.6 0.4 1.4 0.9z"/><path class="g" d="m277.7 436.8c-1.4-1.1-0.6-9.2-0.6-9.2 0 0 6.4-6.7 7.3-1.6 0.9 5.1 6 7.5 9 8.1 2 0.5 2.8 1.9 2.9 2.7z"/><path class="g" d="m287.1 232.8c0 0-7.2-14.9 6.8-15.9 0 0 5.1 0.8 6.4-0.8 0 0 4 8.1 0.2 16.7-3.8 8.7-13.4 0-13.4 0z"/><path class="h" d="m299.1 240.7c-1 1.1-4.2 2.1-5.1 2.3 0 0-4.6-1.4-5.4-2.1-1.3-0.9-1.2-3.1-1.2-6-0.1-3.3-0.3-6-0.1-8 0.3-2.4 1.5-3.7 4.7-4 5.8-0.8 8.3 1.2 8.4 3.8q0 1 0 1.9c0.3 8.1-0.2 10.9-1.3 12.1z"/><path class="g" d="m300.5 231.3c-0.1 4.6-1 7.4-1.7 7.8-0.8 0.4-1.7 0.7-2.7 0.9-0.3 0-0.7 0-0.7-0.2 0-0.7 0.8-1.6 0.3-2.3-0.6-0.7-3.8-0.9-4 0.6-0.1 0.7 0.9 1.9 0.2 2q-0.3-0.1-0.7-0.1c-1.1-0.5-2-1.2-2.3-1.4-1.3-1.1-1.3-2.7-1.5-5.5-0.3-1.8-0.3-0.9 0 1.8 0.2 2.9-0.3 4.8 1.2 6 0.8 0.8 5.5 3.5 5.5 3.5-0.1-1.4 4-2.6 5-3.7 1-1.1 1.5-3.4 1.4-9.4z"/><path class="g" d="m291.2 392.6c0.9 16.4 4.2 37.3 5.3 38.2 2.4 1.8 6.7 0 8.8-0.4 0.9-0.2 1.6-1.2 1.5-2.3-1-27.2 2-65 4.3-88.3q0.1-0.9 0.2-1.8c0.2-2.7 0.5-5.3 0.6-7.6-1.1-9.2-7.2-9.7-12.8 9.3 0.8 6.4-8 49.1-7.9 52.9z"/><path class="j" d="m278.4 371.7c-0.2 1.9-1.9 6.4-2.1 7.4-2.8 14.7-1.2 49.7 0.2 51.1 2.1 2.2 6.5 1.1 8.7 1.1 0.9 0 1.7-0.9 1.8-2.1 1.7-27.8 8.8-66 13.4-88.5 2.3-11.3 2.6-19.6 2.6-19.6 0 0-21.4-17.2-23.7-7.8-2 8.3 0.4 43.8-0.9 58.4z"/><path class="m" d="m300.2 212.7q-0.2-0.3-0.5-0.7c-0.7-0.8-1.6-1.5-2.5-2.1-3.8-2-6.9-0.2-8.8 1.7q-0.3 0.4-0.5 0.6c-1.1 1.2-1.7 2.2-1.7 2.2 0 0-1.8 3.3-1.8 10.1l18.8 0.3c0 0 0.2-7.4-3-12.1z"/><path class="n" d="m289.7 224.6h1.1c0-0.4-0.1-9.3-2.7-12.7-0.1 0.1-0.1 0.1-0.2 0.3 2.4 3 1.8 12.3 1.8 12.4z"/><path class="n" d="m297.8 224.7c0.2-5.4 1.8-11.2 2.2-12.2-0.1-0.2-0.1-0.2-0.3-0.5-0.3 0.7-2.7 6.6-3 12.7l-12.3-0.2c0 0 6.3 1.8 10 1.9 3.7 0.1 8.8-1.6 8.8-1.6z"/><path class="j" d="m285.2 249c0 0 6.3 9.6 6.6 18.1l-3.2 0.1c0 0-0.8-9.3-5.6-17.6 0 0 0.8-0.3 1-0.3 0.3-0.1 1.2-0.3 1.2-0.3z"/><path class="j" d="m300.9 248.9c4.5 9 5 18.3 5 18.3l3.2-0.1c-0.2-6.5-3.4-13.8-5.1-17.3 0 0-2.3-0.7-3.1-0.9z"/><path class="m" d="m293.9 341.3h-2.7c-1.2-0.7-7.7-4.4-14-4.5-4.5 0-9.6 4.4-9.9 4.4-0.9 0.2 2.6 0.2 2.6 0.2 0 0 5.1-3 7.4-3.1 2.1 0 7 2.1 8.9 3h-14.6c-1.1 0-2.2 1.2-2.2 2.9v21.7c0 1.7 1.1 3 2.2 3h22.3c1.1 0 2.2-1.3 2.2-3v-21.7c0-1.7-1.1-2.9-2.2-2.9z"/><path class="n" d="m262.3 352.3c0-6.1 4.9-11 11-11h4.6c6 0 11 4.9 11 11v5.6c0 6.1-5 11-11 11h-4.6c-6.1 0-11-4.9-11-11z"/><path class="w" d="m280.1 300.6c0.1 9.9-0.8 29.5-0.8 29.5h-4.4c-2.1-13.8-2.9-22.6-2.9-27.5q0-1.4 0-2.6c0.1-4.2 0.2-6.6 0.2-6.6-0.8-25 3-38.5 4.2-40.3 1.2-1.9 6.6-3.5 6.6-3.5 0 0 1.9 6.9 2.7 12.4 0.7 5.6-5.9 29-5.6 37.1q0 0.7 0 1.5z"/><path class="r" d="m333.5 309.8c0-1.4 1.1-2.4 2.4-2.4 1.3 0 2.5 1 2.5 2.4v124.9c0 1.4-1.2 2.4-2.5 2.4-1.3 0-2.4-1-2.4-2.4z"/><path class="j" d="m337.7 307.4h-3.6c-0.3 0-0.6 0.4-0.6 0.9v3.9h4.9v-3.9c0-0.5-0.3-0.9-0.7-0.9z"/><path class="j" d="m333.5 436.3c0 0.5 0.3 0.8 0.6 0.8h3.6c0.4 0 0.7-0.3 0.7-0.8v-3.4h-4.9z"/><path class="n" d="m335.9 315.8c-0.1 0-0.3 0.2-0.3 0.4v112.8c0 0.2 0.2 0.5 0.3 0.5 0.3 0 0.4-0.3 0.4-0.5v-112.8c0-0.2-0.1-0.4-0.4-0.4z"/><path class="h" d="m279.3 330.1c0 0 0.9-19.6 0.8-29.5-3.6-1.4-6.4-1.1-8.1-0.6q0 1.2 0 2.6c0 4.9 0.8 13.7 2.9 27.5-0.9 5.1-0.9 10.6 0.7 11.6 1.6 1 6.9-2.6 6.9-4.3-0.1-1.6-3.2-7.3-3.2-7.3z"/><path class="h" d="m340 307.5c-0.4-2.1-0.7-3.2-1.8-4.3-1.5-1.4-3.4-1.1-4.8-0.7-1.1 0.2-2.2-0.2-2.7-0.5-2.5-2.2-8.7-6.6-11.9-8.7-2.1 1.7-4.7 4.9-6 11.1 4.9 2.7 15.3 2.7 17.4 2.1 0 0 1.8 1.8 3.2 1.9 0.5 0 1.2-0.1 1.8-0.4 1-0.5 2 0 2.8 1.2 0.6 1.1 1.5 1.6 1.9 1.6 0.6 0 0.5-2 0.1-3.3z"/><path class="m" d="m74 342.9c0-6 4.9-11 11-11h4.6c6 0 11 5 11 11v5.7c0 6.1-5 11-11 11h-4.6c-6.1 0-11-4.9-11-11z"/><path class="n" d="m81.2 342.9c0-6 4.9-11 11-11h4.6c6.1 0 11 5 11 11v5.7c0 6.1-4.9 11-11 11h-4.6c-6.1 0-11-4.9-11-11z"/><path class="m" d="m78.6 332.1c0 0 5.3-5.1 6-5 0.9 0.2 2.1 0.5 2.1 0.5l-4.8 4.7z"/><path fill-rule="evenodd" class="x" d="m125.8 298.8c0 0-3.1 0.7-8.4 0.1 0.1 4 0.2 8.1 0.6 12.7 0.1 1.3 0 2.3 0 3.2 0 0.8-3 3.5-7.8 5.6q-1.8 0.7-4 1.3c-2.5 0.6-5.4 1-8.5 1q-1.5 0-2.9-0.1c-7-0.9-10.8-4.8-10.8-4.8-0.6 0.1 1.4-6.6 1.5-50.3q0-0.9 0-1.8c1.4-9.2 11.5-18.4 11.7-18.4 0 1.4 1.6 4 4.3 4.2 3.1 0.3 6.9-1.8 6.9-4.1 0 0 1.7 0 2.3 0.1 2.4 0.3 7.4 2.1 9.5 4.2 2.9 2.9 10 34.7 5.6 47.1zm-9.4-23q0.3 2.3 0.4 5 0.2 3.1 0.3 6.5 0 0.2 0 0.5 0.4-0.1 0.8-0.2 0.6-0.2 1.1-0.3c0.5-0.3-0.7-5.1-2.6-11.5z"/><path class="h" d="m97.2 247.3c0 0-7.9 1.5-11.3 5.2-3.3 3.7-3.6 27.1-4.8 33.8-0.2 1.2-0.4 3.3-0.6 5.9-0.5 9 0.2 21.4 0.8 26 0.1 1.2 0 2.8-0.5 4.4-0.8 2.8-1 3.7 0.5 5.2 1.5 1.7 3.2 4 4.4 3.3 0.9-0.5 0.7-8.4 0.6-11.9 1.4-7.6 3.5-21.9 5.6-35.8 2.8-18.5 5.3-36.1 5.3-36.1z"/><path class="y" d="m97.2 247.3c0 0-1.5 10.1-3.4 23.1-0.5 4.1-1.2 8.6-1.9 13-2.7 6.9-5 11.7-5.7 10.8-1.5-1.8-4-2.1-5.7-2 0.2-2.6 0.4-4.7 0.6-5.9q0.2-0.8 0.3-1.9c0.9-8.4 1.5-28.5 4.5-31.9 1.7-1.8 4.4-3.1 6.7-3.9 1.2-0.4 2.3-0.8 3.1-1 0.9-0.3 1.5-0.3 1.5-0.3z"/><path class="m" d="m86.2 294.2c-1.5-1.8-4-2.1-5.7-2 0.2-2.6 0.4-4.7 0.6-5.9q0.2-0.8 0.3-1.9l8.1-25.6c0 0-2.6 36.3-3.3 35.4z"/><path class="h" d="m108.4 247c0.1-3.6 0-7.8-0.4-11.4l-10.9 2.3c0 0 0 4.4 0.1 9.2 0 0-0.3 4.4 3.9 5.1 4.1 0.7 7.4-1.7 7.3-5.2z"/><path class="g" d="m99.3 436.1c1.3-1.1 0.5-9.3 0.5-9.3 0 0-6.4-6.7-7.2-1.6-0.9 5.2-6.1 7.5-9 8.1-2.1 0.5-2.7 1.9-2.9 2.8z"/><path class="m" d="m117.9 287.6c0 0-2.1 3.6-2.5 3.6-0.4 0-5.5-2.6-4.1-8.5 1.5-5.8 5.1-6.9 5.1-6.9q0.3 2.3 0.4 5 0.2 3.1 0.3 6.5 0 0.2 0 0.5 0.4-0.1 0.8-0.2z"/><path class="g" d="m118.9 436.1c1.3-1.1 0.6-9.3 0.6-9.3 0 0-6.5-6.7-7.4-1.6-0.8 5.2-5.9 7.5-8.9 8.1-2.1 0.5-2.6 1.9-2.9 2.8z"/><path class="b" d="m109.4 231.5c0 0 7.3-15-6.7-16 0 0-5.2 0.8-6.4-0.8 0 0-4 8.1-0.2 16.8 3.7 8.6 13.3 0 13.3 0z"/><path class="h" d="m97.4 239.3c1.1 1.1 4.2 2.1 5.1 2.3 0 0 4.6-1.3 5.5-2 1.2-1 1.1-3.1 1.2-6 0.1-3.4 0.3-6.1 0.1-8.1-0.4-2.3-1.5-3.7-4.7-4-5.9-0.7-8.3 1.2-8.5 3.8q0 1 0 2c-0.2 8 0.3 10.9 1.3 12z"/><path class="b" d="m96.1 229.9c0 4.6 0.9 7.4 1.7 7.8q1.2 0.6 2.7 0.9c0.3 0 0.6 0 0.6-0.2 0-0.7-0.8-1.6-0.2-2.3 0.6-0.7 3.7-0.9 4 0.6 0.1 0.7-0.9 2-0.2 2q0.3-0.1 0.6-0.1c1.2-0.4 2-1.1 2.4-1.4 1.3-1 1.2-2.7 1.5-5.5 0.2-1.8 0.2-0.9 0 1.9-0.2 2.9 0.2 4.7-1.2 6-0.9 0.7-5.5 3.5-5.5 3.5 0-1.5-4-2.7-5.1-3.8-0.9-1-1.4-3.4-1.3-9.4z"/><path class="j" d="m118 314.8c0 0.8-3 3.5-7.8 5.6q-0.7 0.2-1.3 0.4 0 0 0 0c-0.4 7.1-1.7 17-2.8 26.7-0.4 2.5-0.6 5-0.9 7.3-0.6 6.4-1.2 12.1-1.2 16.3-0.1 2 1.2 6.7 1.2 7.8q0.1 1 0.2 2.1c0.2 3 0.1 6.5-0.1 10.2-0.8 16.4-4.1 37.4-5.3 38.3-2.3 1.7-6.6 0-8.7-0.4-0.9-0.3-1.7-1.3-1.6-2.4 1.1-27.2-1.9-65-4.2-88.3q-0.1-0.9-0.2-1.8c-0.3-2.7-0.5-5.2-0.6-7.5-0.1-2.1-0.1-3.9-0.1-5.5q0-0.8 0-1.4c-0.1-1.5 0.8-11 0.9-54.7 0-1 0.5-1.8 1.4-1.8h20.3c2 0 3.5 2.1 3.5 4.6 0 3.4 0.1 8 0.6 12.4 0.8 6.1 2.4 11.8 5.8 13.2q0 0.1 0.2 0.7 0 1.7 0.1 3.4 0 0.3 0.1 0.6 0 0.3 0 0.5 0 0.3 0 0.7 0 0.6 0.1 1.1 0 0.5 0 0.9 0 1 0 1.9 0 0.2 0 0.5 0.1 1.2 0.2 2.4 0 0.3 0 0.7 0 0.2 0.1 0.4 0 0.5 0 0.9 0.1 0.6 0.1 1c0.1 1.3 0 2.3 0 3.2z"/><path class="g" d="m105.3 391.2c-0.8 16.4-4.1 37.4-5.3 38.3-2.3 1.7-6.6 0-8.7-0.4-0.9-0.3-1.7-1.3-1.6-2.4 1.1-27.2-1.9-65-4.2-88.3q-0.1-0.9-0.2-1.8c-0.3-2.7-0.5-5.2-0.6-7.5 1.1-9.3 7.2-9.8 12.7 9.3 2.3 7.4 8.1 49.1 7.9 52.8z"/><path class="j" d="m118.2 370.4c0.2 1.9 1.8 6.3 2.1 7.4 2.8 14.7 1.2 49.6-0.2 51-2.1 2.2-6.6 1.2-8.7 1.1-0.9 0-1.7-0.9-1.8-2.1-1.7-27.8-8.9-66-13.4-88.5-2.3-11.3-2.6-19.6-2.6-19.6 0 0 21.3-17.2 23.6-7.8 2.1 8.3-0.3 43.9 1 58.5z"/><path class="m" d="m110.3 213.1c0 0-0.5-1.1-1.6-2.2q-0.2-0.3-0.5-0.6c-2-2-5.1-3.8-8.8-1.8-1 0.6-1.8 1.3-2.5 2.2q-0.3 0.3-0.5 0.6c-3.2 4.8-3 12.1-3 12.1l18.7-0.3c0-6.8-1.8-10-1.8-10z"/><path class="n" d="m106.9 223.2c0-0.1-0.6-9.3 1.8-12.3-0.2-0.3-0.1-0.2-0.3-0.4-2.5 3.4-2.6 12.3-2.6 12.7z"/><path class="n" d="m99.9 223.3c-0.2-6-2.7-11.9-3-12.6-0.2 0.2-0.2 0.3-0.4 0.4 0.5 1.1 2.1 6.9 2.3 12.2l-5.4 0.1c0 0 5 1.7 8.7 1.6 3.8-0.1 10-1.9 10-1.9z"/><path class="j" d="m111.4 247.6c0 0-6.3 9.7-6.6 18.1h3.2c0 0 0.8-9.2 5.5-17.5z"/><path class="j" d="m95.7 247.6c-4.5 8.9-5 18.1-5 18.1h-3.3c0.4-6.6 3.5-13.7 5.2-17.1 1.2-0.4 2.3-0.8 3.1-1z"/><path fill-rule="evenodd" class="b" d="m126.8 313.3q-0.9 2.5-2.3 4.1c-1.4 1.7-3.2 2.9-5.2 3.3q-0.9 0.2-2 0.1-0.3 0.1-0.6 0.2-0.2 0-0.4 0.1-0.2 0-0.5 0-1.3 0.6-2.8 0.6-0.4 0-0.7-0.1-0.3 0.1-0.6 0.1-1.7 0-3.4-0.7-0.4-0.2-0.9-0.3-0.8-0.4-1.7-0.9c-5.5-3.4-10.9-11.8-10.7-21 0.3-11.9 5.4-37 10.9-48.2q0-0.1 0-0.1 0.8-1.8 1.7-3.1 0.1-0.1 0.2-0.3 1.6-2.1 3-2.3 0.4-0.2 0.9-0.2 0.3 0 0.5 0 0.2 0 0.4 0c0.9-0.1 2.3 0.9 4.4 5q0 0 0 0-0.3-0.1-0.5-0.2-0.2-0.2-0.5-0.2-0.2-0.1-0.5-0.2-0.2-0.1-0.3-0.2-0.3-0.1-0.7-0.2-0.1-0.1-0.1-0.1-0.3-0.1-0.6-0.2-0.6-0.2-1.1-0.3 0 0 0-0.1c-0.3-0.5-0.6-0.8-0.8-1q-0.1-0.1-0.2-0.2-0.4 0.3-0.8 0.8-0.2 0.3-0.4 0.6-0.1 0.2-0.2 0.3 0 0.2-0.2 0.3c-3.4 6.3-6.2 21.9-7.4 35.4-0.7 6.8-1 13-0.7 17.3 0.4 5.9 3.9 13.1 10.1 16.3q0.7 0.4 1.5 0.8 0.1 0 0.2 0 0.1 0 0.2 0 0.6 0.3 1.3 0.5c1.4-0.9 2.6-2.3 3.6-4.1 1.5-3 2.4-8.4 2.4-15.7q0.5 0 1 0c0 8.2-1 12.9-2.1 15.6 1.6-3 2.4-8.4 2.5-15.6q0.5-0.1 1-0.1c-0.1 9.5-1.4 14.4-2.7 16.8q-0.6 1.3-1.3 2.2c1.6-1.1 2.8-2.8 3.8-5 1.2-2.8 1.7-7.8 1.5-14.2 0.5-0.1 0.8-0.1 0.8-0.1q0.1-0.4 0.2-0.7c0.4 8.7-0.6 13.5-1.7 16q-0.8 2-1.9 3.4c1.4-1.2 2.6-2.9 3.5-5.1 1.4-3.5 1.8-9.9 0.9-18.2 0.3-1.8 0.4-3.9 0.4-6.1 0.6 4.5 1 8.4 1.1 11.6 0.3 7.1-0.6 11.3-1.5 13.6zm-6.8 2q0.1-0.2 0.1-0.3 0 0.1-0.1 0.3zm0.1-0.3q0.1-0.1 0.1-0.2 0 0 0 0.1 0 0-0.1 0.1zm-21-4.5c-1.7-3.5-2.8-7.6-2.7-11.7 0.2-10.2 4.1-30.3 8.6-42.8q0.2-0.8 0.5-1.7c-4.8 11.9-9.1 34.1-9.4 44.5-0.1 3.6 0.9 7.8 3 11.7zm8.9 8c-4.7-3.4-9-9.9-9.2-17.7-0.3-6.2 0.6-16.3 2.2-26.1-2 9.1-3.4 18.4-3.6 24.1-0.1 6.4 3.2 15.1 10.1 19.4q0.3 0.2 0.5 0.3zm0.1-1.8c-3.8-3.3-6.8-8.7-7.1-15.2-0.3-3.6-0.1-8.5 0.3-14 0.7-10.5 2.6-23.2 5.1-31.9q-0.2 0.5-0.4 1.1-0.6 2-1.2 4.2c-3.2 12.9-5.3 30.9-5 39.8 0.2 5.5 3.1 12.3 8.3 16z"/><path class="h" d="m117.9 287.6c-0.2 0.1-3.5 0.8-3.6 0.8-5.5 1.1-12.8 1.6-13.6 1.6-0.1-0.1-2.7-3.2-3.7-3.2-1 0-4 1.4-4.3 2.4-0.3 1.1-0.4 3.1 0.4 3.6 0.9 0.4 4.3 1.4 5.3 1.6q0.2 0 0.4 0c6.5 2.5 12.2 3.7 16.5 4.3 0.4 0.1 2.6 0.5 4.6 0.4 0-4.9-1.3-9.5-2-11.5z"/><path fill-rule="evenodd" class="z" d="m234 185.7v6.1h3.1v1.8h-3.1v6h3.1v1.9h-3.1v6h3.1v1.9h-3.1v6.1h3.1v1.9h-3.1v6h3.1v1.9h-3.1v4.8h3.1v1.9h-3.1v6.1h3.1v1.9h-3.1v6h3.1v1.8h-3.1v6.1h3.1v1.9h-3.1v6h3.1v1.9h-3.1v6h3.1v1.9h-3.1v5.7h3.1v1.9h-3.1v6.1h3.1v1.9h-3.1v6h3.1v1.9h-3.1v6h3.1v1.9h-3.1v6h3.1v1.9h-3.1v6h3.1v1.9h-3.1v4.9h3.1v1.9h-3.1v6h3.1v1.9h-3.1v6.1h3.1v1.8h-3.1v6.1h3.1v1.8h-3.1v6h3.1v1.9h-3.1v6.1h3.1v1.9h-3.1v5.3h3.1v1.9h-3.1v6.1h3.1v1.8h-3.1v6.1h3.1v1.9h-3.1v6h3.1v1.8h-3.1v6.1h3.1v1.9h-3.1v6h3.1v1.9h-3.1v4.9h3.1v1.8h-3.1v6.1h3.1v1.9h-3.1v6h3.1v1.9h-37.3v-1.9h3.5v-6h-3.5v-1.9h3.5v-6.1h-3.5v-1.8h3.5v-4.9h-3.5v-1.9h3.5v-6h-3.5v-1.9h3.5v-6.1h-3.5v-1.8h3.5v-6h-3.5v-1.9h3.5v-6.1h-3.5v-1.8h3.5v-6.1h-3.5v-1.9h3.5v-5.3h-3.5v-1.9h3.5v-6.1h-3.5v-1.9h3.5v-6h-3.5v-1.8h3.5v-6.1h-3.5v-1.8h3.5v-6.1h-3.5v-1.9h3.5v-6h-3.5v-1.9h3.5v-4.9h-3.5v-1.9h3.5v-6h-3.5v-1.9h3.5v-6h-3.5v-1.9h3.5v-6h-3.5v-1.9h3.5v-6h-3.5v-1.9h3.5v-6.1h-3.5v-1.9h3.5v-5.7h-3.5v-1.9h3.5v-6h-3.5v-1.9h3.5v-6h-3.5v-1.9h3.5v-6.1h-3.5v-1.8h3.5v-6h-3.5v-1.9h3.5v-6.1h-3.5v-1.9h3.5v-4.8h-3.5v-1.9h3.5v-6h-3.5v-1.9h3.5v-6.1h-3.5v-1.9h3.5v-6h-3.5v-1.9h3.5v-6h-3.5v-1.8h3.5v-6.1h-3.5v-1.9h3.5v-12.4h2.6v12.4h6.6v-12.4h2.5v12.4h7.2v-12.4h2.6v12.4h6.6v-12.4h2.6v12.4h3.1v1.9zm-18.9 6.1h7.2v-6.1h-7.2zm0 233h7.2v-6h-7.2zm0 7.9h7.2v-6h-7.2zm0-15.8h7.2v-4.9h-7.2zm0-6.8h7.2v-6h-7.2zm0-7.9h7.2v-6h-7.2zm0-8h7.2v-6h-7.2zm0-8h7.2v-6h-7.2zm0-7.8h7.2v-6.1h-7.2zm0-7.9h7.2v-5.4h-7.2zm0-7.2h7.2v-6.1h-7.2zm0-7.9h7.2v-6.1h-7.2zm0-7.9h7.2v-6h-7.2zm0-7.9h7.2v-6.1h-7.2zm0-7.9h7.2v-6.1h-7.2zm0-7.9h7.2v-4.8h-7.2zm0-6.8h7.2v-6h-7.2zm0-8h7.2v-6h-7.2zm0-7.9h7.2v-6h-7.2zm0-8h7.2v-6h-7.2zm0-7.9h7.2v-6h-7.2zm0-7.9h7.2v-5.9h-7.2zm0-7.6h7.2v-6h-7.2zm0-7.9h7.2v-6.1h-7.2zm0-7.8h7.2v-6.1h-7.2zm0-7.9h7.2v-6.1h-7.2zm0-7.9h7.2v-6h-7.2zm0-7.9h7.2v-4.9h-7.2zm0-6.8h7.2v-6h-7.2zm0-7.9h7.2v-6h-7.2zm0-8h7.2v-6h-7.2zm0-8h7.2v-6h-7.2zm-9.2-7.9h6.6v-6h-6.6zm0 7.9h6.6v-6h-6.6zm0 7.9h6.6v-6h-6.6zm0 7.8h6.6v-5.9h-6.6zm0 7.8h6.6v-6h-6.6zm0 6.8h6.6v-5h-6.6zm0 8h6.6v-6.1h-6.6zm0 8h6.6v-6.1h-6.6zm0 7.9h6.6v-6h-6.6zm0 7.9h6.6v-6h-6.6zm0 7.9h6.6v-6h-6.6zm0 7.6h6.6v-5.7h-6.6zm0 7.9h6.6v-6.1h-6.6zm0 8h6.6v-6.1h-6.6zm0 7.9h6.6v-6h-6.6zm0 7.9h6.6v-6h-6.6zm0 7.8h6.6v-6h-6.6zm0 6.8h6.6v-4.9h-6.6zm0 7.9h6.6v-6h-6.6zm0 7.9h6.6v-6h-6.6zm0 7.9h6.6v-6.1h-6.6zm0 8h6.6v-6.1h-6.6zm0 8h6.6v-6.1h-6.6zm0 7.3h6.6v-5.4h-6.6zm0 7.9h6.6v-6h-6.6zm0 7.9h6.6v-6h-6.6zm0 7.8h6.6v-6h-6.6zm0 7.9h6.6v-6h-6.6zm0 7.9h6.6v-6.1h-6.6zm0 6.9h6.6v-5h-6.6zm0 8h6.6v-6.1h-6.6zm0 8h6.6v-6.1h-6.6zm18.9 0h6.6v-6h-6.6zm0-8h6.6v-5.9h-6.6zm0-8h6.6v-4.9h-6.6zm0-6.8h6.6v-6h-6.6zm0-7.9h6.6v-6h-6.6zm0-7.9h6.6v-6.1h-6.6zm0-7.9h6.6v-6h-6.6zm0-7.9h6.6v-6.1h-6.6zm0-7.9h6.6v-5.4h-6.6zm0-7.2h6.6v-6.1h-6.6zm0-7.9h6.6v-6.1h-6.6zm0-7.9h6.6v-6h-6.6zm0-7.9h6.6v-6h-6.6zm0-8h6.6v-6h-6.6zm0-7.9h6.6v-4.9h-6.6zm0-6.8h6.6v-6h-6.6zm0-7.9h6.6v-6.1h-6.6zm0-7.8h6.6v-6.1h-6.6zm0-7.9h6.6v-6.1h-6.6zm0-7.9h6.6v-6h-6.6zm0-7.9h6.6v-5.8h-6.6zm0-7.6h6.6v-6.1h-6.6zm0-7.9h6.6v-6h-6.6zm0-7.9h6.6v-6.1h-6.6zm0-7.9h6.6v-6.1h-6.6zm0-7.8h6.6v-6h-6.6zm0-8h6.6v-4.8h-6.6zm0-6.9h6.6v-6h-6.6zm0-7.9h6.6v-6h-6.6zm0-7.9h6.6v-6.1h-6.6zm0-7.9h6.6v-6h-6.6zm0-7.9h6.6v-6.1h-6.6z"/><path class="a" d="m267.8 71h0.9v21.4h-0.9z"/><path class="a" d="m318.8 71h0.9v21.4h-0.9z"/><path class="a" d="m274.2 71h1v21.4h-1z"/><path class="a" d="m323.4 71h0.9v21.4h-0.9z"/><path class="j" d="m138.5 387c-0.2-0.1-0.6 0.1-0.7 0.4l-4.9 28.5c-1.3 0-2.7 1.9-3.2 4.6l-0.4 2.7c-0.1 0.1-0.1 0.3-0.1 0.5l5.5 1.6c0.1-0.2 0.1-0.3 0.1-0.5l0.5-2.6c0.5-2.7-0.1-5.2-1.3-6l4.9-28.4c0.1-0.4-0.1-0.8-0.4-0.8z"/><path class="t" d="m124.1 423.6c0 0 11.4-3.9 15.1-0.8 3.7 3.2-1.8 6.6-1.8 6.6z"/><path class="j" d="m212.5 252.4c-2.2 8.7-14.1 23.9-15.8 25.4 0 0-2.8-6.1-2.2-9.4 0.5-2.8 5.1-12.7 6.7-17.5q0.1-0.4 0.2-0.8c0.3-0.7 0.3-1.3 0.3-1.6 0-1.1-2.6-3.6-5.5-6.7-3.8-3.9-8.3-8.7-9.1-11.9-1.3-5.9-5.7-28.9-5.7-28.9 0 0 11.1 3.2 14.3 6.8 3.1 3.7 16.5 34 17.1 41.7 0.1 0.8-0.1 1.8-0.3 2.9z"/><path class="h" d="m212.5 252.4c-2.2 8.7-14.1 23.9-15.8 25.4 0 0-2.8-6.1-2.2-9.4 0.5-2.9 5.6-13.7 6.9-18.3 2-0.4 6.7-0.9 11.1 2.3z"/><path class="h" d="m181.4 199v1.8c0 0 0.3 5.6-5 6.4-5.2 0.8-9.2-1.7-9-6 0.4-3.4 1-6.2 1-8.9 0-1-0.1-2.1-0.2-3.3l10.2-0.3 3 0.6z"/><path class="i" d="m181.4 189.3v9.7c-1.1 0.6-2.3 1-3.7 1-4.7 0-7.7-4.5-9.3-7.7 0-1-0.1-2.1-0.2-3.3l10.2-0.3z"/><path class="g" d="m172.3 436.1c0 0-0.5-5.1-1.6-8-1.1-3-8.4-1.2-8.4-1.2 0 0-1.5 1.7-1.8 9.3z"/><path class="g" d="m197.2 436.1c-1.7-1.4-0.7-11.6-0.7-11.6 0 0 7.9-8.3 9-2 1.2 6.4 7.6 9.3 11.3 10.1 2.5 0.6 3.3 2.4 3.6 3.5z"/><path class="A" d="m180.6 360.7c0.4 2.4 0.6 4.2 0.7 5.6 0.7 19 12.1 62.3 14.2 63.3 3.1 1.6 8.1-1.8 10.8-2.8 1-0.5 1.8-1.9 1.5-3.4-5.7-34.1-7.7-83.2-8.5-112.2-0.4-14.7-2.3-24.8-2.3-24.8 0 0-27.9-9.7-28 2.6-0.2 10.9 9.2 53.7 11.6 71.7z"/><path class="s" d="m180.6 360.7l18.7-49.5c-0.4-14.7-2.3-24.8-2.3-24.8 0 0-27.9-9.7-28 2.6-0.2 10.9 9.2 53.7 11.6 71.7z"/><path class="B" d="m186.9 289l-14.7 140c0 0-6.5 2-11.6 0.4 0 0-4.3-74.5-3.9-92.5 0.4-17.9-3.2-48.1 0.8-51.4 3.8-3.3 29.4 3.5 29.4 3.5z"/><path class="j" d="m197.8 289.3c0 0-7.6 5.8-18.5 5.6-4.2-0.1-7.9-0.5-11.1-1.2-8.7-1.6-13.1-4.8-13.1-6 0.1-1.1 0.2-4.6 0.2-6.2 1.4-21 0.7-37.4 2.6-49.7q0-0.1 0.1-0.4c2.4-15.6 6.3-24.5 8.2-28.2q1.1-2 1.2-2c0 2.9 4.7 5.4 8.6 5.1 3.2-0.3 5.4-3.5 5.4-5.3 0.2 0 14.6 13.1 14.6 25.3 0.1 54.6 2.6 63 1.8 63z"/><path class="g" d="m168.3 293.6q0 0.1-0.1 0.1c-8.7-1.6-13.1-4.8-13.1-6 0.1-1.1 0.2-4.6 0.2-6.2 1.4-21 0.7-37.4 2.6-49.7 4.6 8.1 14 29.2 10.4 61.8z"/><path class="C" d="m192.3 267.5l-1.2 5.1-1.2 5.1-50.7-20q-0.2 0-0.3 0-0.1-0.1-0.1-0.2c-0.7-0.5-0.8-2.8-0.3-5.2q0-0.2 0.1-0.4c0.6-2.7 1.6-4.6 2.5-4.6q0 0 0.2 0 0.1 0 0.2 0.1z"/><path class="D" d="m191.1 272.6l-1.2 5.1-50.7-20q-0.2 0-0.3 0-0.1-0.1-0.1-0.2c-0.7-0.5-0.8-2.8-0.3-5.2 2.1 2 12 11.1 28.9 15.5 17.5 4.5 22.8 4.8 23.7 4.8z"/><path class="c" d="m192.4 267.5c-0.9-0.4-2.1 1.7-2.7 4.5-0.7 2.9-0.5 5.4 0.3 5.7 0.9 0.4 2-1.6 2.7-4.5 0.7-2.9 0.5-5.4-0.3-5.7z"/><path class="C" d="m141.8 245.5l-6-1.2q-0.1-0.1-0.2-0.1-0.1 0-0.1 0c-0.9 0.2-1.8 2.3-2.1 5q0 0.2-0.1 0.4c0 1.2 0 2.3 0.1 3.3 0.1 0.9 0.4 1.6 0.8 1.8q0 0.1 0.2 0.1 0.1 0.1 0.2 0l52.3 11.2 0.6-5.3 0.7-5.2z"/><path class="D" d="m163.6 260c-11.2-0.9-17.1-8.7-21.8-14.5l-6-1.2q-0.1-0.1-0.2-0.1-0.1 0-0.1 0c-0.9 0.2-1.8 2.3-2.1 5q0 0.2-0.1 0.4c0 1.2 0 2.3 0.1 3.3 0.3 1 0.6 1.7 0.8 1.8q0 0.1 0.2 0.1 0.1 0.1 0.2 0l52.3 11.2 0.6-5.3c-0.7 0.1-6.1 0.8-23.9-0.7z"/><path class="c" d="m188.3 255.4c-0.9-0.2-1.8 2-2.2 5-0.4 2.9 0 5.4 0.9 5.6 0.9 0.2 1.9-2.1 2.3-4.9 0.3-3-0.1-5.5-1-5.7z"/><path class="h" d="m169.7 275.6c-12.1-2.5-20.2-9.2-23.5-12.5-1.1-1.1-1.7-1.7-1.7-1.7-6.2-17.2 5.1-47.2 7.1-52.3 2.3-5.5 15.8-7.9 15.8-7.9 0 0-2.2 8.4-3 19.2-0.8 10.9-9.9 32-9.6 33.8 0.2 0.5 1.3 1.4 2.8 2.6 4.8 3.5 13.8 9.2 14.4 10.5 0.7 1.8-2.3 8.3-2.3 8.3z"/><path class="h" d="m172 267.3c0 0 6.8-3.5 8.5-2 1.6 1.3 4.4 3.6 4.4 5 0 1.4-3.5 5.4-6.5 6.5-2.9 1.3-8.7-1.2-8.7-1.2z"/><path class="j" d="m164.4 220.4c-0.8 10.9-9.9 32-9.6 33.8 0.2 0.5 1.3 1.4 2.8 2.6q-0.1 0.1-0.2 0c-7.2-0.4-10.4 4.8-11.2 6.3-1.1-1.1-1.7-1.7-1.7-1.7-6.2-17.2 5.1-47.2 7.1-52.3 2.3-5.5 15.8-7.9 15.8-7.9 0 0-2.2 8.4-3 19.2z"/><path class="h" d="m181.9 194.1c0 0-12.9 3.4-14.5-7.3-1.5-10.6-4.2-17.5 4-20.1 8.3-2.6 10.5 1.1 11.7 4.4 1.1 3.4 2.2 21.7-1.2 23z"/><path class="g" d="m167.7 189.9c0 0-2.5-7.1-4.6-10.2-2.2-3.1-1-18.8 8.1-18.3 9.1 0.5 12.3 9 12.4 10.6 0.1 1.7-7.2 0.5-9.3 2.6-2 2.1-0.1 5.6-2.4 6.8-2.3 1.3-4.1 1.3-3.7 4 0.4 2.8-0.5 4.5-0.5 4.5z"/><path class="m" d="m170.4 154.1c-2.5 0.9-4.5 2.3-5.9 3.9q-0.2 0.3-0.5 0.5c-5.3 6.7-3.2 17.4-3.2 17.4 0 0 0.8 2.7 1.3 3.8 0.5 1.1 7.6-0.2 7.9-2.2 0.4-2 1.8-4.1 1.8-4.1 0 0 7.6-0.7 8.1-0.7 1.7-0.2 6.6-2.4 6.6-2.4-0.1-0.6-2.8-20.5-16.1-16.2z"/><path class="n" d="m190.9 168.2c-0.9-0.3-2.5-0.6-5-0.8 0 0-2.1 2.3-6.3 4.2-2-3.3-7.8-11.3-15.1-13.6-0.2 0.3-0.3 0.3-0.5 0.5q0 0.1 0 0.2c6 1.4 11.7 10.2 13.7 13.5-1.7 0.6-3.6 1-5.9 1.2 0 0 13.2 0.3 19.3-3.8 0.4-0.3 0.3-1.2-0.2-1.4z"/><path class="g" d="m204.4 246.6c-0.3 1.8-1.1 3.7-3.2 4.3q0.1-0.4 0.2-0.8c0.3-0.7 0.3-1.3 0.3-1.6 0-1.1-2.6-3.6-5.5-6.7-0.2-1.7-0.9-6.8 0-10.9 1-4.9 8.4 13.6 8.2 15.7z"/><path class="g" d="m156.2 255.6c0 0-9-0.9-11.9 6 0 0 0.2 2.3 1.9 1.5 0 0 7.7-6.8 11.4-6.3 0 0-0.5-1.2-1.4-1.2z"/><path class="n" d="m201.2 246c0 0 4.7 0.2 10.6 3.6 0 0 1.4-1.7 0.8-2.7-0.5-0.9-8.8-4.4-11.4-0.9z"/></svg>